M48
INCH,TZ
T1C0.0157
T2C0.0295
T3C0.0315
T4C0.0354
T5C0.0394
T6C0.0433
T7C0.1201
T8C0.1260
T9C0.1402
%
G90
G05
T1
X22148Y-45062
X22148Y-46018
X22148Y-47042
X22498Y-40004
X22498Y-41006
X22498Y-42010
X23494Y-48288
X26510Y-47948
X26510Y-49846
X26510Y-51574
X26732Y-40520
X26732Y-41756
T2
X31280Y-34717
X31280Y-35217
X31280Y-35717
X31280Y-43803
X31280Y-44303
X31280Y-44803
X35701Y-37261
X35701Y-37761
X35701Y-38261
X35701Y-41261
X35701Y-41761
X35701Y-42261
X35701Y-46346
X35701Y-46846
X35701Y-47346
X35701Y-50346
X35701Y-50846
X35701Y-51346
X38181Y-39261
X38181Y-39761
X38181Y-40261
X38181Y-48346
X38181Y-48846
X38181Y-49346
T3
X21616Y-35217
X22600Y-35217
X23756Y-41993
X23756Y-42978
X23756Y-51079
X23756Y-52063
X24504Y-35217
X24504Y-44302
X25126Y-36761
X25126Y-37761
X25126Y-38761
X25126Y-39761
X25126Y-40761
X25126Y-41761
X25126Y-42761
X25126Y-45846
X25126Y-46846
X25126Y-47846
X25126Y-48846
X25126Y-49846
X25126Y-50846
X25126Y-51846
X28126Y-36761
X28126Y-37761
X28126Y-38761
X28126Y-39761
X28126Y-40761
X28126Y-41761
X28126Y-42761
X28126Y-45846
X28126Y-46846
X28126Y-47846
X28126Y-48846
X28126Y-49846
X28126Y-50846
X28126Y-51846
X28504Y-35217
X28504Y-44302
X29421Y-37761
X29421Y-39761
X29421Y-41761
X29421Y-46846
X29421Y-48846
X29421Y-50846
X33421Y-37761
X33421Y-39761
X33421Y-41761
X33421Y-46846
X33421Y-48846
X33421Y-50846
X34303Y-34768
X34303Y-35752
X42381Y-37385
X42381Y-41385
X45009Y-37385
X45009Y-41385
X52472Y-41914
X52472Y-42898
X53238Y-47388
X54222Y-47388
T4
X42381Y-35028
X43381Y-35028
X45009Y-35028
X46009Y-35028
T5
X20433Y-38008
X20433Y-39008
X20433Y-40008
X20433Y-41008
X20433Y-42008
X20433Y-43008
X20433Y-44008
X20433Y-45008
X20433Y-46008
X20433Y-47008
X20433Y-48008
X20433Y-49008
X21433Y-38008
X21433Y-39008
X21433Y-40008
X21433Y-41008
X21433Y-42008
X21433Y-43008
X21433Y-44008
X21433Y-45008
X21433Y-46008
X21433Y-47008
X21433Y-48008
X21433Y-49008
T6
X37836Y-35480
X38836Y-35480
X39836Y-35480
X40108Y-50986
X41108Y-50986
X42108Y-50986
X43108Y-50986
X44742Y-50986
X45742Y-50986
X46742Y-50986
X47742Y-50986
X49376Y-50986
X50376Y-50986
X51376Y-50986
X53748Y-41908
X53748Y-42908
X53748Y-43908
T7
X47916Y-37381
X49806Y-36101
T8
X17290Y-35480
X17290Y-51354
X53570Y-35480
X53570Y-51354
T9
X49806Y-38562
T0
M30
