%TF.GenerationSoftware,KiCad,Pcbnew,(5.1.9)-1*%
%TF.CreationDate,2021-05-06T15:16:17-04:00*%
%TF.ProjectId,c64interface,63363469-6e74-4657-9266-6163652e6b69,rev?*%
%TF.SameCoordinates,Original*%
%TF.FileFunction,Copper,L1,Top*%
%TF.FilePolarity,Positive*%
%FSLAX46Y46*%
G04 Gerber Fmt 4.6, Leading zero omitted, Abs format (unit mm)*
G04 Created by KiCad (PCBNEW (5.1.9)-1) date 2021-05-06 15:16:17*
%MOMM*%
%LPD*%
G01*
G04 APERTURE LIST*
%TA.AperFunction,ComponentPad*%
%ADD10C,4.575000*%
%TD*%
%TA.AperFunction,ComponentPad*%
%ADD11C,5.340000*%
%TD*%
%TA.AperFunction,ComponentPad*%
%ADD12C,1.600000*%
%TD*%
%TA.AperFunction,ComponentPad*%
%ADD13R,1.600000X1.600000*%
%TD*%
%TA.AperFunction,ComponentPad*%
%ADD14C,2.100000*%
%TD*%
%TA.AperFunction,ComponentPad*%
%ADD15R,2.100000X2.100000*%
%TD*%
%TA.AperFunction,ComponentPad*%
%ADD16C,5.600000*%
%TD*%
%TA.AperFunction,ComponentPad*%
%ADD17O,2.000000X1.905000*%
%TD*%
%TA.AperFunction,ComponentPad*%
%ADD18R,2.000000X1.905000*%
%TD*%
%TA.AperFunction,ComponentPad*%
%ADD19O,1.700000X1.700000*%
%TD*%
%TA.AperFunction,ComponentPad*%
%ADD20R,1.700000X1.700000*%
%TD*%
%TA.AperFunction,ComponentPad*%
%ADD21O,2.400000X1.600000*%
%TD*%
%TA.AperFunction,ComponentPad*%
%ADD22R,2.400000X1.600000*%
%TD*%
%TA.AperFunction,ComponentPad*%
%ADD23O,1.905000X2.000000*%
%TD*%
%TA.AperFunction,ComponentPad*%
%ADD24R,1.905000X2.000000*%
%TD*%
%TA.AperFunction,ComponentPad*%
%ADD25O,1.600000X1.600000*%
%TD*%
%TA.AperFunction,ComponentPad*%
%ADD26R,1.500000X1.050000*%
%TD*%
%TA.AperFunction,ComponentPad*%
%ADD27O,1.500000X1.050000*%
%TD*%
%TA.AperFunction,ComponentPad*%
%ADD28C,1.800000*%
%TD*%
%TA.AperFunction,ComponentPad*%
%ADD29R,1.800000X1.800000*%
%TD*%
%TA.AperFunction,ViaPad*%
%ADD30C,0.800000*%
%TD*%
%TA.AperFunction,Conductor*%
%ADD31C,0.800000*%
%TD*%
%TA.AperFunction,Conductor*%
%ADD32C,0.250000*%
%TD*%
%TA.AperFunction,Conductor*%
%ADD33C,0.254000*%
%TD*%
%TA.AperFunction,Conductor*%
%ADD34C,0.100000*%
%TD*%
G04 APERTURE END LIST*
D10*
%TO.P,J1,3*%
%TO.N,GND*%
X126507000Y-91697500D03*
%TO.P,J1,2*%
%TO.N,Net-(J1-Pad2)*%
X121707000Y-94947500D03*
D11*
%TO.P,J1,1*%
%TO.N,+12V*%
X126507000Y-97947500D03*
%TD*%
D12*
%TO.P,C6,2*%
%TO.N,GND*%
X137724520Y-120365520D03*
D13*
%TO.P,C6,1*%
%TO.N,+5C*%
X135224520Y-120365520D03*
%TD*%
D14*
%TO.P,J4,3*%
%TO.N,+5C*%
X130495000Y-129504000D03*
%TO.P,J4,2*%
%TO.N,GND*%
X127955000Y-129504000D03*
D15*
%TO.P,J4,1*%
%TO.N,+12V*%
X125415000Y-129504000D03*
%TD*%
D16*
%TO.P,H4,1*%
%TO.N,N/C*%
X43916600Y-130439000D03*
%TD*%
%TO.P,H3,1*%
%TO.N,N/C*%
X136068000Y-90119200D03*
%TD*%
%TO.P,H2,1*%
%TO.N,N/C*%
X43916600Y-90119200D03*
%TD*%
%TO.P,H1,1*%
%TO.N,N/C*%
X136068000Y-130439000D03*
%TD*%
D17*
%TO.P,U4,3*%
%TO.N,+5C*%
X136520000Y-111526000D03*
%TO.P,U4,2*%
%TO.N,GND*%
X136520000Y-108986000D03*
D18*
%TO.P,U4,1*%
%TO.N,+12V*%
X136520000Y-106446000D03*
%TD*%
D12*
%TO.P,C3,2*%
%TO.N,GND*%
X54904000Y-89450000D03*
D13*
%TO.P,C3,1*%
%TO.N,+5V*%
X57404000Y-89450000D03*
%TD*%
D19*
%TO.P,CN1,N*%
%TO.N,GND*%
X51900000Y-96540000D03*
%TO.P,CN1,12*%
X54440000Y-96540000D03*
%TO.P,CN1,M*%
%TO.N,Net-(CN1-PadM)*%
X51900000Y-99080000D03*
%TO.P,CN1,11*%
%TO.N,Net-(CN1-Pad11)*%
X54440000Y-99080000D03*
%TO.P,CN1,L*%
%TO.N,/PB7*%
X51900000Y-101620000D03*
%TO.P,CN1,10*%
%TO.N,Net-(CN1-Pad10)*%
X54440000Y-101620000D03*
%TO.P,CN1,K*%
%TO.N,/PB6*%
X51900000Y-104160000D03*
%TO.P,CN1,9*%
%TO.N,Net-(CN1-Pad9)*%
X54440000Y-104160000D03*
%TO.P,CN1,J*%
%TO.N,/PB5*%
X51900000Y-106700000D03*
%TO.P,CN1,8*%
%TO.N,Net-(CN1-Pad8)*%
X54440000Y-106700000D03*
%TO.P,CN1,H*%
%TO.N,/PB4*%
X51900000Y-109240000D03*
%TO.P,CN1,7*%
%TO.N,Net-(CN1-Pad7)*%
X54440000Y-109240000D03*
%TO.P,CN1,F*%
%TO.N,/PB3*%
X51900000Y-111780000D03*
%TO.P,CN1,6*%
%TO.N,Net-(CN1-Pad6)*%
X54440000Y-111780000D03*
%TO.P,CN1,E*%
%TO.N,/PB2*%
X51900000Y-114320000D03*
%TO.P,CN1,5*%
%TO.N,Net-(CN1-Pad5)*%
X54440000Y-114320000D03*
%TO.P,CN1,D*%
%TO.N,/PB1*%
X51900000Y-116860000D03*
%TO.P,CN1,4*%
%TO.N,Net-(CN1-Pad4)*%
X54440000Y-116860000D03*
%TO.P,CN1,C*%
%TO.N,/PB0*%
X51900000Y-119400000D03*
%TO.P,CN1,3*%
%TO.N,Net-(CN1-Pad3)*%
X54440000Y-119400000D03*
%TO.P,CN1,B*%
%TO.N,Net-(CN1-PadB)*%
X51900000Y-121940000D03*
%TO.P,CN1,2*%
%TO.N,+5VP*%
X54440000Y-121940000D03*
%TO.P,CN1,A*%
%TO.N,GND*%
X51900000Y-124480000D03*
D20*
%TO.P,CN1,1*%
X54440000Y-124480000D03*
%TD*%
D21*
%TO.P,U3,14*%
%TO.N,+5V*%
X63820000Y-108613000D03*
%TO.P,U3,7*%
%TO.N,GND*%
X71440000Y-93373000D03*
%TO.P,U3,13*%
%TO.N,Net-(U3-Pad13)*%
X63820000Y-106073000D03*
%TO.P,U3,6*%
%TO.N,/GR2B*%
X71440000Y-95913000D03*
%TO.P,U3,12*%
%TO.N,Net-(U3-Pad12)*%
X63820000Y-103533000D03*
%TO.P,U3,5*%
%TO.N,/PB6*%
X71440000Y-98453000D03*
%TO.P,U3,11*%
%TO.N,Net-(U3-Pad11)*%
X63820000Y-100993000D03*
%TO.P,U3,4*%
%TO.N,/YE1B*%
X71440000Y-100993000D03*
%TO.P,U3,10*%
%TO.N,Net-(U3-Pad10)*%
X63820000Y-98453000D03*
%TO.P,U3,3*%
%TO.N,/PB5*%
X71440000Y-103533000D03*
%TO.P,U3,9*%
%TO.N,/PB7*%
X63820000Y-95913000D03*
%TO.P,U3,2*%
%TO.N,/GR1B*%
X71440000Y-106073000D03*
%TO.P,U3,8*%
%TO.N,/YE2B*%
X63820000Y-93373000D03*
D22*
%TO.P,U3,1*%
%TO.N,/PB4*%
X71440000Y-108613000D03*
%TD*%
D21*
%TO.P,U2,14*%
%TO.N,+5V*%
X63820000Y-131690000D03*
%TO.P,U2,7*%
%TO.N,GND*%
X71440000Y-116450000D03*
%TO.P,U2,13*%
%TO.N,Net-(U2-Pad13)*%
X63820000Y-129150000D03*
%TO.P,U2,6*%
%TO.N,/GR2A*%
X71440000Y-118990000D03*
%TO.P,U2,12*%
%TO.N,Net-(U2-Pad12)*%
X63820000Y-126610000D03*
%TO.P,U2,5*%
%TO.N,/PB2*%
X71440000Y-121530000D03*
%TO.P,U2,11*%
%TO.N,Net-(U2-Pad11)*%
X63820000Y-124070000D03*
%TO.P,U2,4*%
%TO.N,/YE1A*%
X71440000Y-124070000D03*
%TO.P,U2,10*%
%TO.N,Net-(U2-Pad10)*%
X63820000Y-121530000D03*
%TO.P,U2,3*%
%TO.N,/PB1*%
X71440000Y-126610000D03*
%TO.P,U2,9*%
%TO.N,/PB3*%
X63820000Y-118990000D03*
%TO.P,U2,2*%
%TO.N,/GR1A*%
X71440000Y-129150000D03*
%TO.P,U2,8*%
%TO.N,/YEL2A*%
X63820000Y-116450000D03*
D22*
%TO.P,U2,1*%
%TO.N,/PB0*%
X71440000Y-131690000D03*
%TD*%
D23*
%TO.P,U1,3*%
%TO.N,+5V*%
X101183200Y-90120000D03*
%TO.P,U1,2*%
%TO.N,GND*%
X98643200Y-90120000D03*
D24*
%TO.P,U1,1*%
%TO.N,+12V*%
X96103200Y-90120000D03*
%TD*%
D25*
%TO.P,R10,2*%
%TO.N,+5V*%
X107648000Y-105117500D03*
D12*
%TO.P,R10,1*%
%TO.N,Net-(D2-Pad1)*%
X107648000Y-94957500D03*
%TD*%
D25*
%TO.P,R9,2*%
%TO.N,+5VP*%
X114322000Y-105117500D03*
D12*
%TO.P,R9,1*%
%TO.N,Net-(D1-Pad1)*%
X114322000Y-94957500D03*
%TD*%
D25*
%TO.P,R8,2*%
%TO.N,/YE2B*%
X62240000Y-89450000D03*
D12*
%TO.P,R8,1*%
%TO.N,Net-(Q8-Pad2)*%
X72400000Y-89450000D03*
%TD*%
D25*
%TO.P,R7,2*%
%TO.N,/GR2B*%
X74730000Y-95913300D03*
D12*
%TO.P,R7,1*%
%TO.N,Net-(Q7-Pad2)*%
X84890000Y-95913300D03*
%TD*%
D25*
%TO.P,R6,2*%
%TO.N,/YE1B*%
X74730000Y-100993000D03*
D12*
%TO.P,R6,1*%
%TO.N,Net-(Q6-Pad2)*%
X84890000Y-100993000D03*
%TD*%
D25*
%TO.P,R5,2*%
%TO.N,/GR1B*%
X74730000Y-106073000D03*
D12*
%TO.P,R5,1*%
%TO.N,Net-(Q5-Pad2)*%
X84890000Y-106073000D03*
%TD*%
D25*
%TO.P,R4,2*%
%TO.N,/YEL2A*%
X62240000Y-112527000D03*
D12*
%TO.P,R4,1*%
%TO.N,Net-(Q4-Pad2)*%
X72400000Y-112527000D03*
%TD*%
D25*
%TO.P,R3,2*%
%TO.N,/GR2A*%
X74730000Y-118990000D03*
D12*
%TO.P,R3,1*%
%TO.N,Net-(Q3-Pad2)*%
X84890000Y-118990000D03*
%TD*%
D25*
%TO.P,R2,2*%
%TO.N,/YE1A*%
X74730000Y-124070000D03*
D12*
%TO.P,R2,1*%
%TO.N,Net-(Q2-Pad2)*%
X84890000Y-124070000D03*
%TD*%
D25*
%TO.P,R1,2*%
%TO.N,/GR1A*%
X74730000Y-129150000D03*
D12*
%TO.P,R1,1*%
%TO.N,Net-(Q1-Pad2)*%
X84890000Y-129150000D03*
%TD*%
D26*
%TO.P,Q8,1*%
%TO.N,GND*%
X79450000Y-88180000D03*
D27*
%TO.P,Q8,3*%
%TO.N,/YELL2B*%
X79450000Y-90720000D03*
%TO.P,Q8,2*%
%TO.N,Net-(Q8-Pad2)*%
X79450000Y-89450000D03*
%TD*%
D26*
%TO.P,Q7,1*%
%TO.N,GND*%
X90680000Y-94643300D03*
D27*
%TO.P,Q7,3*%
%TO.N,/GREY2B*%
X90680000Y-97183300D03*
%TO.P,Q7,2*%
%TO.N,Net-(Q7-Pad2)*%
X90680000Y-95913300D03*
%TD*%
D26*
%TO.P,Q6,1*%
%TO.N,GND*%
X96980000Y-99723300D03*
D27*
%TO.P,Q6,3*%
%TO.N,/YELL1B*%
X96980000Y-102263300D03*
%TO.P,Q6,2*%
%TO.N,Net-(Q6-Pad2)*%
X96980000Y-100993300D03*
%TD*%
D26*
%TO.P,Q5,1*%
%TO.N,GND*%
X90680000Y-104803000D03*
D27*
%TO.P,Q5,3*%
%TO.N,/GREY1B*%
X90680000Y-107343000D03*
%TO.P,Q5,2*%
%TO.N,Net-(Q5-Pad2)*%
X90680000Y-106073000D03*
%TD*%
D26*
%TO.P,Q4,1*%
%TO.N,GND*%
X79450000Y-111260000D03*
D27*
%TO.P,Q4,3*%
%TO.N,/YELL2A*%
X79450000Y-113800000D03*
%TO.P,Q4,2*%
%TO.N,Net-(Q4-Pad2)*%
X79450000Y-112530000D03*
%TD*%
D26*
%TO.P,Q3,1*%
%TO.N,GND*%
X90680000Y-117720000D03*
D27*
%TO.P,Q3,3*%
%TO.N,/GREY2A*%
X90680000Y-120260000D03*
%TO.P,Q3,2*%
%TO.N,Net-(Q3-Pad2)*%
X90680000Y-118990000D03*
%TD*%
D26*
%TO.P,Q2,1*%
%TO.N,GND*%
X96980000Y-122800000D03*
D27*
%TO.P,Q2,3*%
%TO.N,/YELL1A*%
X96980000Y-125340000D03*
%TO.P,Q2,2*%
%TO.N,Net-(Q2-Pad2)*%
X96980000Y-124070000D03*
%TD*%
D26*
%TO.P,Q1,1*%
%TO.N,GND*%
X90680000Y-127880000D03*
D27*
%TO.P,Q1,3*%
%TO.N,/GREY1A*%
X90680000Y-130420000D03*
%TO.P,Q1,2*%
%TO.N,Net-(Q1-Pad2)*%
X90680000Y-129150000D03*
%TD*%
D14*
%TO.P,J3,4*%
%TO.N,/YELL2B*%
X121265000Y-129504000D03*
%TO.P,J3,3*%
%TO.N,/GREY2B*%
X118725000Y-129504000D03*
%TO.P,J3,2*%
%TO.N,/YELL1B*%
X116185000Y-129504000D03*
D15*
%TO.P,J3,1*%
%TO.N,/GREY1B*%
X113645000Y-129504000D03*
%TD*%
D14*
%TO.P,J2,4*%
%TO.N,/YELL2A*%
X109494000Y-129504000D03*
%TO.P,J2,3*%
%TO.N,/GREY2A*%
X106954000Y-129504000D03*
%TO.P,J2,2*%
%TO.N,/YELL1A*%
X104414000Y-129504000D03*
D15*
%TO.P,J2,1*%
%TO.N,/GREY1A*%
X101874000Y-129504000D03*
%TD*%
D28*
%TO.P,D2,2*%
%TO.N,GND*%
X110188000Y-88970000D03*
D29*
%TO.P,D2,1*%
%TO.N,Net-(D2-Pad1)*%
X107648000Y-88970000D03*
%TD*%
D28*
%TO.P,D1,2*%
%TO.N,GND*%
X116862000Y-88970000D03*
D29*
%TO.P,D1,1*%
%TO.N,Net-(D1-Pad1)*%
X114322000Y-88970000D03*
%TD*%
D12*
%TO.P,C5,2*%
%TO.N,GND*%
X60340000Y-106663000D03*
%TO.P,C5,1*%
%TO.N,+5V*%
X60340000Y-109163000D03*
%TD*%
%TO.P,C4,2*%
%TO.N,GND*%
X60340000Y-129740000D03*
%TO.P,C4,1*%
%TO.N,+5V*%
X60340000Y-132240000D03*
%TD*%
%TO.P,C2,2*%
%TO.N,GND*%
X133279000Y-108962000D03*
%TO.P,C2,1*%
%TO.N,+12V*%
X133279000Y-106462000D03*
%TD*%
%TO.P,C1,2*%
%TO.N,GND*%
X87130000Y-90809800D03*
D13*
%TO.P,C1,1*%
%TO.N,+12V*%
X87130000Y-88309800D03*
%TD*%
D30*
%TO.N,GND*%
X67335400Y-121787920D03*
X67335400Y-126608840D03*
X67335400Y-130997960D03*
X59674760Y-122651520D03*
X56255920Y-119486680D03*
X56255920Y-116885720D03*
X56255920Y-114457480D03*
X57144920Y-101610160D03*
X57144920Y-104155240D03*
X57144920Y-106705400D03*
X67899280Y-102920800D03*
X67899280Y-106060240D03*
%TD*%
D31*
%TO.N,+12V*%
X96103200Y-90120000D02*
X94550400Y-90120000D01*
X94550400Y-90120000D02*
X92740200Y-88309800D01*
X92740200Y-88309800D02*
X87130000Y-88309800D01*
X136520000Y-106446000D02*
X134919700Y-106446000D01*
X133279000Y-106462000D02*
X134903700Y-106462000D01*
X134903700Y-106462000D02*
X134919700Y-106446000D01*
X104530120Y-98546920D02*
X96103200Y-90120000D01*
X125907580Y-98546920D02*
X104530120Y-98546920D01*
X126507000Y-97947500D02*
X125907580Y-98546920D01*
%TO.N,+5V*%
X63820000Y-131690000D02*
X62019700Y-131690000D01*
X60340000Y-132240000D02*
X61469700Y-132240000D01*
X61469700Y-132240000D02*
X62019700Y-131690000D01*
%TO.N,+5VP*%
X114322000Y-105117500D02*
X112921700Y-105117500D01*
X112921700Y-105117500D02*
X108025800Y-110013400D01*
X108025800Y-110013400D02*
X67838500Y-110013400D01*
X67838500Y-110013400D02*
X55911900Y-121940000D01*
X55911900Y-121940000D02*
X54440000Y-121940000D01*
%TO.N,/GREY1A*%
X101874000Y-129504000D02*
X100223700Y-129504000D01*
X100223700Y-129504000D02*
X99307700Y-130420000D01*
X99307700Y-130420000D02*
X90680000Y-130420000D01*
%TO.N,/YELL2B*%
X94282020Y-93093300D02*
X80698000Y-93093300D01*
X79450000Y-91845300D02*
X79450000Y-90720000D01*
X103383080Y-102194360D02*
X94282020Y-93093300D01*
X115844320Y-102194360D02*
X103383080Y-102194360D01*
X80698000Y-93093300D02*
X79450000Y-91845300D01*
X121265000Y-107615040D02*
X115844320Y-102194360D01*
X121265000Y-129504000D02*
X121265000Y-107615040D01*
D32*
%TO.N,Net-(Q1-Pad2)*%
X90680000Y-129150000D02*
X84890000Y-129150000D01*
%TO.N,Net-(Q2-Pad2)*%
X96980000Y-124070000D02*
X84890000Y-124070000D01*
%TO.N,Net-(Q3-Pad2)*%
X90680000Y-118990000D02*
X84890000Y-118990000D01*
%TO.N,Net-(Q4-Pad2)*%
X79450000Y-112530000D02*
X78374700Y-112530000D01*
X78374700Y-112530000D02*
X78371700Y-112527000D01*
X78371700Y-112527000D02*
X72400000Y-112527000D01*
%TO.N,Net-(Q5-Pad2)*%
X90680000Y-106073000D02*
X84890000Y-106073000D01*
%TO.N,Net-(Q6-Pad2)*%
X96980000Y-100993300D02*
X95904700Y-100993300D01*
X95904700Y-100993300D02*
X95904400Y-100993000D01*
X95904400Y-100993000D02*
X84890000Y-100993000D01*
%TO.N,Net-(Q7-Pad2)*%
X90680000Y-95913300D02*
X84890000Y-95913300D01*
%TO.N,Net-(Q8-Pad2)*%
X79450000Y-89450000D02*
X72400000Y-89450000D01*
%TO.N,/GR1A*%
X74730000Y-129150000D02*
X71440000Y-129150000D01*
%TO.N,/YE1A*%
X74730000Y-124070000D02*
X71440000Y-124070000D01*
%TO.N,/GR2A*%
X74730000Y-118990000D02*
X71440000Y-118990000D01*
%TO.N,/GR1B*%
X74730000Y-106073000D02*
X71440000Y-106073000D01*
%TO.N,/YE1B*%
X74730000Y-100993000D02*
X71440000Y-100993000D01*
%TO.N,/GR2B*%
X71440000Y-95913000D02*
X72965300Y-95913000D01*
X74730000Y-95913300D02*
X72965600Y-95913300D01*
X72965600Y-95913300D02*
X72965300Y-95913000D01*
%TO.N,/PB6*%
X69914700Y-98453000D02*
X71440000Y-98453000D01*
X66137780Y-102229920D02*
X69914700Y-98453000D01*
X62860080Y-102229920D02*
X66137780Y-102229920D01*
X62220000Y-102870000D02*
X62860080Y-102229920D01*
X53997900Y-102870000D02*
X62220000Y-102870000D01*
X52707900Y-104160000D02*
X53997900Y-102870000D01*
X51900000Y-104160000D02*
X52707900Y-104160000D01*
%TO.N,/PB5*%
X53987740Y-105420160D02*
X52707900Y-106700000D01*
X52707900Y-106700000D02*
X51900000Y-106700000D01*
X62209840Y-105420160D02*
X53987740Y-105420160D01*
X68642220Y-104805480D02*
X62824520Y-104805480D01*
X69914700Y-103533000D02*
X68642220Y-104805480D01*
X62824520Y-104805480D02*
X62209840Y-105420160D01*
X71440000Y-103533000D02*
X69914700Y-103533000D01*
%TO.N,/PB7*%
X62294700Y-95913000D02*
X63820000Y-95913000D01*
X57872620Y-100335080D02*
X62294700Y-95913000D01*
X53992820Y-100335080D02*
X57872620Y-100335080D01*
X52707900Y-101620000D02*
X53992820Y-100335080D01*
X51900000Y-101620000D02*
X52707900Y-101620000D01*
%TO.N,/PB4*%
X62261420Y-107345480D02*
X68647180Y-107345480D01*
X61646740Y-107960160D02*
X62261420Y-107345480D01*
X53987840Y-107960160D02*
X61646740Y-107960160D01*
X68647180Y-107345480D02*
X69914700Y-108613000D01*
X52708000Y-109240000D02*
X53987840Y-107960160D01*
X69914700Y-108613000D02*
X71440000Y-108613000D01*
X51900000Y-109240000D02*
X52708000Y-109240000D01*
%TD*%
D33*
%TO.N,GND*%
X78492472Y-87054380D02*
X78455820Y-87065498D01*
X78345506Y-87124463D01*
X78248815Y-87203815D01*
X78169463Y-87300506D01*
X78110498Y-87410820D01*
X78074188Y-87530518D01*
X78061928Y-87655000D01*
X78065000Y-87894250D01*
X78223750Y-88053000D01*
X79323000Y-88053000D01*
X79323000Y-88033000D01*
X79577000Y-88033000D01*
X79577000Y-88053000D01*
X80676250Y-88053000D01*
X80835000Y-87894250D01*
X80838072Y-87655000D01*
X80825812Y-87530518D01*
X80789502Y-87410820D01*
X80730537Y-87300506D01*
X80651185Y-87203815D01*
X80554494Y-87124463D01*
X80444180Y-87065498D01*
X80408172Y-87054575D01*
X85883057Y-87055134D01*
X85878815Y-87058615D01*
X85799463Y-87155306D01*
X85740498Y-87265620D01*
X85704188Y-87385318D01*
X85691928Y-87509800D01*
X85691928Y-89109800D01*
X85704188Y-89234282D01*
X85740498Y-89353980D01*
X85799463Y-89464294D01*
X85878815Y-89560985D01*
X85975506Y-89640337D01*
X86085820Y-89699302D01*
X86205518Y-89735612D01*
X86330000Y-89747872D01*
X86337215Y-89747872D01*
X86316903Y-89817098D01*
X87130000Y-90630195D01*
X87943097Y-89817098D01*
X87922785Y-89747872D01*
X87930000Y-89747872D01*
X88054482Y-89735612D01*
X88174180Y-89699302D01*
X88284494Y-89640337D01*
X88381185Y-89560985D01*
X88460537Y-89464294D01*
X88519502Y-89353980D01*
X88522287Y-89344800D01*
X92311490Y-89344800D01*
X93782596Y-90815907D01*
X93815004Y-90855396D01*
X93854492Y-90887803D01*
X93972602Y-90984734D01*
X94068709Y-91036104D01*
X94152407Y-91080841D01*
X94347505Y-91140024D01*
X94499562Y-91155000D01*
X94499571Y-91155000D01*
X94516237Y-91156641D01*
X94524888Y-91244482D01*
X94561198Y-91364180D01*
X94620163Y-91474494D01*
X94699515Y-91571185D01*
X94796206Y-91650537D01*
X94906520Y-91709502D01*
X95026218Y-91745812D01*
X95150700Y-91758072D01*
X96277562Y-91758072D01*
X103762317Y-99242828D01*
X103794724Y-99282316D01*
X103834212Y-99314723D01*
X103952322Y-99411654D01*
X104132126Y-99507761D01*
X104149918Y-99513158D01*
X104327225Y-99566944D01*
X104479282Y-99581920D01*
X104479285Y-99581920D01*
X104530120Y-99586927D01*
X104580955Y-99581920D01*
X123624195Y-99581920D01*
X123939839Y-100054314D01*
X124400186Y-100514661D01*
X124941496Y-100876353D01*
X125542967Y-101125490D01*
X126181486Y-101252500D01*
X126832514Y-101252500D01*
X127471033Y-101125490D01*
X128072504Y-100876353D01*
X128613814Y-100514661D01*
X129074161Y-100054314D01*
X129435853Y-99513004D01*
X129684990Y-98911533D01*
X129812000Y-98273014D01*
X129812000Y-97621986D01*
X129684990Y-96983467D01*
X129435853Y-96381996D01*
X129074161Y-95840686D01*
X128613814Y-95380339D01*
X128072504Y-95018647D01*
X127471033Y-94769510D01*
X126832514Y-94642500D01*
X126181486Y-94642500D01*
X125542967Y-94769510D01*
X124941496Y-95018647D01*
X124629500Y-95227116D01*
X124629500Y-94659659D01*
X124517190Y-94095038D01*
X124374070Y-93749514D01*
X124634591Y-93749514D01*
X124885246Y-94145719D01*
X125394032Y-94415066D01*
X125945588Y-94579978D01*
X126518720Y-94634119D01*
X127091400Y-94575406D01*
X127641623Y-94406096D01*
X128128754Y-94145719D01*
X128379409Y-93749514D01*
X126507000Y-91877105D01*
X124634591Y-93749514D01*
X124374070Y-93749514D01*
X124296886Y-93563177D01*
X124188909Y-93401578D01*
X124454986Y-93569909D01*
X126327395Y-91697500D01*
X126686605Y-91697500D01*
X128559014Y-93569909D01*
X128955219Y-93319254D01*
X129224566Y-92810468D01*
X129389478Y-92258912D01*
X129443619Y-91685780D01*
X129384906Y-91113100D01*
X129215596Y-90562877D01*
X128955219Y-90075746D01*
X128559014Y-89825091D01*
X126686605Y-91697500D01*
X126327395Y-91697500D01*
X124454986Y-89825091D01*
X124058781Y-90075746D01*
X123789434Y-90584532D01*
X123624522Y-91136088D01*
X123570381Y-91709220D01*
X123629094Y-92281900D01*
X123798404Y-92832123D01*
X123883080Y-92990541D01*
X123569985Y-92677446D01*
X123091323Y-92357614D01*
X122559462Y-92137310D01*
X121994841Y-92025000D01*
X121419159Y-92025000D01*
X120854538Y-92137310D01*
X120322677Y-92357614D01*
X119844015Y-92677446D01*
X119436946Y-93084515D01*
X119117114Y-93563177D01*
X118896810Y-94095038D01*
X118784500Y-94659659D01*
X118784500Y-95235341D01*
X118896810Y-95799962D01*
X119117114Y-96331823D01*
X119436946Y-96810485D01*
X119844015Y-97217554D01*
X120284564Y-97511920D01*
X104958831Y-97511920D01*
X102263076Y-94816165D01*
X106213000Y-94816165D01*
X106213000Y-95098835D01*
X106268147Y-95376074D01*
X106376320Y-95637227D01*
X106533363Y-95872259D01*
X106733241Y-96072137D01*
X106968273Y-96229180D01*
X107229426Y-96337353D01*
X107506665Y-96392500D01*
X107789335Y-96392500D01*
X108066574Y-96337353D01*
X108327727Y-96229180D01*
X108562759Y-96072137D01*
X108762637Y-95872259D01*
X108919680Y-95637227D01*
X109027853Y-95376074D01*
X109083000Y-95098835D01*
X109083000Y-94816165D01*
X112887000Y-94816165D01*
X112887000Y-95098835D01*
X112942147Y-95376074D01*
X113050320Y-95637227D01*
X113207363Y-95872259D01*
X113407241Y-96072137D01*
X113642273Y-96229180D01*
X113903426Y-96337353D01*
X114180665Y-96392500D01*
X114463335Y-96392500D01*
X114740574Y-96337353D01*
X115001727Y-96229180D01*
X115236759Y-96072137D01*
X115436637Y-95872259D01*
X115593680Y-95637227D01*
X115701853Y-95376074D01*
X115757000Y-95098835D01*
X115757000Y-94816165D01*
X115701853Y-94538926D01*
X115593680Y-94277773D01*
X115436637Y-94042741D01*
X115236759Y-93842863D01*
X115001727Y-93685820D01*
X114740574Y-93577647D01*
X114463335Y-93522500D01*
X114180665Y-93522500D01*
X113903426Y-93577647D01*
X113642273Y-93685820D01*
X113407241Y-93842863D01*
X113207363Y-94042741D01*
X113050320Y-94277773D01*
X112942147Y-94538926D01*
X112887000Y-94816165D01*
X109083000Y-94816165D01*
X109027853Y-94538926D01*
X108919680Y-94277773D01*
X108762637Y-94042741D01*
X108562759Y-93842863D01*
X108327727Y-93685820D01*
X108066574Y-93577647D01*
X107789335Y-93522500D01*
X107506665Y-93522500D01*
X107229426Y-93577647D01*
X106968273Y-93685820D01*
X106733241Y-93842863D01*
X106533363Y-94042741D01*
X106376320Y-94277773D01*
X106268147Y-94538926D01*
X106213000Y-94816165D01*
X102263076Y-94816165D01*
X99122778Y-91675867D01*
X99234294Y-91639571D01*
X99510123Y-91495969D01*
X99752637Y-91301315D01*
X99908037Y-91116101D01*
X100055237Y-91295463D01*
X100296966Y-91493845D01*
X100572752Y-91641255D01*
X100871997Y-91732030D01*
X101183200Y-91762681D01*
X101494404Y-91732030D01*
X101793649Y-91641255D01*
X102069435Y-91493845D01*
X102311163Y-91295463D01*
X102509545Y-91053734D01*
X102656955Y-90777948D01*
X102747730Y-90478703D01*
X102770700Y-90245485D01*
X102770700Y-89994514D01*
X102747730Y-89761296D01*
X102656955Y-89462051D01*
X102509545Y-89186265D01*
X102311163Y-88944537D01*
X102069434Y-88746155D01*
X101793648Y-88598745D01*
X101494403Y-88507970D01*
X101183200Y-88477319D01*
X100871996Y-88507970D01*
X100572751Y-88598745D01*
X100296965Y-88746155D01*
X100055237Y-88944537D01*
X99908038Y-89123900D01*
X99752637Y-88938685D01*
X99510123Y-88744031D01*
X99234294Y-88600429D01*
X99016180Y-88529437D01*
X98770200Y-88649406D01*
X98770200Y-89993000D01*
X98790200Y-89993000D01*
X98790200Y-90247000D01*
X98770200Y-90247000D01*
X98770200Y-90267000D01*
X98516200Y-90267000D01*
X98516200Y-90247000D01*
X98496200Y-90247000D01*
X98496200Y-89993000D01*
X98516200Y-89993000D01*
X98516200Y-88649406D01*
X98270220Y-88529437D01*
X98052106Y-88600429D01*
X97776277Y-88744031D01*
X97635259Y-88857219D01*
X97586237Y-88765506D01*
X97506885Y-88668815D01*
X97410194Y-88589463D01*
X97299880Y-88530498D01*
X97180182Y-88494188D01*
X97055700Y-88481928D01*
X95150700Y-88481928D01*
X95026218Y-88494188D01*
X94906520Y-88530498D01*
X94796206Y-88589463D01*
X94699515Y-88668815D01*
X94637947Y-88743836D01*
X93964111Y-88070000D01*
X106109928Y-88070000D01*
X106109928Y-89870000D01*
X106122188Y-89994482D01*
X106158498Y-90114180D01*
X106217463Y-90224494D01*
X106296815Y-90321185D01*
X106393506Y-90400537D01*
X106503820Y-90459502D01*
X106623518Y-90495812D01*
X106748000Y-90508072D01*
X108548000Y-90508072D01*
X108672482Y-90495812D01*
X108792180Y-90459502D01*
X108902494Y-90400537D01*
X108999185Y-90321185D01*
X109078537Y-90224494D01*
X109137502Y-90114180D01*
X109140813Y-90103265D01*
X109187578Y-90150030D01*
X109303526Y-90034082D01*
X109387208Y-90288261D01*
X109659775Y-90419158D01*
X109952642Y-90494365D01*
X110254553Y-90510991D01*
X110553907Y-90468397D01*
X110839199Y-90368222D01*
X110988792Y-90288261D01*
X111072475Y-90034080D01*
X110188000Y-89149605D01*
X110173858Y-89163748D01*
X109994253Y-88984143D01*
X110008395Y-88970000D01*
X110367605Y-88970000D01*
X111252080Y-89854475D01*
X111506261Y-89770792D01*
X111637158Y-89498225D01*
X111712365Y-89205358D01*
X111728991Y-88903447D01*
X111686397Y-88604093D01*
X111586222Y-88318801D01*
X111506261Y-88169208D01*
X111252080Y-88085525D01*
X110367605Y-88970000D01*
X110008395Y-88970000D01*
X109994253Y-88955858D01*
X110173858Y-88776253D01*
X110188000Y-88790395D01*
X110908395Y-88070000D01*
X112783928Y-88070000D01*
X112783928Y-89870000D01*
X112796188Y-89994482D01*
X112832498Y-90114180D01*
X112891463Y-90224494D01*
X112970815Y-90321185D01*
X113067506Y-90400537D01*
X113177820Y-90459502D01*
X113297518Y-90495812D01*
X113422000Y-90508072D01*
X115222000Y-90508072D01*
X115346482Y-90495812D01*
X115466180Y-90459502D01*
X115576494Y-90400537D01*
X115673185Y-90321185D01*
X115752537Y-90224494D01*
X115811502Y-90114180D01*
X115814813Y-90103265D01*
X115861578Y-90150030D01*
X115977526Y-90034082D01*
X116061208Y-90288261D01*
X116333775Y-90419158D01*
X116626642Y-90494365D01*
X116928553Y-90510991D01*
X117227907Y-90468397D01*
X117513199Y-90368222D01*
X117662792Y-90288261D01*
X117746475Y-90034080D01*
X116862000Y-89149605D01*
X116847858Y-89163748D01*
X116668253Y-88984143D01*
X116682395Y-88970000D01*
X117041605Y-88970000D01*
X117926080Y-89854475D01*
X118180261Y-89770792D01*
X118240437Y-89645486D01*
X124634591Y-89645486D01*
X126507000Y-91517895D01*
X128379409Y-89645486D01*
X128128754Y-89249281D01*
X127619968Y-88979934D01*
X127068412Y-88815022D01*
X126495280Y-88760881D01*
X125922600Y-88819594D01*
X125372377Y-88988904D01*
X124885246Y-89249281D01*
X124634591Y-89645486D01*
X118240437Y-89645486D01*
X118311158Y-89498225D01*
X118386365Y-89205358D01*
X118402991Y-88903447D01*
X118360397Y-88604093D01*
X118260222Y-88318801D01*
X118180261Y-88169208D01*
X117926080Y-88085525D01*
X117041605Y-88970000D01*
X116682395Y-88970000D01*
X116668253Y-88955858D01*
X116847858Y-88776253D01*
X116862000Y-88790395D01*
X117746475Y-87905920D01*
X117662792Y-87651739D01*
X117390225Y-87520842D01*
X117097358Y-87445635D01*
X116795447Y-87429009D01*
X116496093Y-87471603D01*
X116210801Y-87571778D01*
X116061208Y-87651739D01*
X115977526Y-87905918D01*
X115861578Y-87789970D01*
X115814813Y-87836735D01*
X115811502Y-87825820D01*
X115752537Y-87715506D01*
X115673185Y-87618815D01*
X115576494Y-87539463D01*
X115466180Y-87480498D01*
X115346482Y-87444188D01*
X115222000Y-87431928D01*
X113422000Y-87431928D01*
X113297518Y-87444188D01*
X113177820Y-87480498D01*
X113067506Y-87539463D01*
X112970815Y-87618815D01*
X112891463Y-87715506D01*
X112832498Y-87825820D01*
X112796188Y-87945518D01*
X112783928Y-88070000D01*
X110908395Y-88070000D01*
X111072475Y-87905920D01*
X110988792Y-87651739D01*
X110716225Y-87520842D01*
X110423358Y-87445635D01*
X110121447Y-87429009D01*
X109822093Y-87471603D01*
X109536801Y-87571778D01*
X109387208Y-87651739D01*
X109303526Y-87905918D01*
X109187578Y-87789970D01*
X109140813Y-87836735D01*
X109137502Y-87825820D01*
X109078537Y-87715506D01*
X108999185Y-87618815D01*
X108902494Y-87539463D01*
X108792180Y-87480498D01*
X108672482Y-87444188D01*
X108548000Y-87431928D01*
X106748000Y-87431928D01*
X106623518Y-87444188D01*
X106503820Y-87480498D01*
X106393506Y-87539463D01*
X106296815Y-87618815D01*
X106217463Y-87715506D01*
X106158498Y-87825820D01*
X106122188Y-87945518D01*
X106109928Y-88070000D01*
X93964111Y-88070000D01*
X93508007Y-87613897D01*
X93475596Y-87574404D01*
X93317997Y-87445066D01*
X93138193Y-87348959D01*
X92943095Y-87289776D01*
X92791038Y-87274800D01*
X92791028Y-87274800D01*
X92740200Y-87269794D01*
X92689372Y-87274800D01*
X88522287Y-87274800D01*
X88519502Y-87265620D01*
X88460537Y-87155306D01*
X88381185Y-87058615D01*
X88377253Y-87055388D01*
X134477258Y-87060090D01*
X134440918Y-87075143D01*
X133878315Y-87451062D01*
X133399862Y-87929515D01*
X133023943Y-88492118D01*
X132765006Y-89117248D01*
X132633000Y-89780882D01*
X132633000Y-90457518D01*
X132765006Y-91121152D01*
X133023943Y-91746282D01*
X133399862Y-92308885D01*
X133878315Y-92787338D01*
X134440918Y-93163257D01*
X135066048Y-93422194D01*
X135729682Y-93554200D01*
X136406318Y-93554200D01*
X137069952Y-93422194D01*
X137695082Y-93163257D01*
X138257685Y-92787338D01*
X138736138Y-92308885D01*
X139112057Y-91746282D01*
X139202560Y-91527788D01*
X139202561Y-129030414D01*
X139112057Y-128811918D01*
X138736138Y-128249315D01*
X138257685Y-127770862D01*
X137695082Y-127394943D01*
X137069952Y-127136006D01*
X136406318Y-127004000D01*
X135729682Y-127004000D01*
X135066048Y-127136006D01*
X134440918Y-127394943D01*
X133878315Y-127770862D01*
X133399862Y-128249315D01*
X133023943Y-128811918D01*
X132765006Y-129437048D01*
X132633000Y-130100682D01*
X132633000Y-130777318D01*
X132765006Y-131440952D01*
X133023943Y-132066082D01*
X133399862Y-132628685D01*
X133878315Y-133107138D01*
X134440918Y-133483057D01*
X134611224Y-133553600D01*
X60918523Y-133553600D01*
X61019727Y-133511680D01*
X61254759Y-133354637D01*
X61334396Y-133275000D01*
X61418872Y-133275000D01*
X61469700Y-133280006D01*
X61520528Y-133275000D01*
X61520538Y-133275000D01*
X61672595Y-133260024D01*
X61867693Y-133200841D01*
X62047497Y-133104734D01*
X62205096Y-132975396D01*
X62237507Y-132935903D01*
X62435220Y-132738190D01*
X62618899Y-132888932D01*
X62868192Y-133022182D01*
X63138691Y-133104236D01*
X63349508Y-133125000D01*
X64290492Y-133125000D01*
X64501309Y-133104236D01*
X64771808Y-133022182D01*
X65021101Y-132888932D01*
X65239608Y-132709608D01*
X65418932Y-132491101D01*
X65552182Y-132241808D01*
X65634236Y-131971309D01*
X65661943Y-131690000D01*
X65634236Y-131408691D01*
X65552182Y-131138192D01*
X65418932Y-130888899D01*
X65239608Y-130670392D01*
X65021101Y-130491068D01*
X64888142Y-130420000D01*
X65021101Y-130348932D01*
X65239608Y-130169608D01*
X65418932Y-129951101D01*
X65552182Y-129701808D01*
X65634236Y-129431309D01*
X65661943Y-129150000D01*
X65634236Y-128868691D01*
X65552182Y-128598192D01*
X65418932Y-128348899D01*
X65239608Y-128130392D01*
X65021101Y-127951068D01*
X64888142Y-127880000D01*
X65021101Y-127808932D01*
X65239608Y-127629608D01*
X65418932Y-127411101D01*
X65552182Y-127161808D01*
X65634236Y-126891309D01*
X65661943Y-126610000D01*
X65634236Y-126328691D01*
X65552182Y-126058192D01*
X65418932Y-125808899D01*
X65239608Y-125590392D01*
X65021101Y-125411068D01*
X64888142Y-125340000D01*
X65021101Y-125268932D01*
X65239608Y-125089608D01*
X65418932Y-124871101D01*
X65552182Y-124621808D01*
X65634236Y-124351309D01*
X65661943Y-124070000D01*
X65634236Y-123788691D01*
X65552182Y-123518192D01*
X65418932Y-123268899D01*
X65239608Y-123050392D01*
X65021101Y-122871068D01*
X64888142Y-122800000D01*
X65021101Y-122728932D01*
X65239608Y-122549608D01*
X65418932Y-122331101D01*
X65552182Y-122081808D01*
X65634236Y-121811309D01*
X65661943Y-121530000D01*
X65634236Y-121248691D01*
X65552182Y-120978192D01*
X65418932Y-120728899D01*
X65239608Y-120510392D01*
X65021101Y-120331068D01*
X64888142Y-120260000D01*
X65021101Y-120188932D01*
X65239608Y-120009608D01*
X65418932Y-119791101D01*
X65552182Y-119541808D01*
X65634236Y-119271309D01*
X65661943Y-118990000D01*
X69598057Y-118990000D01*
X69625764Y-119271309D01*
X69707818Y-119541808D01*
X69841068Y-119791101D01*
X70020392Y-120009608D01*
X70238899Y-120188932D01*
X70371858Y-120260000D01*
X70238899Y-120331068D01*
X70020392Y-120510392D01*
X69841068Y-120728899D01*
X69707818Y-120978192D01*
X69625764Y-121248691D01*
X69598057Y-121530000D01*
X69625764Y-121811309D01*
X69707818Y-122081808D01*
X69841068Y-122331101D01*
X70020392Y-122549608D01*
X70238899Y-122728932D01*
X70371858Y-122800000D01*
X70238899Y-122871068D01*
X70020392Y-123050392D01*
X69841068Y-123268899D01*
X69707818Y-123518192D01*
X69625764Y-123788691D01*
X69598057Y-124070000D01*
X69625764Y-124351309D01*
X69707818Y-124621808D01*
X69841068Y-124871101D01*
X70020392Y-125089608D01*
X70238899Y-125268932D01*
X70371858Y-125340000D01*
X70238899Y-125411068D01*
X70020392Y-125590392D01*
X69841068Y-125808899D01*
X69707818Y-126058192D01*
X69625764Y-126328691D01*
X69598057Y-126610000D01*
X69625764Y-126891309D01*
X69707818Y-127161808D01*
X69841068Y-127411101D01*
X70020392Y-127629608D01*
X70238899Y-127808932D01*
X70371858Y-127880000D01*
X70238899Y-127951068D01*
X70020392Y-128130392D01*
X69841068Y-128348899D01*
X69707818Y-128598192D01*
X69625764Y-128868691D01*
X69598057Y-129150000D01*
X69625764Y-129431309D01*
X69707818Y-129701808D01*
X69841068Y-129951101D01*
X70020392Y-130169608D01*
X70133482Y-130262419D01*
X70115518Y-130264188D01*
X69995820Y-130300498D01*
X69885506Y-130359463D01*
X69788815Y-130438815D01*
X69709463Y-130535506D01*
X69650498Y-130645820D01*
X69614188Y-130765518D01*
X69601928Y-130890000D01*
X69601928Y-132490000D01*
X69614188Y-132614482D01*
X69650498Y-132734180D01*
X69709463Y-132844494D01*
X69788815Y-132941185D01*
X69885506Y-133020537D01*
X69995820Y-133079502D01*
X70115518Y-133115812D01*
X70240000Y-133128072D01*
X72640000Y-133128072D01*
X72764482Y-133115812D01*
X72884180Y-133079502D01*
X72994494Y-133020537D01*
X73091185Y-132941185D01*
X73170537Y-132844494D01*
X73229502Y-132734180D01*
X73265812Y-132614482D01*
X73278072Y-132490000D01*
X73278072Y-130890000D01*
X73265812Y-130765518D01*
X73229502Y-130645820D01*
X73170537Y-130535506D01*
X73091185Y-130438815D01*
X72994494Y-130359463D01*
X72884180Y-130300498D01*
X72764482Y-130264188D01*
X72746518Y-130262419D01*
X72859608Y-130169608D01*
X73038932Y-129951101D01*
X73060901Y-129910000D01*
X73511957Y-129910000D01*
X73615363Y-130064759D01*
X73815241Y-130264637D01*
X74050273Y-130421680D01*
X74311426Y-130529853D01*
X74588665Y-130585000D01*
X74871335Y-130585000D01*
X75148574Y-130529853D01*
X75409727Y-130421680D01*
X75644759Y-130264637D01*
X75844637Y-130064759D01*
X76001680Y-129829727D01*
X76109853Y-129568574D01*
X76165000Y-129291335D01*
X76165000Y-129008665D01*
X83455000Y-129008665D01*
X83455000Y-129291335D01*
X83510147Y-129568574D01*
X83618320Y-129829727D01*
X83775363Y-130064759D01*
X83975241Y-130264637D01*
X84210273Y-130421680D01*
X84471426Y-130529853D01*
X84748665Y-130585000D01*
X85031335Y-130585000D01*
X85308574Y-130529853D01*
X85569727Y-130421680D01*
X85804759Y-130264637D01*
X86004637Y-130064759D01*
X86108043Y-129910000D01*
X89412292Y-129910000D01*
X89378115Y-129973940D01*
X89311785Y-130192600D01*
X89289388Y-130420000D01*
X89311785Y-130647400D01*
X89378115Y-130866060D01*
X89485829Y-131067579D01*
X89630788Y-131244212D01*
X89807421Y-131389171D01*
X90008940Y-131496885D01*
X90227600Y-131563215D01*
X90398021Y-131580000D01*
X90961979Y-131580000D01*
X91132400Y-131563215D01*
X91351060Y-131496885D01*
X91429421Y-131455000D01*
X99256872Y-131455000D01*
X99307700Y-131460006D01*
X99358528Y-131455000D01*
X99358538Y-131455000D01*
X99510595Y-131440024D01*
X99705693Y-131380841D01*
X99885497Y-131284734D01*
X100043096Y-131155396D01*
X100075507Y-131115903D01*
X100289789Y-130901621D01*
X100293463Y-130908494D01*
X100372815Y-131005185D01*
X100469506Y-131084537D01*
X100579820Y-131143502D01*
X100699518Y-131179812D01*
X100824000Y-131192072D01*
X102924000Y-131192072D01*
X103048482Y-131179812D01*
X103168180Y-131143502D01*
X103278494Y-131084537D01*
X103375185Y-131005185D01*
X103454537Y-130908494D01*
X103462042Y-130894454D01*
X103615853Y-130997228D01*
X103922504Y-131124246D01*
X104248042Y-131189000D01*
X104579958Y-131189000D01*
X104905496Y-131124246D01*
X105212147Y-130997228D01*
X105488125Y-130812825D01*
X105684000Y-130616950D01*
X105879875Y-130812825D01*
X106155853Y-130997228D01*
X106462504Y-131124246D01*
X106788042Y-131189000D01*
X107119958Y-131189000D01*
X107445496Y-131124246D01*
X107752147Y-130997228D01*
X108028125Y-130812825D01*
X108224000Y-130616950D01*
X108419875Y-130812825D01*
X108695853Y-130997228D01*
X109002504Y-131124246D01*
X109328042Y-131189000D01*
X109659958Y-131189000D01*
X109985496Y-131124246D01*
X110292147Y-130997228D01*
X110568125Y-130812825D01*
X110802825Y-130578125D01*
X110987228Y-130302147D01*
X111114246Y-129995496D01*
X111179000Y-129669958D01*
X111179000Y-129338042D01*
X111114246Y-129012504D01*
X110987228Y-128705853D01*
X110802825Y-128429875D01*
X110568125Y-128195175D01*
X110292147Y-128010772D01*
X109985496Y-127883754D01*
X109659958Y-127819000D01*
X109328042Y-127819000D01*
X109002504Y-127883754D01*
X108695853Y-128010772D01*
X108419875Y-128195175D01*
X108224000Y-128391050D01*
X108028125Y-128195175D01*
X107752147Y-128010772D01*
X107445496Y-127883754D01*
X107119958Y-127819000D01*
X106788042Y-127819000D01*
X106462504Y-127883754D01*
X106155853Y-128010772D01*
X105879875Y-128195175D01*
X105684000Y-128391050D01*
X105488125Y-128195175D01*
X105212147Y-128010772D01*
X104905496Y-127883754D01*
X104579958Y-127819000D01*
X104248042Y-127819000D01*
X103922504Y-127883754D01*
X103615853Y-128010772D01*
X103462042Y-128113546D01*
X103454537Y-128099506D01*
X103375185Y-128002815D01*
X103278494Y-127923463D01*
X103168180Y-127864498D01*
X103048482Y-127828188D01*
X102924000Y-127815928D01*
X100824000Y-127815928D01*
X100699518Y-127828188D01*
X100579820Y-127864498D01*
X100469506Y-127923463D01*
X100372815Y-128002815D01*
X100293463Y-128099506D01*
X100234498Y-128209820D01*
X100198188Y-128329518D01*
X100185928Y-128454000D01*
X100185928Y-128467713D01*
X100172865Y-128469000D01*
X100172862Y-128469000D01*
X100020805Y-128483976D01*
X99871115Y-128529385D01*
X99825706Y-128543159D01*
X99645902Y-128639266D01*
X99527792Y-128736197D01*
X99488304Y-128768604D01*
X99455897Y-128808092D01*
X98878990Y-129385000D01*
X92045910Y-129385000D01*
X92048215Y-129377400D01*
X92070612Y-129150000D01*
X92048215Y-128922600D01*
X91984907Y-128713902D01*
X92019502Y-128649180D01*
X92055812Y-128529482D01*
X92068072Y-128405000D01*
X92065000Y-128165750D01*
X91906250Y-128007000D01*
X91133109Y-128007000D01*
X91132400Y-128006785D01*
X90961979Y-127990000D01*
X90398021Y-127990000D01*
X90227600Y-128006785D01*
X90226891Y-128007000D01*
X89453750Y-128007000D01*
X89295000Y-128165750D01*
X89292121Y-128390000D01*
X86108043Y-128390000D01*
X86004637Y-128235241D01*
X85804759Y-128035363D01*
X85569727Y-127878320D01*
X85308574Y-127770147D01*
X85031335Y-127715000D01*
X84748665Y-127715000D01*
X84471426Y-127770147D01*
X84210273Y-127878320D01*
X83975241Y-128035363D01*
X83775363Y-128235241D01*
X83618320Y-128470273D01*
X83510147Y-128731426D01*
X83455000Y-129008665D01*
X76165000Y-129008665D01*
X76109853Y-128731426D01*
X76001680Y-128470273D01*
X75844637Y-128235241D01*
X75644759Y-128035363D01*
X75409727Y-127878320D01*
X75148574Y-127770147D01*
X74871335Y-127715000D01*
X74588665Y-127715000D01*
X74311426Y-127770147D01*
X74050273Y-127878320D01*
X73815241Y-128035363D01*
X73615363Y-128235241D01*
X73511957Y-128390000D01*
X73060901Y-128390000D01*
X73038932Y-128348899D01*
X72859608Y-128130392D01*
X72641101Y-127951068D01*
X72508142Y-127880000D01*
X72641101Y-127808932D01*
X72859608Y-127629608D01*
X73038932Y-127411101D01*
X73068918Y-127355000D01*
X89291928Y-127355000D01*
X89295000Y-127594250D01*
X89453750Y-127753000D01*
X90553000Y-127753000D01*
X90553000Y-126878750D01*
X90807000Y-126878750D01*
X90807000Y-127753000D01*
X91906250Y-127753000D01*
X92065000Y-127594250D01*
X92068072Y-127355000D01*
X92055812Y-127230518D01*
X92019502Y-127110820D01*
X91960537Y-127000506D01*
X91881185Y-126903815D01*
X91784494Y-126824463D01*
X91674180Y-126765498D01*
X91554482Y-126729188D01*
X91430000Y-126716928D01*
X90965750Y-126720000D01*
X90807000Y-126878750D01*
X90553000Y-126878750D01*
X90394250Y-126720000D01*
X89930000Y-126716928D01*
X89805518Y-126729188D01*
X89685820Y-126765498D01*
X89575506Y-126824463D01*
X89478815Y-126903815D01*
X89399463Y-127000506D01*
X89340498Y-127110820D01*
X89304188Y-127230518D01*
X89291928Y-127355000D01*
X73068918Y-127355000D01*
X73172182Y-127161808D01*
X73254236Y-126891309D01*
X73281943Y-126610000D01*
X73254236Y-126328691D01*
X73172182Y-126058192D01*
X73038932Y-125808899D01*
X72859608Y-125590392D01*
X72641101Y-125411068D01*
X72508142Y-125340000D01*
X72641101Y-125268932D01*
X72859608Y-125089608D01*
X73038932Y-124871101D01*
X73060901Y-124830000D01*
X73511957Y-124830000D01*
X73615363Y-124984759D01*
X73815241Y-125184637D01*
X74050273Y-125341680D01*
X74311426Y-125449853D01*
X74588665Y-125505000D01*
X74871335Y-125505000D01*
X75148574Y-125449853D01*
X75409727Y-125341680D01*
X75644759Y-125184637D01*
X75844637Y-124984759D01*
X76001680Y-124749727D01*
X76109853Y-124488574D01*
X76165000Y-124211335D01*
X76165000Y-123928665D01*
X83455000Y-123928665D01*
X83455000Y-124211335D01*
X83510147Y-124488574D01*
X83618320Y-124749727D01*
X83775363Y-124984759D01*
X83975241Y-125184637D01*
X84210273Y-125341680D01*
X84471426Y-125449853D01*
X84748665Y-125505000D01*
X85031335Y-125505000D01*
X85308574Y-125449853D01*
X85569727Y-125341680D01*
X85804759Y-125184637D01*
X86004637Y-124984759D01*
X86108043Y-124830000D01*
X95712292Y-124830000D01*
X95678115Y-124893940D01*
X95611785Y-125112600D01*
X95589388Y-125340000D01*
X95611785Y-125567400D01*
X95678115Y-125786060D01*
X95785829Y-125987579D01*
X95930788Y-126164212D01*
X96107421Y-126309171D01*
X96308940Y-126416885D01*
X96527600Y-126483215D01*
X96698021Y-126500000D01*
X97261979Y-126500000D01*
X97432400Y-126483215D01*
X97651060Y-126416885D01*
X97852579Y-126309171D01*
X98029212Y-126164212D01*
X98174171Y-125987579D01*
X98281885Y-125786060D01*
X98348215Y-125567400D01*
X98370612Y-125340000D01*
X98348215Y-125112600D01*
X98281885Y-124893940D01*
X98180895Y-124705000D01*
X98281885Y-124516060D01*
X98348215Y-124297400D01*
X98370612Y-124070000D01*
X98348215Y-123842600D01*
X98284907Y-123633902D01*
X98319502Y-123569180D01*
X98355812Y-123449482D01*
X98368072Y-123325000D01*
X98365000Y-123085750D01*
X98206250Y-122927000D01*
X97433109Y-122927000D01*
X97432400Y-122926785D01*
X97261979Y-122910000D01*
X96698021Y-122910000D01*
X96527600Y-122926785D01*
X96526891Y-122927000D01*
X95753750Y-122927000D01*
X95595000Y-123085750D01*
X95592121Y-123310000D01*
X86108043Y-123310000D01*
X86004637Y-123155241D01*
X85804759Y-122955363D01*
X85569727Y-122798320D01*
X85308574Y-122690147D01*
X85031335Y-122635000D01*
X84748665Y-122635000D01*
X84471426Y-122690147D01*
X84210273Y-122798320D01*
X83975241Y-122955363D01*
X83775363Y-123155241D01*
X83618320Y-123390273D01*
X83510147Y-123651426D01*
X83455000Y-123928665D01*
X76165000Y-123928665D01*
X76109853Y-123651426D01*
X76001680Y-123390273D01*
X75844637Y-123155241D01*
X75644759Y-122955363D01*
X75409727Y-122798320D01*
X75148574Y-122690147D01*
X74871335Y-122635000D01*
X74588665Y-122635000D01*
X74311426Y-122690147D01*
X74050273Y-122798320D01*
X73815241Y-122955363D01*
X73615363Y-123155241D01*
X73511957Y-123310000D01*
X73060901Y-123310000D01*
X73038932Y-123268899D01*
X72859608Y-123050392D01*
X72641101Y-122871068D01*
X72508142Y-122800000D01*
X72641101Y-122728932D01*
X72859608Y-122549608D01*
X73038932Y-122331101D01*
X73068918Y-122275000D01*
X95591928Y-122275000D01*
X95595000Y-122514250D01*
X95753750Y-122673000D01*
X96853000Y-122673000D01*
X96853000Y-121798750D01*
X97107000Y-121798750D01*
X97107000Y-122673000D01*
X98206250Y-122673000D01*
X98365000Y-122514250D01*
X98368072Y-122275000D01*
X98355812Y-122150518D01*
X98319502Y-122030820D01*
X98260537Y-121920506D01*
X98181185Y-121823815D01*
X98084494Y-121744463D01*
X97974180Y-121685498D01*
X97854482Y-121649188D01*
X97730000Y-121636928D01*
X97265750Y-121640000D01*
X97107000Y-121798750D01*
X96853000Y-121798750D01*
X96694250Y-121640000D01*
X96230000Y-121636928D01*
X96105518Y-121649188D01*
X95985820Y-121685498D01*
X95875506Y-121744463D01*
X95778815Y-121823815D01*
X95699463Y-121920506D01*
X95640498Y-122030820D01*
X95604188Y-122150518D01*
X95591928Y-122275000D01*
X73068918Y-122275000D01*
X73172182Y-122081808D01*
X73254236Y-121811309D01*
X73281943Y-121530000D01*
X73254236Y-121248691D01*
X73172182Y-120978192D01*
X73038932Y-120728899D01*
X72859608Y-120510392D01*
X72641101Y-120331068D01*
X72508142Y-120260000D01*
X72641101Y-120188932D01*
X72859608Y-120009608D01*
X73038932Y-119791101D01*
X73060901Y-119750000D01*
X73511957Y-119750000D01*
X73615363Y-119904759D01*
X73815241Y-120104637D01*
X74050273Y-120261680D01*
X74311426Y-120369853D01*
X74588665Y-120425000D01*
X74871335Y-120425000D01*
X75148574Y-120369853D01*
X75409727Y-120261680D01*
X75644759Y-120104637D01*
X75844637Y-119904759D01*
X76001680Y-119669727D01*
X76109853Y-119408574D01*
X76165000Y-119131335D01*
X76165000Y-118848665D01*
X83455000Y-118848665D01*
X83455000Y-119131335D01*
X83510147Y-119408574D01*
X83618320Y-119669727D01*
X83775363Y-119904759D01*
X83975241Y-120104637D01*
X84210273Y-120261680D01*
X84471426Y-120369853D01*
X84748665Y-120425000D01*
X85031335Y-120425000D01*
X85308574Y-120369853D01*
X85569727Y-120261680D01*
X85804759Y-120104637D01*
X86004637Y-119904759D01*
X86108043Y-119750000D01*
X89412292Y-119750000D01*
X89378115Y-119813940D01*
X89311785Y-120032600D01*
X89289388Y-120260000D01*
X89311785Y-120487400D01*
X89378115Y-120706060D01*
X89485829Y-120907579D01*
X89630788Y-121084212D01*
X89807421Y-121229171D01*
X90008940Y-121336885D01*
X90227600Y-121403215D01*
X90398021Y-121420000D01*
X90961979Y-121420000D01*
X91132400Y-121403215D01*
X91351060Y-121336885D01*
X91552579Y-121229171D01*
X91729212Y-121084212D01*
X91874171Y-120907579D01*
X91981885Y-120706060D01*
X92048215Y-120487400D01*
X92070612Y-120260000D01*
X92048215Y-120032600D01*
X91981885Y-119813940D01*
X91880895Y-119625000D01*
X91981885Y-119436060D01*
X92048215Y-119217400D01*
X92070612Y-118990000D01*
X92048215Y-118762600D01*
X91984907Y-118553902D01*
X92019502Y-118489180D01*
X92055812Y-118369482D01*
X92068072Y-118245000D01*
X92065000Y-118005750D01*
X91906250Y-117847000D01*
X91133109Y-117847000D01*
X91132400Y-117846785D01*
X90961979Y-117830000D01*
X90398021Y-117830000D01*
X90227600Y-117846785D01*
X90226891Y-117847000D01*
X89453750Y-117847000D01*
X89295000Y-118005750D01*
X89292121Y-118230000D01*
X86108043Y-118230000D01*
X86004637Y-118075241D01*
X85804759Y-117875363D01*
X85569727Y-117718320D01*
X85308574Y-117610147D01*
X85031335Y-117555000D01*
X84748665Y-117555000D01*
X84471426Y-117610147D01*
X84210273Y-117718320D01*
X83975241Y-117875363D01*
X83775363Y-118075241D01*
X83618320Y-118310273D01*
X83510147Y-118571426D01*
X83455000Y-118848665D01*
X76165000Y-118848665D01*
X76109853Y-118571426D01*
X76001680Y-118310273D01*
X75844637Y-118075241D01*
X75644759Y-117875363D01*
X75409727Y-117718320D01*
X75148574Y-117610147D01*
X74871335Y-117555000D01*
X74588665Y-117555000D01*
X74311426Y-117610147D01*
X74050273Y-117718320D01*
X73815241Y-117875363D01*
X73615363Y-118075241D01*
X73511957Y-118230000D01*
X73060901Y-118230000D01*
X73038932Y-118188899D01*
X72859608Y-117970392D01*
X72641101Y-117791068D01*
X72513259Y-117722735D01*
X72742839Y-117572601D01*
X72944500Y-117374895D01*
X73067295Y-117195000D01*
X89291928Y-117195000D01*
X89295000Y-117434250D01*
X89453750Y-117593000D01*
X90553000Y-117593000D01*
X90553000Y-116718750D01*
X90807000Y-116718750D01*
X90807000Y-117593000D01*
X91906250Y-117593000D01*
X92065000Y-117434250D01*
X92068072Y-117195000D01*
X92055812Y-117070518D01*
X92019502Y-116950820D01*
X91960537Y-116840506D01*
X91881185Y-116743815D01*
X91784494Y-116664463D01*
X91674180Y-116605498D01*
X91554482Y-116569188D01*
X91430000Y-116556928D01*
X90965750Y-116560000D01*
X90807000Y-116718750D01*
X90553000Y-116718750D01*
X90394250Y-116560000D01*
X89930000Y-116556928D01*
X89805518Y-116569188D01*
X89685820Y-116605498D01*
X89575506Y-116664463D01*
X89478815Y-116743815D01*
X89399463Y-116840506D01*
X89340498Y-116950820D01*
X89304188Y-117070518D01*
X89291928Y-117195000D01*
X73067295Y-117195000D01*
X73103715Y-117141646D01*
X73214367Y-116881818D01*
X73231904Y-116799039D01*
X73109915Y-116577000D01*
X71567000Y-116577000D01*
X71567000Y-116597000D01*
X71313000Y-116597000D01*
X71313000Y-116577000D01*
X69770085Y-116577000D01*
X69648096Y-116799039D01*
X69665633Y-116881818D01*
X69776285Y-117141646D01*
X69935500Y-117374895D01*
X70137161Y-117572601D01*
X70366741Y-117722735D01*
X70238899Y-117791068D01*
X70020392Y-117970392D01*
X69841068Y-118188899D01*
X69707818Y-118438192D01*
X69625764Y-118708691D01*
X69598057Y-118990000D01*
X65661943Y-118990000D01*
X65634236Y-118708691D01*
X65552182Y-118438192D01*
X65418932Y-118188899D01*
X65239608Y-117970392D01*
X65021101Y-117791068D01*
X64888142Y-117720000D01*
X65021101Y-117648932D01*
X65239608Y-117469608D01*
X65418932Y-117251101D01*
X65552182Y-117001808D01*
X65634236Y-116731309D01*
X65661943Y-116450000D01*
X65634236Y-116168691D01*
X65613691Y-116100961D01*
X69648096Y-116100961D01*
X69770085Y-116323000D01*
X71313000Y-116323000D01*
X71313000Y-115015000D01*
X71567000Y-115015000D01*
X71567000Y-116323000D01*
X73109915Y-116323000D01*
X73231904Y-116100961D01*
X73214367Y-116018182D01*
X73103715Y-115758354D01*
X72944500Y-115525105D01*
X72742839Y-115327399D01*
X72506483Y-115172834D01*
X72244514Y-115067350D01*
X71967000Y-115015000D01*
X71567000Y-115015000D01*
X71313000Y-115015000D01*
X70913000Y-115015000D01*
X70635486Y-115067350D01*
X70373517Y-115172834D01*
X70137161Y-115327399D01*
X69935500Y-115525105D01*
X69776285Y-115758354D01*
X69665633Y-116018182D01*
X69648096Y-116100961D01*
X65613691Y-116100961D01*
X65552182Y-115898192D01*
X65418932Y-115648899D01*
X65239608Y-115430392D01*
X65021101Y-115251068D01*
X64771808Y-115117818D01*
X64501309Y-115035764D01*
X64299703Y-115015907D01*
X66929945Y-112385665D01*
X70965000Y-112385665D01*
X70965000Y-112668335D01*
X71020147Y-112945574D01*
X71128320Y-113206727D01*
X71285363Y-113441759D01*
X71485241Y-113641637D01*
X71720273Y-113798680D01*
X71981426Y-113906853D01*
X72258665Y-113962000D01*
X72541335Y-113962000D01*
X72818574Y-113906853D01*
X73079727Y-113798680D01*
X73314759Y-113641637D01*
X73514637Y-113441759D01*
X73618043Y-113287000D01*
X78183895Y-113287000D01*
X78148115Y-113353940D01*
X78081785Y-113572600D01*
X78059388Y-113800000D01*
X78081785Y-114027400D01*
X78148115Y-114246060D01*
X78255829Y-114447579D01*
X78400788Y-114624212D01*
X78577421Y-114769171D01*
X78778940Y-114876885D01*
X78997600Y-114943215D01*
X79168021Y-114960000D01*
X79731979Y-114960000D01*
X79902400Y-114943215D01*
X80121060Y-114876885D01*
X80322579Y-114769171D01*
X80499212Y-114624212D01*
X80644171Y-114447579D01*
X80751885Y-114246060D01*
X80818215Y-114027400D01*
X80840612Y-113800000D01*
X80818215Y-113572600D01*
X80751885Y-113353940D01*
X80650895Y-113165000D01*
X80751885Y-112976060D01*
X80818215Y-112757400D01*
X80840612Y-112530000D01*
X80818215Y-112302600D01*
X80754907Y-112093902D01*
X80789502Y-112029180D01*
X80825812Y-111909482D01*
X80838072Y-111785000D01*
X80835000Y-111545750D01*
X80676250Y-111387000D01*
X79903109Y-111387000D01*
X79902400Y-111386785D01*
X79731979Y-111370000D01*
X79168021Y-111370000D01*
X78997600Y-111386785D01*
X78996891Y-111387000D01*
X78223750Y-111387000D01*
X78065000Y-111545750D01*
X78062159Y-111767000D01*
X73618043Y-111767000D01*
X73514637Y-111612241D01*
X73314759Y-111412363D01*
X73079727Y-111255320D01*
X72818574Y-111147147D01*
X72541335Y-111092000D01*
X72258665Y-111092000D01*
X71981426Y-111147147D01*
X71720273Y-111255320D01*
X71485241Y-111412363D01*
X71285363Y-111612241D01*
X71128320Y-111847273D01*
X71020147Y-112108426D01*
X70965000Y-112385665D01*
X66929945Y-112385665D01*
X68267211Y-111048400D01*
X78139150Y-111048400D01*
X78223750Y-111133000D01*
X79323000Y-111133000D01*
X79323000Y-111113000D01*
X79577000Y-111113000D01*
X79577000Y-111133000D01*
X80676250Y-111133000D01*
X80760850Y-111048400D01*
X107974972Y-111048400D01*
X108025800Y-111053406D01*
X108076628Y-111048400D01*
X108076638Y-111048400D01*
X108228695Y-111033424D01*
X108423793Y-110974241D01*
X108603597Y-110878134D01*
X108761196Y-110748796D01*
X108793607Y-110709303D01*
X113339007Y-106163903D01*
X113407241Y-106232137D01*
X113642273Y-106389180D01*
X113903426Y-106497353D01*
X114180665Y-106552500D01*
X114463335Y-106552500D01*
X114740574Y-106497353D01*
X115001727Y-106389180D01*
X115236759Y-106232137D01*
X115436637Y-106032259D01*
X115593680Y-105797227D01*
X115701853Y-105536074D01*
X115757000Y-105258835D01*
X115757000Y-104976165D01*
X115701853Y-104698926D01*
X115593680Y-104437773D01*
X115436637Y-104202741D01*
X115236759Y-104002863D01*
X115001727Y-103845820D01*
X114740574Y-103737647D01*
X114463335Y-103682500D01*
X114180665Y-103682500D01*
X113903426Y-103737647D01*
X113642273Y-103845820D01*
X113407241Y-104002863D01*
X113327604Y-104082500D01*
X112972527Y-104082500D01*
X112921699Y-104077494D01*
X112870871Y-104082500D01*
X112870862Y-104082500D01*
X112718805Y-104097476D01*
X112523707Y-104156659D01*
X112440009Y-104201396D01*
X112343902Y-104252766D01*
X112244796Y-104334101D01*
X112186304Y-104382104D01*
X112153897Y-104421592D01*
X107597090Y-108978400D01*
X73278072Y-108978400D01*
X73278072Y-107813000D01*
X73265812Y-107688518D01*
X73229502Y-107568820D01*
X73170537Y-107458506D01*
X73091185Y-107361815D01*
X72994494Y-107282463D01*
X72884180Y-107223498D01*
X72764482Y-107187188D01*
X72746518Y-107185419D01*
X72859608Y-107092608D01*
X73038932Y-106874101D01*
X73060901Y-106833000D01*
X73511957Y-106833000D01*
X73615363Y-106987759D01*
X73815241Y-107187637D01*
X74050273Y-107344680D01*
X74311426Y-107452853D01*
X74588665Y-107508000D01*
X74871335Y-107508000D01*
X75148574Y-107452853D01*
X75409727Y-107344680D01*
X75644759Y-107187637D01*
X75844637Y-106987759D01*
X76001680Y-106752727D01*
X76109853Y-106491574D01*
X76165000Y-106214335D01*
X76165000Y-105931665D01*
X83455000Y-105931665D01*
X83455000Y-106214335D01*
X83510147Y-106491574D01*
X83618320Y-106752727D01*
X83775363Y-106987759D01*
X83975241Y-107187637D01*
X84210273Y-107344680D01*
X84471426Y-107452853D01*
X84748665Y-107508000D01*
X85031335Y-107508000D01*
X85308574Y-107452853D01*
X85569727Y-107344680D01*
X85804759Y-107187637D01*
X86004637Y-106987759D01*
X86108043Y-106833000D01*
X89412292Y-106833000D01*
X89378115Y-106896940D01*
X89311785Y-107115600D01*
X89289388Y-107343000D01*
X89311785Y-107570400D01*
X89378115Y-107789060D01*
X89485829Y-107990579D01*
X89630788Y-108167212D01*
X89807421Y-108312171D01*
X90008940Y-108419885D01*
X90227600Y-108486215D01*
X90398021Y-108503000D01*
X90961979Y-108503000D01*
X91132400Y-108486215D01*
X91351060Y-108419885D01*
X91552579Y-108312171D01*
X91729212Y-108167212D01*
X91874171Y-107990579D01*
X91981885Y-107789060D01*
X92048215Y-107570400D01*
X92070612Y-107343000D01*
X92048215Y-107115600D01*
X91981885Y-106896940D01*
X91880895Y-106708000D01*
X91981885Y-106519060D01*
X92048215Y-106300400D01*
X92070612Y-106073000D01*
X92048215Y-105845600D01*
X91984907Y-105636902D01*
X92019502Y-105572180D01*
X92055812Y-105452482D01*
X92068072Y-105328000D01*
X92065000Y-105088750D01*
X91952415Y-104976165D01*
X106213000Y-104976165D01*
X106213000Y-105258835D01*
X106268147Y-105536074D01*
X106376320Y-105797227D01*
X106533363Y-106032259D01*
X106733241Y-106232137D01*
X106968273Y-106389180D01*
X107229426Y-106497353D01*
X107506665Y-106552500D01*
X107789335Y-106552500D01*
X108066574Y-106497353D01*
X108327727Y-106389180D01*
X108562759Y-106232137D01*
X108762637Y-106032259D01*
X108919680Y-105797227D01*
X109027853Y-105536074D01*
X109083000Y-105258835D01*
X109083000Y-104976165D01*
X109027853Y-104698926D01*
X108919680Y-104437773D01*
X108762637Y-104202741D01*
X108562759Y-104002863D01*
X108327727Y-103845820D01*
X108066574Y-103737647D01*
X107789335Y-103682500D01*
X107506665Y-103682500D01*
X107229426Y-103737647D01*
X106968273Y-103845820D01*
X106733241Y-104002863D01*
X106533363Y-104202741D01*
X106376320Y-104437773D01*
X106268147Y-104698926D01*
X106213000Y-104976165D01*
X91952415Y-104976165D01*
X91906250Y-104930000D01*
X91133109Y-104930000D01*
X91132400Y-104929785D01*
X90961979Y-104913000D01*
X90398021Y-104913000D01*
X90227600Y-104929785D01*
X90226891Y-104930000D01*
X89453750Y-104930000D01*
X89295000Y-105088750D01*
X89292121Y-105313000D01*
X86108043Y-105313000D01*
X86004637Y-105158241D01*
X85804759Y-104958363D01*
X85569727Y-104801320D01*
X85308574Y-104693147D01*
X85031335Y-104638000D01*
X84748665Y-104638000D01*
X84471426Y-104693147D01*
X84210273Y-104801320D01*
X83975241Y-104958363D01*
X83775363Y-105158241D01*
X83618320Y-105393273D01*
X83510147Y-105654426D01*
X83455000Y-105931665D01*
X76165000Y-105931665D01*
X76109853Y-105654426D01*
X76001680Y-105393273D01*
X75844637Y-105158241D01*
X75644759Y-104958363D01*
X75409727Y-104801320D01*
X75148574Y-104693147D01*
X74871335Y-104638000D01*
X74588665Y-104638000D01*
X74311426Y-104693147D01*
X74050273Y-104801320D01*
X73815241Y-104958363D01*
X73615363Y-105158241D01*
X73511957Y-105313000D01*
X73060901Y-105313000D01*
X73038932Y-105271899D01*
X72859608Y-105053392D01*
X72641101Y-104874068D01*
X72508142Y-104803000D01*
X72641101Y-104731932D01*
X72859608Y-104552608D01*
X73038932Y-104334101D01*
X73068918Y-104278000D01*
X89291928Y-104278000D01*
X89295000Y-104517250D01*
X89453750Y-104676000D01*
X90553000Y-104676000D01*
X90553000Y-103801750D01*
X90807000Y-103801750D01*
X90807000Y-104676000D01*
X91906250Y-104676000D01*
X92065000Y-104517250D01*
X92068072Y-104278000D01*
X92055812Y-104153518D01*
X92019502Y-104033820D01*
X91960537Y-103923506D01*
X91881185Y-103826815D01*
X91784494Y-103747463D01*
X91674180Y-103688498D01*
X91554482Y-103652188D01*
X91430000Y-103639928D01*
X90965750Y-103643000D01*
X90807000Y-103801750D01*
X90553000Y-103801750D01*
X90394250Y-103643000D01*
X89930000Y-103639928D01*
X89805518Y-103652188D01*
X89685820Y-103688498D01*
X89575506Y-103747463D01*
X89478815Y-103826815D01*
X89399463Y-103923506D01*
X89340498Y-104033820D01*
X89304188Y-104153518D01*
X89291928Y-104278000D01*
X73068918Y-104278000D01*
X73172182Y-104084808D01*
X73254236Y-103814309D01*
X73281943Y-103533000D01*
X73254236Y-103251691D01*
X73172182Y-102981192D01*
X73038932Y-102731899D01*
X72859608Y-102513392D01*
X72641101Y-102334068D01*
X72508142Y-102263000D01*
X72641101Y-102191932D01*
X72859608Y-102012608D01*
X73038932Y-101794101D01*
X73060901Y-101753000D01*
X73511957Y-101753000D01*
X73615363Y-101907759D01*
X73815241Y-102107637D01*
X74050273Y-102264680D01*
X74311426Y-102372853D01*
X74588665Y-102428000D01*
X74871335Y-102428000D01*
X75148574Y-102372853D01*
X75409727Y-102264680D01*
X75644759Y-102107637D01*
X75844637Y-101907759D01*
X76001680Y-101672727D01*
X76109853Y-101411574D01*
X76165000Y-101134335D01*
X76165000Y-100851665D01*
X83455000Y-100851665D01*
X83455000Y-101134335D01*
X83510147Y-101411574D01*
X83618320Y-101672727D01*
X83775363Y-101907759D01*
X83975241Y-102107637D01*
X84210273Y-102264680D01*
X84471426Y-102372853D01*
X84748665Y-102428000D01*
X85031335Y-102428000D01*
X85308574Y-102372853D01*
X85569727Y-102264680D01*
X85804759Y-102107637D01*
X86004637Y-101907759D01*
X86108043Y-101753000D01*
X95712452Y-101753000D01*
X95678115Y-101817240D01*
X95611785Y-102035900D01*
X95589388Y-102263300D01*
X95611785Y-102490700D01*
X95678115Y-102709360D01*
X95785829Y-102910879D01*
X95930788Y-103087512D01*
X96107421Y-103232471D01*
X96308940Y-103340185D01*
X96527600Y-103406515D01*
X96698021Y-103423300D01*
X97261979Y-103423300D01*
X97432400Y-103406515D01*
X97651060Y-103340185D01*
X97852579Y-103232471D01*
X98029212Y-103087512D01*
X98174171Y-102910879D01*
X98281885Y-102709360D01*
X98348215Y-102490700D01*
X98370612Y-102263300D01*
X98348215Y-102035900D01*
X98281885Y-101817240D01*
X98180895Y-101628300D01*
X98281885Y-101439360D01*
X98348215Y-101220700D01*
X98370612Y-100993300D01*
X98348215Y-100765900D01*
X98284907Y-100557202D01*
X98319502Y-100492480D01*
X98355812Y-100372782D01*
X98368072Y-100248300D01*
X98365000Y-100009050D01*
X98206250Y-99850300D01*
X97433109Y-99850300D01*
X97432400Y-99850085D01*
X97261979Y-99833300D01*
X96698021Y-99833300D01*
X96527600Y-99850085D01*
X96526891Y-99850300D01*
X95753750Y-99850300D01*
X95595000Y-100009050D01*
X95592124Y-100233000D01*
X86108043Y-100233000D01*
X86004637Y-100078241D01*
X85804759Y-99878363D01*
X85569727Y-99721320D01*
X85308574Y-99613147D01*
X85031335Y-99558000D01*
X84748665Y-99558000D01*
X84471426Y-99613147D01*
X84210273Y-99721320D01*
X83975241Y-99878363D01*
X83775363Y-100078241D01*
X83618320Y-100313273D01*
X83510147Y-100574426D01*
X83455000Y-100851665D01*
X76165000Y-100851665D01*
X76109853Y-100574426D01*
X76001680Y-100313273D01*
X75844637Y-100078241D01*
X75644759Y-99878363D01*
X75409727Y-99721320D01*
X75148574Y-99613147D01*
X74871335Y-99558000D01*
X74588665Y-99558000D01*
X74311426Y-99613147D01*
X74050273Y-99721320D01*
X73815241Y-99878363D01*
X73615363Y-100078241D01*
X73511957Y-100233000D01*
X73060901Y-100233000D01*
X73038932Y-100191899D01*
X72859608Y-99973392D01*
X72641101Y-99794068D01*
X72508142Y-99723000D01*
X72641101Y-99651932D01*
X72859608Y-99472608D01*
X73038932Y-99254101D01*
X73068758Y-99198300D01*
X95591928Y-99198300D01*
X95595000Y-99437550D01*
X95753750Y-99596300D01*
X96853000Y-99596300D01*
X96853000Y-98722050D01*
X97107000Y-98722050D01*
X97107000Y-99596300D01*
X98206250Y-99596300D01*
X98365000Y-99437550D01*
X98368072Y-99198300D01*
X98355812Y-99073818D01*
X98319502Y-98954120D01*
X98260537Y-98843806D01*
X98181185Y-98747115D01*
X98084494Y-98667763D01*
X97974180Y-98608798D01*
X97854482Y-98572488D01*
X97730000Y-98560228D01*
X97265750Y-98563300D01*
X97107000Y-98722050D01*
X96853000Y-98722050D01*
X96694250Y-98563300D01*
X96230000Y-98560228D01*
X96105518Y-98572488D01*
X95985820Y-98608798D01*
X95875506Y-98667763D01*
X95778815Y-98747115D01*
X95699463Y-98843806D01*
X95640498Y-98954120D01*
X95604188Y-99073818D01*
X95591928Y-99198300D01*
X73068758Y-99198300D01*
X73172182Y-99004808D01*
X73254236Y-98734309D01*
X73281943Y-98453000D01*
X73254236Y-98171691D01*
X73172182Y-97901192D01*
X73038932Y-97651899D01*
X72859608Y-97433392D01*
X72641101Y-97254068D01*
X72508142Y-97183000D01*
X72641101Y-97111932D01*
X72859608Y-96932608D01*
X73038932Y-96714101D01*
X73060741Y-96673300D01*
X73511957Y-96673300D01*
X73615363Y-96828059D01*
X73815241Y-97027937D01*
X74050273Y-97184980D01*
X74311426Y-97293153D01*
X74588665Y-97348300D01*
X74871335Y-97348300D01*
X75148574Y-97293153D01*
X75409727Y-97184980D01*
X75644759Y-97027937D01*
X75844637Y-96828059D01*
X76001680Y-96593027D01*
X76109853Y-96331874D01*
X76165000Y-96054635D01*
X76165000Y-95771965D01*
X83455000Y-95771965D01*
X83455000Y-96054635D01*
X83510147Y-96331874D01*
X83618320Y-96593027D01*
X83775363Y-96828059D01*
X83975241Y-97027937D01*
X84210273Y-97184980D01*
X84471426Y-97293153D01*
X84748665Y-97348300D01*
X85031335Y-97348300D01*
X85308574Y-97293153D01*
X85569727Y-97184980D01*
X85804759Y-97027937D01*
X86004637Y-96828059D01*
X86108043Y-96673300D01*
X89412292Y-96673300D01*
X89378115Y-96737240D01*
X89311785Y-96955900D01*
X89289388Y-97183300D01*
X89311785Y-97410700D01*
X89378115Y-97629360D01*
X89485829Y-97830879D01*
X89630788Y-98007512D01*
X89807421Y-98152471D01*
X90008940Y-98260185D01*
X90227600Y-98326515D01*
X90398021Y-98343300D01*
X90961979Y-98343300D01*
X91132400Y-98326515D01*
X91351060Y-98260185D01*
X91552579Y-98152471D01*
X91729212Y-98007512D01*
X91874171Y-97830879D01*
X91981885Y-97629360D01*
X92048215Y-97410700D01*
X92070612Y-97183300D01*
X92048215Y-96955900D01*
X91981885Y-96737240D01*
X91880895Y-96548300D01*
X91981885Y-96359360D01*
X92048215Y-96140700D01*
X92070612Y-95913300D01*
X92048215Y-95685900D01*
X91984907Y-95477202D01*
X92019502Y-95412480D01*
X92055812Y-95292782D01*
X92068072Y-95168300D01*
X92065000Y-94929050D01*
X91906250Y-94770300D01*
X91133109Y-94770300D01*
X91132400Y-94770085D01*
X90961979Y-94753300D01*
X90398021Y-94753300D01*
X90227600Y-94770085D01*
X90226891Y-94770300D01*
X89453750Y-94770300D01*
X89295000Y-94929050D01*
X89292121Y-95153300D01*
X86108043Y-95153300D01*
X86004637Y-94998541D01*
X85804759Y-94798663D01*
X85569727Y-94641620D01*
X85308574Y-94533447D01*
X85031335Y-94478300D01*
X84748665Y-94478300D01*
X84471426Y-94533447D01*
X84210273Y-94641620D01*
X83975241Y-94798663D01*
X83775363Y-94998541D01*
X83618320Y-95233573D01*
X83510147Y-95494726D01*
X83455000Y-95771965D01*
X76165000Y-95771965D01*
X76109853Y-95494726D01*
X76001680Y-95233573D01*
X75844637Y-94998541D01*
X75644759Y-94798663D01*
X75409727Y-94641620D01*
X75148574Y-94533447D01*
X74871335Y-94478300D01*
X74588665Y-94478300D01*
X74311426Y-94533447D01*
X74050273Y-94641620D01*
X73815241Y-94798663D01*
X73615363Y-94998541D01*
X73511957Y-95153300D01*
X73061061Y-95153300D01*
X73038932Y-95111899D01*
X72859608Y-94893392D01*
X72641101Y-94714068D01*
X72513259Y-94645735D01*
X72742839Y-94495601D01*
X72944500Y-94297895D01*
X73103715Y-94064646D01*
X73214367Y-93804818D01*
X73231904Y-93722039D01*
X73109915Y-93500000D01*
X71567000Y-93500000D01*
X71567000Y-93520000D01*
X71313000Y-93520000D01*
X71313000Y-93500000D01*
X69770085Y-93500000D01*
X69648096Y-93722039D01*
X69665633Y-93804818D01*
X69776285Y-94064646D01*
X69935500Y-94297895D01*
X70137161Y-94495601D01*
X70366741Y-94645735D01*
X70238899Y-94714068D01*
X70020392Y-94893392D01*
X69841068Y-95111899D01*
X69707818Y-95361192D01*
X69625764Y-95631691D01*
X69598057Y-95913000D01*
X69625764Y-96194309D01*
X69707818Y-96464808D01*
X69841068Y-96714101D01*
X70020392Y-96932608D01*
X70238899Y-97111932D01*
X70371858Y-97183000D01*
X70238899Y-97254068D01*
X70020392Y-97433392D01*
X69841068Y-97651899D01*
X69815861Y-97699058D01*
X69765714Y-97703997D01*
X69622453Y-97747454D01*
X69490424Y-97818026D01*
X69490422Y-97818027D01*
X69490423Y-97818027D01*
X69403696Y-97889201D01*
X69403692Y-97889205D01*
X69374699Y-97912999D01*
X69350905Y-97941992D01*
X65822979Y-101469920D01*
X65574899Y-101469920D01*
X65634236Y-101274309D01*
X65661943Y-100993000D01*
X65634236Y-100711691D01*
X65552182Y-100441192D01*
X65418932Y-100191899D01*
X65239608Y-99973392D01*
X65021101Y-99794068D01*
X64888142Y-99723000D01*
X65021101Y-99651932D01*
X65239608Y-99472608D01*
X65418932Y-99254101D01*
X65552182Y-99004808D01*
X65634236Y-98734309D01*
X65661943Y-98453000D01*
X65634236Y-98171691D01*
X65552182Y-97901192D01*
X65418932Y-97651899D01*
X65239608Y-97433392D01*
X65021101Y-97254068D01*
X64888142Y-97183000D01*
X65021101Y-97111932D01*
X65239608Y-96932608D01*
X65418932Y-96714101D01*
X65552182Y-96464808D01*
X65634236Y-96194309D01*
X65661943Y-95913000D01*
X65634236Y-95631691D01*
X65552182Y-95361192D01*
X65418932Y-95111899D01*
X65239608Y-94893392D01*
X65021101Y-94714068D01*
X64888142Y-94643000D01*
X65021101Y-94571932D01*
X65239608Y-94392608D01*
X65418932Y-94174101D01*
X65552182Y-93924808D01*
X65634236Y-93654309D01*
X65661943Y-93373000D01*
X65634236Y-93091691D01*
X65613691Y-93023961D01*
X69648096Y-93023961D01*
X69770085Y-93246000D01*
X71313000Y-93246000D01*
X71313000Y-91938000D01*
X71567000Y-91938000D01*
X71567000Y-93246000D01*
X73109915Y-93246000D01*
X73231904Y-93023961D01*
X73214367Y-92941182D01*
X73103715Y-92681354D01*
X72944500Y-92448105D01*
X72742839Y-92250399D01*
X72506483Y-92095834D01*
X72244514Y-91990350D01*
X71967000Y-91938000D01*
X71567000Y-91938000D01*
X71313000Y-91938000D01*
X70913000Y-91938000D01*
X70635486Y-91990350D01*
X70373517Y-92095834D01*
X70137161Y-92250399D01*
X69935500Y-92448105D01*
X69776285Y-92681354D01*
X69665633Y-92941182D01*
X69648096Y-93023961D01*
X65613691Y-93023961D01*
X65552182Y-92821192D01*
X65418932Y-92571899D01*
X65239608Y-92353392D01*
X65021101Y-92174068D01*
X64771808Y-92040818D01*
X64501309Y-91958764D01*
X64290492Y-91938000D01*
X63349508Y-91938000D01*
X63138691Y-91958764D01*
X62868192Y-92040818D01*
X62618899Y-92174068D01*
X62400392Y-92353392D01*
X62221068Y-92571899D01*
X62087818Y-92821192D01*
X62005764Y-93091691D01*
X61978057Y-93373000D01*
X62005764Y-93654309D01*
X62087818Y-93924808D01*
X62221068Y-94174101D01*
X62400392Y-94392608D01*
X62618899Y-94571932D01*
X62751858Y-94643000D01*
X62618899Y-94714068D01*
X62400392Y-94893392D01*
X62221068Y-95111899D01*
X62195861Y-95159058D01*
X62145714Y-95163997D01*
X62002453Y-95207454D01*
X61870424Y-95278026D01*
X61754699Y-95372999D01*
X61730901Y-95401997D01*
X57557819Y-99575080D01*
X55842283Y-99575080D01*
X55867932Y-99513158D01*
X55925000Y-99226260D01*
X55925000Y-98933740D01*
X55867932Y-98646842D01*
X55755990Y-98376589D01*
X55593475Y-98133368D01*
X55386632Y-97926525D01*
X55204466Y-97804805D01*
X55321355Y-97735178D01*
X55537588Y-97540269D01*
X55711641Y-97306920D01*
X55836825Y-97044099D01*
X55881476Y-96896890D01*
X55760155Y-96667000D01*
X54567000Y-96667000D01*
X54567000Y-96687000D01*
X54313000Y-96687000D01*
X54313000Y-96667000D01*
X52027000Y-96667000D01*
X52027000Y-96687000D01*
X51773000Y-96687000D01*
X51773000Y-96667000D01*
X50579845Y-96667000D01*
X50458524Y-96896890D01*
X50503175Y-97044099D01*
X50628359Y-97306920D01*
X50802412Y-97540269D01*
X51018645Y-97735178D01*
X51135534Y-97804805D01*
X50953368Y-97926525D01*
X50746525Y-98133368D01*
X50584010Y-98376589D01*
X50472068Y-98646842D01*
X50415000Y-98933740D01*
X50415000Y-99226260D01*
X50472068Y-99513158D01*
X50584010Y-99783411D01*
X50746525Y-100026632D01*
X50953368Y-100233475D01*
X51127760Y-100350000D01*
X50953368Y-100466525D01*
X50746525Y-100673368D01*
X50584010Y-100916589D01*
X50472068Y-101186842D01*
X50415000Y-101473740D01*
X50415000Y-101766260D01*
X50472068Y-102053158D01*
X50584010Y-102323411D01*
X50746525Y-102566632D01*
X50953368Y-102773475D01*
X51127760Y-102890000D01*
X50953368Y-103006525D01*
X50746525Y-103213368D01*
X50584010Y-103456589D01*
X50472068Y-103726842D01*
X50415000Y-104013740D01*
X50415000Y-104306260D01*
X50472068Y-104593158D01*
X50584010Y-104863411D01*
X50746525Y-105106632D01*
X50953368Y-105313475D01*
X51127760Y-105430000D01*
X50953368Y-105546525D01*
X50746525Y-105753368D01*
X50584010Y-105996589D01*
X50472068Y-106266842D01*
X50415000Y-106553740D01*
X50415000Y-106846260D01*
X50472068Y-107133158D01*
X50584010Y-107403411D01*
X50746525Y-107646632D01*
X50953368Y-107853475D01*
X51127760Y-107970000D01*
X50953368Y-108086525D01*
X50746525Y-108293368D01*
X50584010Y-108536589D01*
X50472068Y-108806842D01*
X50415000Y-109093740D01*
X50415000Y-109386260D01*
X50472068Y-109673158D01*
X50584010Y-109943411D01*
X50746525Y-110186632D01*
X50953368Y-110393475D01*
X51127760Y-110510000D01*
X50953368Y-110626525D01*
X50746525Y-110833368D01*
X50584010Y-111076589D01*
X50472068Y-111346842D01*
X50415000Y-111633740D01*
X50415000Y-111926260D01*
X50472068Y-112213158D01*
X50584010Y-112483411D01*
X50746525Y-112726632D01*
X50953368Y-112933475D01*
X51127760Y-113050000D01*
X50953368Y-113166525D01*
X50746525Y-113373368D01*
X50584010Y-113616589D01*
X50472068Y-113886842D01*
X50415000Y-114173740D01*
X50415000Y-114466260D01*
X50472068Y-114753158D01*
X50584010Y-115023411D01*
X50746525Y-115266632D01*
X50953368Y-115473475D01*
X51127760Y-115590000D01*
X50953368Y-115706525D01*
X50746525Y-115913368D01*
X50584010Y-116156589D01*
X50472068Y-116426842D01*
X50415000Y-116713740D01*
X50415000Y-117006260D01*
X50472068Y-117293158D01*
X50584010Y-117563411D01*
X50746525Y-117806632D01*
X50953368Y-118013475D01*
X51127760Y-118130000D01*
X50953368Y-118246525D01*
X50746525Y-118453368D01*
X50584010Y-118696589D01*
X50472068Y-118966842D01*
X50415000Y-119253740D01*
X50415000Y-119546260D01*
X50472068Y-119833158D01*
X50584010Y-120103411D01*
X50746525Y-120346632D01*
X50953368Y-120553475D01*
X51127760Y-120670000D01*
X50953368Y-120786525D01*
X50746525Y-120993368D01*
X50584010Y-121236589D01*
X50472068Y-121506842D01*
X50415000Y-121793740D01*
X50415000Y-122086260D01*
X50472068Y-122373158D01*
X50584010Y-122643411D01*
X50746525Y-122886632D01*
X50953368Y-123093475D01*
X51135534Y-123215195D01*
X51018645Y-123284822D01*
X50802412Y-123479731D01*
X50628359Y-123713080D01*
X50503175Y-123975901D01*
X50458524Y-124123110D01*
X50579845Y-124353000D01*
X51773000Y-124353000D01*
X51773000Y-124333000D01*
X52027000Y-124333000D01*
X52027000Y-124353000D01*
X54313000Y-124353000D01*
X54313000Y-124333000D01*
X54567000Y-124333000D01*
X54567000Y-124353000D01*
X55766250Y-124353000D01*
X55925000Y-124194250D01*
X55928072Y-123630000D01*
X55915812Y-123505518D01*
X55879502Y-123385820D01*
X55820537Y-123275506D01*
X55741185Y-123178815D01*
X55644494Y-123099463D01*
X55534180Y-123040498D01*
X55461620Y-123018487D01*
X55505107Y-122975000D01*
X55861072Y-122975000D01*
X55911900Y-122980006D01*
X55962728Y-122975000D01*
X55962738Y-122975000D01*
X56114795Y-122960024D01*
X56309893Y-122900841D01*
X56489697Y-122804734D01*
X56647296Y-122675396D01*
X56679707Y-122635903D01*
X62166534Y-117149076D01*
X62221068Y-117251101D01*
X62400392Y-117469608D01*
X62618899Y-117648932D01*
X62751858Y-117720000D01*
X62618899Y-117791068D01*
X62400392Y-117970392D01*
X62221068Y-118188899D01*
X62087818Y-118438192D01*
X62005764Y-118708691D01*
X61978057Y-118990000D01*
X62005764Y-119271309D01*
X62087818Y-119541808D01*
X62221068Y-119791101D01*
X62400392Y-120009608D01*
X62618899Y-120188932D01*
X62751858Y-120260000D01*
X62618899Y-120331068D01*
X62400392Y-120510392D01*
X62221068Y-120728899D01*
X62087818Y-120978192D01*
X62005764Y-121248691D01*
X61978057Y-121530000D01*
X62005764Y-121811309D01*
X62087818Y-122081808D01*
X62221068Y-122331101D01*
X62400392Y-122549608D01*
X62618899Y-122728932D01*
X62751858Y-122800000D01*
X62618899Y-122871068D01*
X62400392Y-123050392D01*
X62221068Y-123268899D01*
X62087818Y-123518192D01*
X62005764Y-123788691D01*
X61978057Y-124070000D01*
X62005764Y-124351309D01*
X62087818Y-124621808D01*
X62221068Y-124871101D01*
X62400392Y-125089608D01*
X62618899Y-125268932D01*
X62751858Y-125340000D01*
X62618899Y-125411068D01*
X62400392Y-125590392D01*
X62221068Y-125808899D01*
X62087818Y-126058192D01*
X62005764Y-126328691D01*
X61978057Y-126610000D01*
X62005764Y-126891309D01*
X62087818Y-127161808D01*
X62221068Y-127411101D01*
X62400392Y-127629608D01*
X62618899Y-127808932D01*
X62751858Y-127880000D01*
X62618899Y-127951068D01*
X62400392Y-128130392D01*
X62221068Y-128348899D01*
X62087818Y-128598192D01*
X62005764Y-128868691D01*
X61978057Y-129150000D01*
X62005764Y-129431309D01*
X62087818Y-129701808D01*
X62221068Y-129951101D01*
X62400392Y-130169608D01*
X62618899Y-130348932D01*
X62751858Y-130420000D01*
X62618899Y-130491068D01*
X62419147Y-130655000D01*
X62070527Y-130655000D01*
X62019699Y-130649994D01*
X61968871Y-130655000D01*
X61968862Y-130655000D01*
X61816805Y-130669976D01*
X61621707Y-130729159D01*
X61441903Y-130825266D01*
X61284304Y-130954604D01*
X61251893Y-130994097D01*
X61174353Y-131071637D01*
X61054131Y-130991308D01*
X61081514Y-130976671D01*
X61153097Y-130732702D01*
X60340000Y-129919605D01*
X59526903Y-130732702D01*
X59598486Y-130976671D01*
X59627341Y-130990324D01*
X59425241Y-131125363D01*
X59225363Y-131325241D01*
X59068320Y-131560273D01*
X58960147Y-131821426D01*
X58905000Y-132098665D01*
X58905000Y-132381335D01*
X58960147Y-132658574D01*
X59068320Y-132919727D01*
X59225363Y-133154759D01*
X59425241Y-133354637D01*
X59660273Y-133511680D01*
X59761477Y-133553600D01*
X45373376Y-133553600D01*
X45543682Y-133483057D01*
X46106285Y-133107138D01*
X46584738Y-132628685D01*
X46960657Y-132066082D01*
X47219594Y-131440952D01*
X47351600Y-130777318D01*
X47351600Y-130100682D01*
X47293882Y-129810512D01*
X58899783Y-129810512D01*
X58941213Y-130090130D01*
X59036397Y-130356292D01*
X59103329Y-130481514D01*
X59347298Y-130553097D01*
X60160395Y-129740000D01*
X60519605Y-129740000D01*
X61332702Y-130553097D01*
X61576671Y-130481514D01*
X61697571Y-130226004D01*
X61766300Y-129951816D01*
X61780217Y-129669488D01*
X61738787Y-129389870D01*
X61643603Y-129123708D01*
X61576671Y-128998486D01*
X61332702Y-128926903D01*
X60519605Y-129740000D01*
X60160395Y-129740000D01*
X59347298Y-128926903D01*
X59103329Y-128998486D01*
X58982429Y-129253996D01*
X58913700Y-129528184D01*
X58899783Y-129810512D01*
X47293882Y-129810512D01*
X47219594Y-129437048D01*
X46960657Y-128811918D01*
X46917480Y-128747298D01*
X59526903Y-128747298D01*
X60340000Y-129560395D01*
X61153097Y-128747298D01*
X61081514Y-128503329D01*
X60826004Y-128382429D01*
X60551816Y-128313700D01*
X60269488Y-128299783D01*
X59989870Y-128341213D01*
X59723708Y-128436397D01*
X59598486Y-128503329D01*
X59526903Y-128747298D01*
X46917480Y-128747298D01*
X46584738Y-128249315D01*
X46106285Y-127770862D01*
X45543682Y-127394943D01*
X44918552Y-127136006D01*
X44254918Y-127004000D01*
X43578282Y-127004000D01*
X42914648Y-127136006D01*
X42289518Y-127394943D01*
X41726915Y-127770862D01*
X41248462Y-128249315D01*
X40913920Y-128749993D01*
X40913920Y-124836890D01*
X50458524Y-124836890D01*
X50503175Y-124984099D01*
X50628359Y-125246920D01*
X50802412Y-125480269D01*
X51018645Y-125675178D01*
X51268748Y-125824157D01*
X51543109Y-125921481D01*
X51773000Y-125800814D01*
X51773000Y-124607000D01*
X52027000Y-124607000D01*
X52027000Y-125800814D01*
X52256891Y-125921481D01*
X52531252Y-125824157D01*
X52781355Y-125675178D01*
X52977502Y-125498374D01*
X53000498Y-125574180D01*
X53059463Y-125684494D01*
X53138815Y-125781185D01*
X53235506Y-125860537D01*
X53345820Y-125919502D01*
X53465518Y-125955812D01*
X53590000Y-125968072D01*
X54154250Y-125965000D01*
X54313000Y-125806250D01*
X54313000Y-124607000D01*
X54567000Y-124607000D01*
X54567000Y-125806250D01*
X54725750Y-125965000D01*
X55290000Y-125968072D01*
X55414482Y-125955812D01*
X55534180Y-125919502D01*
X55644494Y-125860537D01*
X55741185Y-125781185D01*
X55820537Y-125684494D01*
X55879502Y-125574180D01*
X55915812Y-125454482D01*
X55928072Y-125330000D01*
X55925000Y-124765750D01*
X55766250Y-124607000D01*
X54567000Y-124607000D01*
X54313000Y-124607000D01*
X52027000Y-124607000D01*
X51773000Y-124607000D01*
X50579845Y-124607000D01*
X50458524Y-124836890D01*
X40913920Y-124836890D01*
X40913920Y-96183110D01*
X50458524Y-96183110D01*
X50579845Y-96413000D01*
X51773000Y-96413000D01*
X51773000Y-95219186D01*
X52027000Y-95219186D01*
X52027000Y-96413000D01*
X54313000Y-96413000D01*
X54313000Y-95219186D01*
X54567000Y-95219186D01*
X54567000Y-96413000D01*
X55760155Y-96413000D01*
X55881476Y-96183110D01*
X55836825Y-96035901D01*
X55711641Y-95773080D01*
X55537588Y-95539731D01*
X55321355Y-95344822D01*
X55071252Y-95195843D01*
X54796891Y-95098519D01*
X54567000Y-95219186D01*
X54313000Y-95219186D01*
X54083109Y-95098519D01*
X53808748Y-95195843D01*
X53558645Y-95344822D01*
X53342412Y-95539731D01*
X53170000Y-95770880D01*
X52997588Y-95539731D01*
X52781355Y-95344822D01*
X52531252Y-95195843D01*
X52256891Y-95098519D01*
X52027000Y-95219186D01*
X51773000Y-95219186D01*
X51543109Y-95098519D01*
X51268748Y-95195843D01*
X51018645Y-95344822D01*
X50802412Y-95539731D01*
X50628359Y-95773080D01*
X50503175Y-96035901D01*
X50458524Y-96183110D01*
X40913920Y-96183110D01*
X40913920Y-91808207D01*
X41248462Y-92308885D01*
X41726915Y-92787338D01*
X42289518Y-93163257D01*
X42914648Y-93422194D01*
X43578282Y-93554200D01*
X44254918Y-93554200D01*
X44918552Y-93422194D01*
X45543682Y-93163257D01*
X46106285Y-92787338D01*
X46584738Y-92308885D01*
X46960657Y-91746282D01*
X47219594Y-91121152D01*
X47351600Y-90457518D01*
X47351600Y-90442702D01*
X54090903Y-90442702D01*
X54162486Y-90686671D01*
X54417996Y-90807571D01*
X54692184Y-90876300D01*
X54974512Y-90890217D01*
X55254130Y-90848787D01*
X55520292Y-90753603D01*
X55645514Y-90686671D01*
X55717097Y-90442702D01*
X54904000Y-89629605D01*
X54090903Y-90442702D01*
X47351600Y-90442702D01*
X47351600Y-89780882D01*
X47299809Y-89520512D01*
X53463783Y-89520512D01*
X53505213Y-89800130D01*
X53600397Y-90066292D01*
X53667329Y-90191514D01*
X53911298Y-90263097D01*
X54724395Y-89450000D01*
X55083605Y-89450000D01*
X55896702Y-90263097D01*
X55965928Y-90242785D01*
X55965928Y-90250000D01*
X55978188Y-90374482D01*
X56014498Y-90494180D01*
X56073463Y-90604494D01*
X56152815Y-90701185D01*
X56249506Y-90780537D01*
X56359820Y-90839502D01*
X56479518Y-90875812D01*
X56604000Y-90888072D01*
X58204000Y-90888072D01*
X58328482Y-90875812D01*
X58448180Y-90839502D01*
X58558494Y-90780537D01*
X58655185Y-90701185D01*
X58734537Y-90604494D01*
X58793502Y-90494180D01*
X58829812Y-90374482D01*
X58842072Y-90250000D01*
X58842072Y-89308665D01*
X60805000Y-89308665D01*
X60805000Y-89591335D01*
X60860147Y-89868574D01*
X60968320Y-90129727D01*
X61125363Y-90364759D01*
X61325241Y-90564637D01*
X61560273Y-90721680D01*
X61821426Y-90829853D01*
X62098665Y-90885000D01*
X62381335Y-90885000D01*
X62658574Y-90829853D01*
X62919727Y-90721680D01*
X63154759Y-90564637D01*
X63354637Y-90364759D01*
X63511680Y-90129727D01*
X63619853Y-89868574D01*
X63675000Y-89591335D01*
X63675000Y-89308665D01*
X70965000Y-89308665D01*
X70965000Y-89591335D01*
X71020147Y-89868574D01*
X71128320Y-90129727D01*
X71285363Y-90364759D01*
X71485241Y-90564637D01*
X71720273Y-90721680D01*
X71981426Y-90829853D01*
X72258665Y-90885000D01*
X72541335Y-90885000D01*
X72818574Y-90829853D01*
X73079727Y-90721680D01*
X73314759Y-90564637D01*
X73514637Y-90364759D01*
X73618043Y-90210000D01*
X78182292Y-90210000D01*
X78148115Y-90273940D01*
X78081785Y-90492600D01*
X78059388Y-90720000D01*
X78081785Y-90947400D01*
X78148115Y-91166060D01*
X78255829Y-91367579D01*
X78400788Y-91544212D01*
X78415000Y-91555876D01*
X78415000Y-91794471D01*
X78409994Y-91845300D01*
X78415000Y-91896128D01*
X78415000Y-91896137D01*
X78429976Y-92048194D01*
X78489159Y-92243292D01*
X78585266Y-92423097D01*
X78714604Y-92580696D01*
X78754097Y-92613107D01*
X79930196Y-93789207D01*
X79962604Y-93828696D01*
X80002092Y-93861103D01*
X80120202Y-93958034D01*
X80300006Y-94054141D01*
X80334637Y-94064646D01*
X80495105Y-94113324D01*
X80647162Y-94128300D01*
X80647165Y-94128300D01*
X80698000Y-94133307D01*
X80748835Y-94128300D01*
X89292056Y-94128300D01*
X89295000Y-94357550D01*
X89453750Y-94516300D01*
X90553000Y-94516300D01*
X90553000Y-94496300D01*
X90807000Y-94496300D01*
X90807000Y-94516300D01*
X91906250Y-94516300D01*
X92065000Y-94357550D01*
X92067944Y-94128300D01*
X93853310Y-94128300D01*
X102615276Y-102890267D01*
X102647684Y-102929756D01*
X102805283Y-103059094D01*
X102985087Y-103155201D01*
X103180185Y-103214384D01*
X103332242Y-103229360D01*
X103332251Y-103229360D01*
X103383079Y-103234366D01*
X103433907Y-103229360D01*
X115415610Y-103229360D01*
X120230001Y-108043752D01*
X120230000Y-128169032D01*
X120190875Y-128195175D01*
X119995000Y-128391050D01*
X119799125Y-128195175D01*
X119523147Y-128010772D01*
X119216496Y-127883754D01*
X118890958Y-127819000D01*
X118559042Y-127819000D01*
X118233504Y-127883754D01*
X117926853Y-128010772D01*
X117650875Y-128195175D01*
X117455000Y-128391050D01*
X117259125Y-128195175D01*
X116983147Y-128010772D01*
X116676496Y-127883754D01*
X116350958Y-127819000D01*
X116019042Y-127819000D01*
X115693504Y-127883754D01*
X115386853Y-128010772D01*
X115233042Y-128113546D01*
X115225537Y-128099506D01*
X115146185Y-128002815D01*
X115049494Y-127923463D01*
X114939180Y-127864498D01*
X114819482Y-127828188D01*
X114695000Y-127815928D01*
X112595000Y-127815928D01*
X112470518Y-127828188D01*
X112350820Y-127864498D01*
X112240506Y-127923463D01*
X112143815Y-128002815D01*
X112064463Y-128099506D01*
X112005498Y-128209820D01*
X111969188Y-128329518D01*
X111956928Y-128454000D01*
X111956928Y-130554000D01*
X111969188Y-130678482D01*
X112005498Y-130798180D01*
X112064463Y-130908494D01*
X112143815Y-131005185D01*
X112240506Y-131084537D01*
X112350820Y-131143502D01*
X112470518Y-131179812D01*
X112595000Y-131192072D01*
X114695000Y-131192072D01*
X114819482Y-131179812D01*
X114939180Y-131143502D01*
X115049494Y-131084537D01*
X115146185Y-131005185D01*
X115225537Y-130908494D01*
X115233042Y-130894454D01*
X115386853Y-130997228D01*
X115693504Y-131124246D01*
X116019042Y-131189000D01*
X116350958Y-131189000D01*
X116676496Y-131124246D01*
X116983147Y-130997228D01*
X117259125Y-130812825D01*
X117455000Y-130616950D01*
X117650875Y-130812825D01*
X117926853Y-130997228D01*
X118233504Y-131124246D01*
X118559042Y-131189000D01*
X118890958Y-131189000D01*
X119216496Y-131124246D01*
X119523147Y-130997228D01*
X119799125Y-130812825D01*
X119995000Y-130616950D01*
X120190875Y-130812825D01*
X120466853Y-130997228D01*
X120773504Y-131124246D01*
X121099042Y-131189000D01*
X121430958Y-131189000D01*
X121756496Y-131124246D01*
X122063147Y-130997228D01*
X122339125Y-130812825D01*
X122573825Y-130578125D01*
X122758228Y-130302147D01*
X122885246Y-129995496D01*
X122950000Y-129669958D01*
X122950000Y-129338042D01*
X122885246Y-129012504D01*
X122758228Y-128705853D01*
X122589945Y-128454000D01*
X123726928Y-128454000D01*
X123726928Y-130554000D01*
X123739188Y-130678482D01*
X123775498Y-130798180D01*
X123834463Y-130908494D01*
X123913815Y-131005185D01*
X124010506Y-131084537D01*
X124120820Y-131143502D01*
X124240518Y-131179812D01*
X124365000Y-131192072D01*
X126465000Y-131192072D01*
X126589482Y-131179812D01*
X126709180Y-131143502D01*
X126819494Y-131084537D01*
X126916185Y-131005185D01*
X126995537Y-130908494D01*
X127028451Y-130846918D01*
X127065339Y-130944579D01*
X127363477Y-131090463D01*
X127684346Y-131175380D01*
X128015617Y-131196066D01*
X128344557Y-131151728D01*
X128658527Y-131044069D01*
X128844661Y-130944579D01*
X128946461Y-130675066D01*
X127955000Y-129683605D01*
X127940858Y-129697748D01*
X127761253Y-129518143D01*
X127775395Y-129504000D01*
X128134605Y-129504000D01*
X129126066Y-130495461D01*
X129129958Y-130493991D01*
X129186175Y-130578125D01*
X129420875Y-130812825D01*
X129696853Y-130997228D01*
X130003504Y-131124246D01*
X130329042Y-131189000D01*
X130660958Y-131189000D01*
X130986496Y-131124246D01*
X131293147Y-130997228D01*
X131569125Y-130812825D01*
X131803825Y-130578125D01*
X131988228Y-130302147D01*
X132115246Y-129995496D01*
X132180000Y-129669958D01*
X132180000Y-129338042D01*
X132115246Y-129012504D01*
X131988228Y-128705853D01*
X131803825Y-128429875D01*
X131569125Y-128195175D01*
X131293147Y-128010772D01*
X130986496Y-127883754D01*
X130660958Y-127819000D01*
X130329042Y-127819000D01*
X130003504Y-127883754D01*
X129696853Y-128010772D01*
X129420875Y-128195175D01*
X129186175Y-128429875D01*
X129129958Y-128514009D01*
X129126066Y-128512539D01*
X128134605Y-129504000D01*
X127775395Y-129504000D01*
X127761253Y-129489858D01*
X127940858Y-129310253D01*
X127955000Y-129324395D01*
X128946461Y-128332934D01*
X128844661Y-128063421D01*
X128546523Y-127917537D01*
X128225654Y-127832620D01*
X127894383Y-127811934D01*
X127565443Y-127856272D01*
X127251473Y-127963931D01*
X127065339Y-128063421D01*
X127028451Y-128161082D01*
X126995537Y-128099506D01*
X126916185Y-128002815D01*
X126819494Y-127923463D01*
X126709180Y-127864498D01*
X126589482Y-127828188D01*
X126465000Y-127815928D01*
X124365000Y-127815928D01*
X124240518Y-127828188D01*
X124120820Y-127864498D01*
X124010506Y-127923463D01*
X123913815Y-128002815D01*
X123834463Y-128099506D01*
X123775498Y-128209820D01*
X123739188Y-128329518D01*
X123726928Y-128454000D01*
X122589945Y-128454000D01*
X122573825Y-128429875D01*
X122339125Y-128195175D01*
X122300000Y-128169032D01*
X122300000Y-119565520D01*
X133786448Y-119565520D01*
X133786448Y-121165520D01*
X133798708Y-121290002D01*
X133835018Y-121409700D01*
X133893983Y-121520014D01*
X133973335Y-121616705D01*
X134070026Y-121696057D01*
X134180340Y-121755022D01*
X134300038Y-121791332D01*
X134424520Y-121803592D01*
X136024520Y-121803592D01*
X136149002Y-121791332D01*
X136268700Y-121755022D01*
X136379014Y-121696057D01*
X136475705Y-121616705D01*
X136555057Y-121520014D01*
X136614022Y-121409700D01*
X136629637Y-121358222D01*
X136911423Y-121358222D01*
X136983006Y-121602191D01*
X137238516Y-121723091D01*
X137512704Y-121791820D01*
X137795032Y-121805737D01*
X138074650Y-121764307D01*
X138340812Y-121669123D01*
X138466034Y-121602191D01*
X138537617Y-121358222D01*
X137724520Y-120545125D01*
X136911423Y-121358222D01*
X136629637Y-121358222D01*
X136650332Y-121290002D01*
X136662592Y-121165520D01*
X136662592Y-121158305D01*
X136731818Y-121178617D01*
X137544915Y-120365520D01*
X137904125Y-120365520D01*
X138717222Y-121178617D01*
X138961191Y-121107034D01*
X139082091Y-120851524D01*
X139150820Y-120577336D01*
X139164737Y-120295008D01*
X139123307Y-120015390D01*
X139028123Y-119749228D01*
X138961191Y-119624006D01*
X138717222Y-119552423D01*
X137904125Y-120365520D01*
X137544915Y-120365520D01*
X136731818Y-119552423D01*
X136662592Y-119572735D01*
X136662592Y-119565520D01*
X136650332Y-119441038D01*
X136629638Y-119372818D01*
X136911423Y-119372818D01*
X137724520Y-120185915D01*
X138537617Y-119372818D01*
X138466034Y-119128849D01*
X138210524Y-119007949D01*
X137936336Y-118939220D01*
X137654008Y-118925303D01*
X137374390Y-118966733D01*
X137108228Y-119061917D01*
X136983006Y-119128849D01*
X136911423Y-119372818D01*
X136629638Y-119372818D01*
X136614022Y-119321340D01*
X136555057Y-119211026D01*
X136475705Y-119114335D01*
X136379014Y-119034983D01*
X136268700Y-118976018D01*
X136149002Y-118939708D01*
X136024520Y-118927448D01*
X134424520Y-118927448D01*
X134300038Y-118939708D01*
X134180340Y-118976018D01*
X134070026Y-119034983D01*
X133973335Y-119114335D01*
X133893983Y-119211026D01*
X133835018Y-119321340D01*
X133798708Y-119441038D01*
X133786448Y-119565520D01*
X122300000Y-119565520D01*
X122300000Y-111526000D01*
X134877319Y-111526000D01*
X134907970Y-111837204D01*
X134998745Y-112136449D01*
X135146155Y-112412235D01*
X135344537Y-112653963D01*
X135586265Y-112852345D01*
X135862051Y-112999755D01*
X136161296Y-113090530D01*
X136394514Y-113113500D01*
X136645486Y-113113500D01*
X136878704Y-113090530D01*
X137177949Y-112999755D01*
X137453735Y-112852345D01*
X137695463Y-112653963D01*
X137893845Y-112412235D01*
X138041255Y-112136449D01*
X138132030Y-111837204D01*
X138162681Y-111526000D01*
X138132030Y-111214796D01*
X138041255Y-110915551D01*
X137893845Y-110639765D01*
X137695463Y-110398037D01*
X137516101Y-110250837D01*
X137701315Y-110095437D01*
X137895969Y-109852923D01*
X138039571Y-109577094D01*
X138110563Y-109358980D01*
X137990594Y-109113000D01*
X136647000Y-109113000D01*
X136647000Y-109133000D01*
X136393000Y-109133000D01*
X136393000Y-109113000D01*
X135049406Y-109113000D01*
X134929437Y-109358980D01*
X135000429Y-109577094D01*
X135144031Y-109852923D01*
X135338685Y-110095437D01*
X135523899Y-110250837D01*
X135344537Y-110398037D01*
X135146155Y-110639765D01*
X134998745Y-110915551D01*
X134907970Y-111214796D01*
X134877319Y-111526000D01*
X122300000Y-111526000D01*
X122300000Y-109954702D01*
X132465903Y-109954702D01*
X132537486Y-110198671D01*
X132792996Y-110319571D01*
X133067184Y-110388300D01*
X133349512Y-110402217D01*
X133629130Y-110360787D01*
X133895292Y-110265603D01*
X134020514Y-110198671D01*
X134092097Y-109954702D01*
X133279000Y-109141605D01*
X132465903Y-109954702D01*
X122300000Y-109954702D01*
X122300000Y-109032512D01*
X131838783Y-109032512D01*
X131880213Y-109312130D01*
X131975397Y-109578292D01*
X132042329Y-109703514D01*
X132286298Y-109775097D01*
X133099395Y-108962000D01*
X133458605Y-108962000D01*
X134271702Y-109775097D01*
X134515671Y-109703514D01*
X134636571Y-109448004D01*
X134705300Y-109173816D01*
X134719217Y-108891488D01*
X134677787Y-108611870D01*
X134582603Y-108345708D01*
X134515671Y-108220486D01*
X134271702Y-108148903D01*
X133458605Y-108962000D01*
X133099395Y-108962000D01*
X132286298Y-108148903D01*
X132042329Y-108220486D01*
X131921429Y-108475996D01*
X131852700Y-108750184D01*
X131838783Y-109032512D01*
X122300000Y-109032512D01*
X122300000Y-107665867D01*
X122305006Y-107615039D01*
X122300000Y-107564211D01*
X122300000Y-107564202D01*
X122285024Y-107412145D01*
X122225841Y-107217047D01*
X122159327Y-107092608D01*
X122129734Y-107037242D01*
X122032803Y-106919132D01*
X122000396Y-106879644D01*
X121960908Y-106847237D01*
X121434336Y-106320665D01*
X131844000Y-106320665D01*
X131844000Y-106603335D01*
X131899147Y-106880574D01*
X132007320Y-107141727D01*
X132164363Y-107376759D01*
X132364241Y-107576637D01*
X132564869Y-107710692D01*
X132537486Y-107725329D01*
X132465903Y-107969298D01*
X133279000Y-108782395D01*
X134092097Y-107969298D01*
X134020514Y-107725329D01*
X133991659Y-107711676D01*
X134193759Y-107576637D01*
X134273396Y-107497000D01*
X134852872Y-107497000D01*
X134892009Y-107500855D01*
X134894188Y-107522982D01*
X134930498Y-107642680D01*
X134989463Y-107752994D01*
X135068815Y-107849685D01*
X135165506Y-107929037D01*
X135257219Y-107978059D01*
X135144031Y-108119077D01*
X135000429Y-108394906D01*
X134929437Y-108613020D01*
X135049406Y-108859000D01*
X136393000Y-108859000D01*
X136393000Y-108839000D01*
X136647000Y-108839000D01*
X136647000Y-108859000D01*
X137990594Y-108859000D01*
X138110563Y-108613020D01*
X138039571Y-108394906D01*
X137895969Y-108119077D01*
X137782781Y-107978059D01*
X137874494Y-107929037D01*
X137971185Y-107849685D01*
X138050537Y-107752994D01*
X138109502Y-107642680D01*
X138145812Y-107522982D01*
X138158072Y-107398500D01*
X138158072Y-105493500D01*
X138145812Y-105369018D01*
X138109502Y-105249320D01*
X138050537Y-105139006D01*
X137971185Y-105042315D01*
X137874494Y-104962963D01*
X137764180Y-104903998D01*
X137644482Y-104867688D01*
X137520000Y-104855428D01*
X135520000Y-104855428D01*
X135395518Y-104867688D01*
X135275820Y-104903998D01*
X135165506Y-104962963D01*
X135068815Y-105042315D01*
X134989463Y-105139006D01*
X134930498Y-105249320D01*
X134894188Y-105369018D01*
X134890261Y-105408893D01*
X134868871Y-105411000D01*
X134868862Y-105411000D01*
X134716805Y-105425976D01*
X134713429Y-105427000D01*
X134273396Y-105427000D01*
X134193759Y-105347363D01*
X133958727Y-105190320D01*
X133697574Y-105082147D01*
X133420335Y-105027000D01*
X133137665Y-105027000D01*
X132860426Y-105082147D01*
X132599273Y-105190320D01*
X132364241Y-105347363D01*
X132164363Y-105547241D01*
X132007320Y-105782273D01*
X131899147Y-106043426D01*
X131844000Y-106320665D01*
X121434336Y-106320665D01*
X116612127Y-101498457D01*
X116579716Y-101458964D01*
X116422117Y-101329626D01*
X116242313Y-101233519D01*
X116047215Y-101174336D01*
X115895158Y-101159360D01*
X115895148Y-101159360D01*
X115844320Y-101154354D01*
X115793492Y-101159360D01*
X103811791Y-101159360D01*
X95049827Y-92397397D01*
X95017416Y-92357904D01*
X94859817Y-92228566D01*
X94680013Y-92132459D01*
X94484915Y-92073276D01*
X94332858Y-92058300D01*
X94332848Y-92058300D01*
X94282020Y-92053294D01*
X94231192Y-92058300D01*
X87849383Y-92058300D01*
X87871514Y-92046471D01*
X87943097Y-91802502D01*
X87130000Y-90989405D01*
X86316903Y-91802502D01*
X86388486Y-92046471D01*
X86413485Y-92058300D01*
X81126711Y-92058300D01*
X80550332Y-91481922D01*
X80644171Y-91367579D01*
X80751885Y-91166060D01*
X80818215Y-90947400D01*
X80824822Y-90880312D01*
X85689783Y-90880312D01*
X85731213Y-91159930D01*
X85826397Y-91426092D01*
X85893329Y-91551314D01*
X86137298Y-91622897D01*
X86950395Y-90809800D01*
X87309605Y-90809800D01*
X88122702Y-91622897D01*
X88366671Y-91551314D01*
X88487571Y-91295804D01*
X88556300Y-91021616D01*
X88570217Y-90739288D01*
X88528787Y-90459670D01*
X88433603Y-90193508D01*
X88366671Y-90068286D01*
X88122702Y-89996703D01*
X87309605Y-90809800D01*
X86950395Y-90809800D01*
X86137298Y-89996703D01*
X85893329Y-90068286D01*
X85772429Y-90323796D01*
X85703700Y-90597984D01*
X85689783Y-90880312D01*
X80824822Y-90880312D01*
X80840612Y-90720000D01*
X80818215Y-90492600D01*
X80751885Y-90273940D01*
X80650895Y-90085000D01*
X80751885Y-89896060D01*
X80818215Y-89677400D01*
X80840612Y-89450000D01*
X80818215Y-89222600D01*
X80754907Y-89013902D01*
X80789502Y-88949180D01*
X80825812Y-88829482D01*
X80838072Y-88705000D01*
X80835000Y-88465750D01*
X80676250Y-88307000D01*
X79903109Y-88307000D01*
X79902400Y-88306785D01*
X79731979Y-88290000D01*
X79168021Y-88290000D01*
X78997600Y-88306785D01*
X78996891Y-88307000D01*
X78223750Y-88307000D01*
X78065000Y-88465750D01*
X78062121Y-88690000D01*
X73618043Y-88690000D01*
X73514637Y-88535241D01*
X73314759Y-88335363D01*
X73079727Y-88178320D01*
X72818574Y-88070147D01*
X72541335Y-88015000D01*
X72258665Y-88015000D01*
X71981426Y-88070147D01*
X71720273Y-88178320D01*
X71485241Y-88335363D01*
X71285363Y-88535241D01*
X71128320Y-88770273D01*
X71020147Y-89031426D01*
X70965000Y-89308665D01*
X63675000Y-89308665D01*
X63619853Y-89031426D01*
X63511680Y-88770273D01*
X63354637Y-88535241D01*
X63154759Y-88335363D01*
X62919727Y-88178320D01*
X62658574Y-88070147D01*
X62381335Y-88015000D01*
X62098665Y-88015000D01*
X61821426Y-88070147D01*
X61560273Y-88178320D01*
X61325241Y-88335363D01*
X61125363Y-88535241D01*
X60968320Y-88770273D01*
X60860147Y-89031426D01*
X60805000Y-89308665D01*
X58842072Y-89308665D01*
X58842072Y-88650000D01*
X58829812Y-88525518D01*
X58793502Y-88405820D01*
X58734537Y-88295506D01*
X58655185Y-88198815D01*
X58558494Y-88119463D01*
X58448180Y-88060498D01*
X58328482Y-88024188D01*
X58204000Y-88011928D01*
X56604000Y-88011928D01*
X56479518Y-88024188D01*
X56359820Y-88060498D01*
X56249506Y-88119463D01*
X56152815Y-88198815D01*
X56073463Y-88295506D01*
X56014498Y-88405820D01*
X55978188Y-88525518D01*
X55965928Y-88650000D01*
X55965928Y-88657215D01*
X55896702Y-88636903D01*
X55083605Y-89450000D01*
X54724395Y-89450000D01*
X53911298Y-88636903D01*
X53667329Y-88708486D01*
X53546429Y-88963996D01*
X53477700Y-89238184D01*
X53463783Y-89520512D01*
X47299809Y-89520512D01*
X47219594Y-89117248D01*
X46960657Y-88492118D01*
X46937392Y-88457298D01*
X54090903Y-88457298D01*
X54904000Y-89270395D01*
X55717097Y-88457298D01*
X55645514Y-88213329D01*
X55390004Y-88092429D01*
X55115816Y-88023700D01*
X54833488Y-88009783D01*
X54553870Y-88051213D01*
X54287708Y-88146397D01*
X54162486Y-88213329D01*
X54090903Y-88457298D01*
X46937392Y-88457298D01*
X46584738Y-87929515D01*
X46106285Y-87451062D01*
X45543682Y-87075143D01*
X45485427Y-87051013D01*
X78492472Y-87054380D01*
%TA.AperFunction,Conductor*%
D34*
G36*
X78492472Y-87054380D02*
G01*
X78455820Y-87065498D01*
X78345506Y-87124463D01*
X78248815Y-87203815D01*
X78169463Y-87300506D01*
X78110498Y-87410820D01*
X78074188Y-87530518D01*
X78061928Y-87655000D01*
X78065000Y-87894250D01*
X78223750Y-88053000D01*
X79323000Y-88053000D01*
X79323000Y-88033000D01*
X79577000Y-88033000D01*
X79577000Y-88053000D01*
X80676250Y-88053000D01*
X80835000Y-87894250D01*
X80838072Y-87655000D01*
X80825812Y-87530518D01*
X80789502Y-87410820D01*
X80730537Y-87300506D01*
X80651185Y-87203815D01*
X80554494Y-87124463D01*
X80444180Y-87065498D01*
X80408172Y-87054575D01*
X85883057Y-87055134D01*
X85878815Y-87058615D01*
X85799463Y-87155306D01*
X85740498Y-87265620D01*
X85704188Y-87385318D01*
X85691928Y-87509800D01*
X85691928Y-89109800D01*
X85704188Y-89234282D01*
X85740498Y-89353980D01*
X85799463Y-89464294D01*
X85878815Y-89560985D01*
X85975506Y-89640337D01*
X86085820Y-89699302D01*
X86205518Y-89735612D01*
X86330000Y-89747872D01*
X86337215Y-89747872D01*
X86316903Y-89817098D01*
X87130000Y-90630195D01*
X87943097Y-89817098D01*
X87922785Y-89747872D01*
X87930000Y-89747872D01*
X88054482Y-89735612D01*
X88174180Y-89699302D01*
X88284494Y-89640337D01*
X88381185Y-89560985D01*
X88460537Y-89464294D01*
X88519502Y-89353980D01*
X88522287Y-89344800D01*
X92311490Y-89344800D01*
X93782596Y-90815907D01*
X93815004Y-90855396D01*
X93854492Y-90887803D01*
X93972602Y-90984734D01*
X94068709Y-91036104D01*
X94152407Y-91080841D01*
X94347505Y-91140024D01*
X94499562Y-91155000D01*
X94499571Y-91155000D01*
X94516237Y-91156641D01*
X94524888Y-91244482D01*
X94561198Y-91364180D01*
X94620163Y-91474494D01*
X94699515Y-91571185D01*
X94796206Y-91650537D01*
X94906520Y-91709502D01*
X95026218Y-91745812D01*
X95150700Y-91758072D01*
X96277562Y-91758072D01*
X103762317Y-99242828D01*
X103794724Y-99282316D01*
X103834212Y-99314723D01*
X103952322Y-99411654D01*
X104132126Y-99507761D01*
X104149918Y-99513158D01*
X104327225Y-99566944D01*
X104479282Y-99581920D01*
X104479285Y-99581920D01*
X104530120Y-99586927D01*
X104580955Y-99581920D01*
X123624195Y-99581920D01*
X123939839Y-100054314D01*
X124400186Y-100514661D01*
X124941496Y-100876353D01*
X125542967Y-101125490D01*
X126181486Y-101252500D01*
X126832514Y-101252500D01*
X127471033Y-101125490D01*
X128072504Y-100876353D01*
X128613814Y-100514661D01*
X129074161Y-100054314D01*
X129435853Y-99513004D01*
X129684990Y-98911533D01*
X129812000Y-98273014D01*
X129812000Y-97621986D01*
X129684990Y-96983467D01*
X129435853Y-96381996D01*
X129074161Y-95840686D01*
X128613814Y-95380339D01*
X128072504Y-95018647D01*
X127471033Y-94769510D01*
X126832514Y-94642500D01*
X126181486Y-94642500D01*
X125542967Y-94769510D01*
X124941496Y-95018647D01*
X124629500Y-95227116D01*
X124629500Y-94659659D01*
X124517190Y-94095038D01*
X124374070Y-93749514D01*
X124634591Y-93749514D01*
X124885246Y-94145719D01*
X125394032Y-94415066D01*
X125945588Y-94579978D01*
X126518720Y-94634119D01*
X127091400Y-94575406D01*
X127641623Y-94406096D01*
X128128754Y-94145719D01*
X128379409Y-93749514D01*
X126507000Y-91877105D01*
X124634591Y-93749514D01*
X124374070Y-93749514D01*
X124296886Y-93563177D01*
X124188909Y-93401578D01*
X124454986Y-93569909D01*
X126327395Y-91697500D01*
X126686605Y-91697500D01*
X128559014Y-93569909D01*
X128955219Y-93319254D01*
X129224566Y-92810468D01*
X129389478Y-92258912D01*
X129443619Y-91685780D01*
X129384906Y-91113100D01*
X129215596Y-90562877D01*
X128955219Y-90075746D01*
X128559014Y-89825091D01*
X126686605Y-91697500D01*
X126327395Y-91697500D01*
X124454986Y-89825091D01*
X124058781Y-90075746D01*
X123789434Y-90584532D01*
X123624522Y-91136088D01*
X123570381Y-91709220D01*
X123629094Y-92281900D01*
X123798404Y-92832123D01*
X123883080Y-92990541D01*
X123569985Y-92677446D01*
X123091323Y-92357614D01*
X122559462Y-92137310D01*
X121994841Y-92025000D01*
X121419159Y-92025000D01*
X120854538Y-92137310D01*
X120322677Y-92357614D01*
X119844015Y-92677446D01*
X119436946Y-93084515D01*
X119117114Y-93563177D01*
X118896810Y-94095038D01*
X118784500Y-94659659D01*
X118784500Y-95235341D01*
X118896810Y-95799962D01*
X119117114Y-96331823D01*
X119436946Y-96810485D01*
X119844015Y-97217554D01*
X120284564Y-97511920D01*
X104958831Y-97511920D01*
X102263076Y-94816165D01*
X106213000Y-94816165D01*
X106213000Y-95098835D01*
X106268147Y-95376074D01*
X106376320Y-95637227D01*
X106533363Y-95872259D01*
X106733241Y-96072137D01*
X106968273Y-96229180D01*
X107229426Y-96337353D01*
X107506665Y-96392500D01*
X107789335Y-96392500D01*
X108066574Y-96337353D01*
X108327727Y-96229180D01*
X108562759Y-96072137D01*
X108762637Y-95872259D01*
X108919680Y-95637227D01*
X109027853Y-95376074D01*
X109083000Y-95098835D01*
X109083000Y-94816165D01*
X112887000Y-94816165D01*
X112887000Y-95098835D01*
X112942147Y-95376074D01*
X113050320Y-95637227D01*
X113207363Y-95872259D01*
X113407241Y-96072137D01*
X113642273Y-96229180D01*
X113903426Y-96337353D01*
X114180665Y-96392500D01*
X114463335Y-96392500D01*
X114740574Y-96337353D01*
X115001727Y-96229180D01*
X115236759Y-96072137D01*
X115436637Y-95872259D01*
X115593680Y-95637227D01*
X115701853Y-95376074D01*
X115757000Y-95098835D01*
X115757000Y-94816165D01*
X115701853Y-94538926D01*
X115593680Y-94277773D01*
X115436637Y-94042741D01*
X115236759Y-93842863D01*
X115001727Y-93685820D01*
X114740574Y-93577647D01*
X114463335Y-93522500D01*
X114180665Y-93522500D01*
X113903426Y-93577647D01*
X113642273Y-93685820D01*
X113407241Y-93842863D01*
X113207363Y-94042741D01*
X113050320Y-94277773D01*
X112942147Y-94538926D01*
X112887000Y-94816165D01*
X109083000Y-94816165D01*
X109027853Y-94538926D01*
X108919680Y-94277773D01*
X108762637Y-94042741D01*
X108562759Y-93842863D01*
X108327727Y-93685820D01*
X108066574Y-93577647D01*
X107789335Y-93522500D01*
X107506665Y-93522500D01*
X107229426Y-93577647D01*
X106968273Y-93685820D01*
X106733241Y-93842863D01*
X106533363Y-94042741D01*
X106376320Y-94277773D01*
X106268147Y-94538926D01*
X106213000Y-94816165D01*
X102263076Y-94816165D01*
X99122778Y-91675867D01*
X99234294Y-91639571D01*
X99510123Y-91495969D01*
X99752637Y-91301315D01*
X99908037Y-91116101D01*
X100055237Y-91295463D01*
X100296966Y-91493845D01*
X100572752Y-91641255D01*
X100871997Y-91732030D01*
X101183200Y-91762681D01*
X101494404Y-91732030D01*
X101793649Y-91641255D01*
X102069435Y-91493845D01*
X102311163Y-91295463D01*
X102509545Y-91053734D01*
X102656955Y-90777948D01*
X102747730Y-90478703D01*
X102770700Y-90245485D01*
X102770700Y-89994514D01*
X102747730Y-89761296D01*
X102656955Y-89462051D01*
X102509545Y-89186265D01*
X102311163Y-88944537D01*
X102069434Y-88746155D01*
X101793648Y-88598745D01*
X101494403Y-88507970D01*
X101183200Y-88477319D01*
X100871996Y-88507970D01*
X100572751Y-88598745D01*
X100296965Y-88746155D01*
X100055237Y-88944537D01*
X99908038Y-89123900D01*
X99752637Y-88938685D01*
X99510123Y-88744031D01*
X99234294Y-88600429D01*
X99016180Y-88529437D01*
X98770200Y-88649406D01*
X98770200Y-89993000D01*
X98790200Y-89993000D01*
X98790200Y-90247000D01*
X98770200Y-90247000D01*
X98770200Y-90267000D01*
X98516200Y-90267000D01*
X98516200Y-90247000D01*
X98496200Y-90247000D01*
X98496200Y-89993000D01*
X98516200Y-89993000D01*
X98516200Y-88649406D01*
X98270220Y-88529437D01*
X98052106Y-88600429D01*
X97776277Y-88744031D01*
X97635259Y-88857219D01*
X97586237Y-88765506D01*
X97506885Y-88668815D01*
X97410194Y-88589463D01*
X97299880Y-88530498D01*
X97180182Y-88494188D01*
X97055700Y-88481928D01*
X95150700Y-88481928D01*
X95026218Y-88494188D01*
X94906520Y-88530498D01*
X94796206Y-88589463D01*
X94699515Y-88668815D01*
X94637947Y-88743836D01*
X93964111Y-88070000D01*
X106109928Y-88070000D01*
X106109928Y-89870000D01*
X106122188Y-89994482D01*
X106158498Y-90114180D01*
X106217463Y-90224494D01*
X106296815Y-90321185D01*
X106393506Y-90400537D01*
X106503820Y-90459502D01*
X106623518Y-90495812D01*
X106748000Y-90508072D01*
X108548000Y-90508072D01*
X108672482Y-90495812D01*
X108792180Y-90459502D01*
X108902494Y-90400537D01*
X108999185Y-90321185D01*
X109078537Y-90224494D01*
X109137502Y-90114180D01*
X109140813Y-90103265D01*
X109187578Y-90150030D01*
X109303526Y-90034082D01*
X109387208Y-90288261D01*
X109659775Y-90419158D01*
X109952642Y-90494365D01*
X110254553Y-90510991D01*
X110553907Y-90468397D01*
X110839199Y-90368222D01*
X110988792Y-90288261D01*
X111072475Y-90034080D01*
X110188000Y-89149605D01*
X110173858Y-89163748D01*
X109994253Y-88984143D01*
X110008395Y-88970000D01*
X110367605Y-88970000D01*
X111252080Y-89854475D01*
X111506261Y-89770792D01*
X111637158Y-89498225D01*
X111712365Y-89205358D01*
X111728991Y-88903447D01*
X111686397Y-88604093D01*
X111586222Y-88318801D01*
X111506261Y-88169208D01*
X111252080Y-88085525D01*
X110367605Y-88970000D01*
X110008395Y-88970000D01*
X109994253Y-88955858D01*
X110173858Y-88776253D01*
X110188000Y-88790395D01*
X110908395Y-88070000D01*
X112783928Y-88070000D01*
X112783928Y-89870000D01*
X112796188Y-89994482D01*
X112832498Y-90114180D01*
X112891463Y-90224494D01*
X112970815Y-90321185D01*
X113067506Y-90400537D01*
X113177820Y-90459502D01*
X113297518Y-90495812D01*
X113422000Y-90508072D01*
X115222000Y-90508072D01*
X115346482Y-90495812D01*
X115466180Y-90459502D01*
X115576494Y-90400537D01*
X115673185Y-90321185D01*
X115752537Y-90224494D01*
X115811502Y-90114180D01*
X115814813Y-90103265D01*
X115861578Y-90150030D01*
X115977526Y-90034082D01*
X116061208Y-90288261D01*
X116333775Y-90419158D01*
X116626642Y-90494365D01*
X116928553Y-90510991D01*
X117227907Y-90468397D01*
X117513199Y-90368222D01*
X117662792Y-90288261D01*
X117746475Y-90034080D01*
X116862000Y-89149605D01*
X116847858Y-89163748D01*
X116668253Y-88984143D01*
X116682395Y-88970000D01*
X117041605Y-88970000D01*
X117926080Y-89854475D01*
X118180261Y-89770792D01*
X118240437Y-89645486D01*
X124634591Y-89645486D01*
X126507000Y-91517895D01*
X128379409Y-89645486D01*
X128128754Y-89249281D01*
X127619968Y-88979934D01*
X127068412Y-88815022D01*
X126495280Y-88760881D01*
X125922600Y-88819594D01*
X125372377Y-88988904D01*
X124885246Y-89249281D01*
X124634591Y-89645486D01*
X118240437Y-89645486D01*
X118311158Y-89498225D01*
X118386365Y-89205358D01*
X118402991Y-88903447D01*
X118360397Y-88604093D01*
X118260222Y-88318801D01*
X118180261Y-88169208D01*
X117926080Y-88085525D01*
X117041605Y-88970000D01*
X116682395Y-88970000D01*
X116668253Y-88955858D01*
X116847858Y-88776253D01*
X116862000Y-88790395D01*
X117746475Y-87905920D01*
X117662792Y-87651739D01*
X117390225Y-87520842D01*
X117097358Y-87445635D01*
X116795447Y-87429009D01*
X116496093Y-87471603D01*
X116210801Y-87571778D01*
X116061208Y-87651739D01*
X115977526Y-87905918D01*
X115861578Y-87789970D01*
X115814813Y-87836735D01*
X115811502Y-87825820D01*
X115752537Y-87715506D01*
X115673185Y-87618815D01*
X115576494Y-87539463D01*
X115466180Y-87480498D01*
X115346482Y-87444188D01*
X115222000Y-87431928D01*
X113422000Y-87431928D01*
X113297518Y-87444188D01*
X113177820Y-87480498D01*
X113067506Y-87539463D01*
X112970815Y-87618815D01*
X112891463Y-87715506D01*
X112832498Y-87825820D01*
X112796188Y-87945518D01*
X112783928Y-88070000D01*
X110908395Y-88070000D01*
X111072475Y-87905920D01*
X110988792Y-87651739D01*
X110716225Y-87520842D01*
X110423358Y-87445635D01*
X110121447Y-87429009D01*
X109822093Y-87471603D01*
X109536801Y-87571778D01*
X109387208Y-87651739D01*
X109303526Y-87905918D01*
X109187578Y-87789970D01*
X109140813Y-87836735D01*
X109137502Y-87825820D01*
X109078537Y-87715506D01*
X108999185Y-87618815D01*
X108902494Y-87539463D01*
X108792180Y-87480498D01*
X108672482Y-87444188D01*
X108548000Y-87431928D01*
X106748000Y-87431928D01*
X106623518Y-87444188D01*
X106503820Y-87480498D01*
X106393506Y-87539463D01*
X106296815Y-87618815D01*
X106217463Y-87715506D01*
X106158498Y-87825820D01*
X106122188Y-87945518D01*
X106109928Y-88070000D01*
X93964111Y-88070000D01*
X93508007Y-87613897D01*
X93475596Y-87574404D01*
X93317997Y-87445066D01*
X93138193Y-87348959D01*
X92943095Y-87289776D01*
X92791038Y-87274800D01*
X92791028Y-87274800D01*
X92740200Y-87269794D01*
X92689372Y-87274800D01*
X88522287Y-87274800D01*
X88519502Y-87265620D01*
X88460537Y-87155306D01*
X88381185Y-87058615D01*
X88377253Y-87055388D01*
X134477258Y-87060090D01*
X134440918Y-87075143D01*
X133878315Y-87451062D01*
X133399862Y-87929515D01*
X133023943Y-88492118D01*
X132765006Y-89117248D01*
X132633000Y-89780882D01*
X132633000Y-90457518D01*
X132765006Y-91121152D01*
X133023943Y-91746282D01*
X133399862Y-92308885D01*
X133878315Y-92787338D01*
X134440918Y-93163257D01*
X135066048Y-93422194D01*
X135729682Y-93554200D01*
X136406318Y-93554200D01*
X137069952Y-93422194D01*
X137695082Y-93163257D01*
X138257685Y-92787338D01*
X138736138Y-92308885D01*
X139112057Y-91746282D01*
X139202560Y-91527788D01*
X139202561Y-129030414D01*
X139112057Y-128811918D01*
X138736138Y-128249315D01*
X138257685Y-127770862D01*
X137695082Y-127394943D01*
X137069952Y-127136006D01*
X136406318Y-127004000D01*
X135729682Y-127004000D01*
X135066048Y-127136006D01*
X134440918Y-127394943D01*
X133878315Y-127770862D01*
X133399862Y-128249315D01*
X133023943Y-128811918D01*
X132765006Y-129437048D01*
X132633000Y-130100682D01*
X132633000Y-130777318D01*
X132765006Y-131440952D01*
X133023943Y-132066082D01*
X133399862Y-132628685D01*
X133878315Y-133107138D01*
X134440918Y-133483057D01*
X134611224Y-133553600D01*
X60918523Y-133553600D01*
X61019727Y-133511680D01*
X61254759Y-133354637D01*
X61334396Y-133275000D01*
X61418872Y-133275000D01*
X61469700Y-133280006D01*
X61520528Y-133275000D01*
X61520538Y-133275000D01*
X61672595Y-133260024D01*
X61867693Y-133200841D01*
X62047497Y-133104734D01*
X62205096Y-132975396D01*
X62237507Y-132935903D01*
X62435220Y-132738190D01*
X62618899Y-132888932D01*
X62868192Y-133022182D01*
X63138691Y-133104236D01*
X63349508Y-133125000D01*
X64290492Y-133125000D01*
X64501309Y-133104236D01*
X64771808Y-133022182D01*
X65021101Y-132888932D01*
X65239608Y-132709608D01*
X65418932Y-132491101D01*
X65552182Y-132241808D01*
X65634236Y-131971309D01*
X65661943Y-131690000D01*
X65634236Y-131408691D01*
X65552182Y-131138192D01*
X65418932Y-130888899D01*
X65239608Y-130670392D01*
X65021101Y-130491068D01*
X64888142Y-130420000D01*
X65021101Y-130348932D01*
X65239608Y-130169608D01*
X65418932Y-129951101D01*
X65552182Y-129701808D01*
X65634236Y-129431309D01*
X65661943Y-129150000D01*
X65634236Y-128868691D01*
X65552182Y-128598192D01*
X65418932Y-128348899D01*
X65239608Y-128130392D01*
X65021101Y-127951068D01*
X64888142Y-127880000D01*
X65021101Y-127808932D01*
X65239608Y-127629608D01*
X65418932Y-127411101D01*
X65552182Y-127161808D01*
X65634236Y-126891309D01*
X65661943Y-126610000D01*
X65634236Y-126328691D01*
X65552182Y-126058192D01*
X65418932Y-125808899D01*
X65239608Y-125590392D01*
X65021101Y-125411068D01*
X64888142Y-125340000D01*
X65021101Y-125268932D01*
X65239608Y-125089608D01*
X65418932Y-124871101D01*
X65552182Y-124621808D01*
X65634236Y-124351309D01*
X65661943Y-124070000D01*
X65634236Y-123788691D01*
X65552182Y-123518192D01*
X65418932Y-123268899D01*
X65239608Y-123050392D01*
X65021101Y-122871068D01*
X64888142Y-122800000D01*
X65021101Y-122728932D01*
X65239608Y-122549608D01*
X65418932Y-122331101D01*
X65552182Y-122081808D01*
X65634236Y-121811309D01*
X65661943Y-121530000D01*
X65634236Y-121248691D01*
X65552182Y-120978192D01*
X65418932Y-120728899D01*
X65239608Y-120510392D01*
X65021101Y-120331068D01*
X64888142Y-120260000D01*
X65021101Y-120188932D01*
X65239608Y-120009608D01*
X65418932Y-119791101D01*
X65552182Y-119541808D01*
X65634236Y-119271309D01*
X65661943Y-118990000D01*
X69598057Y-118990000D01*
X69625764Y-119271309D01*
X69707818Y-119541808D01*
X69841068Y-119791101D01*
X70020392Y-120009608D01*
X70238899Y-120188932D01*
X70371858Y-120260000D01*
X70238899Y-120331068D01*
X70020392Y-120510392D01*
X69841068Y-120728899D01*
X69707818Y-120978192D01*
X69625764Y-121248691D01*
X69598057Y-121530000D01*
X69625764Y-121811309D01*
X69707818Y-122081808D01*
X69841068Y-122331101D01*
X70020392Y-122549608D01*
X70238899Y-122728932D01*
X70371858Y-122800000D01*
X70238899Y-122871068D01*
X70020392Y-123050392D01*
X69841068Y-123268899D01*
X69707818Y-123518192D01*
X69625764Y-123788691D01*
X69598057Y-124070000D01*
X69625764Y-124351309D01*
X69707818Y-124621808D01*
X69841068Y-124871101D01*
X70020392Y-125089608D01*
X70238899Y-125268932D01*
X70371858Y-125340000D01*
X70238899Y-125411068D01*
X70020392Y-125590392D01*
X69841068Y-125808899D01*
X69707818Y-126058192D01*
X69625764Y-126328691D01*
X69598057Y-126610000D01*
X69625764Y-126891309D01*
X69707818Y-127161808D01*
X69841068Y-127411101D01*
X70020392Y-127629608D01*
X70238899Y-127808932D01*
X70371858Y-127880000D01*
X70238899Y-127951068D01*
X70020392Y-128130392D01*
X69841068Y-128348899D01*
X69707818Y-128598192D01*
X69625764Y-128868691D01*
X69598057Y-129150000D01*
X69625764Y-129431309D01*
X69707818Y-129701808D01*
X69841068Y-129951101D01*
X70020392Y-130169608D01*
X70133482Y-130262419D01*
X70115518Y-130264188D01*
X69995820Y-130300498D01*
X69885506Y-130359463D01*
X69788815Y-130438815D01*
X69709463Y-130535506D01*
X69650498Y-130645820D01*
X69614188Y-130765518D01*
X69601928Y-130890000D01*
X69601928Y-132490000D01*
X69614188Y-132614482D01*
X69650498Y-132734180D01*
X69709463Y-132844494D01*
X69788815Y-132941185D01*
X69885506Y-133020537D01*
X69995820Y-133079502D01*
X70115518Y-133115812D01*
X70240000Y-133128072D01*
X72640000Y-133128072D01*
X72764482Y-133115812D01*
X72884180Y-133079502D01*
X72994494Y-133020537D01*
X73091185Y-132941185D01*
X73170537Y-132844494D01*
X73229502Y-132734180D01*
X73265812Y-132614482D01*
X73278072Y-132490000D01*
X73278072Y-130890000D01*
X73265812Y-130765518D01*
X73229502Y-130645820D01*
X73170537Y-130535506D01*
X73091185Y-130438815D01*
X72994494Y-130359463D01*
X72884180Y-130300498D01*
X72764482Y-130264188D01*
X72746518Y-130262419D01*
X72859608Y-130169608D01*
X73038932Y-129951101D01*
X73060901Y-129910000D01*
X73511957Y-129910000D01*
X73615363Y-130064759D01*
X73815241Y-130264637D01*
X74050273Y-130421680D01*
X74311426Y-130529853D01*
X74588665Y-130585000D01*
X74871335Y-130585000D01*
X75148574Y-130529853D01*
X75409727Y-130421680D01*
X75644759Y-130264637D01*
X75844637Y-130064759D01*
X76001680Y-129829727D01*
X76109853Y-129568574D01*
X76165000Y-129291335D01*
X76165000Y-129008665D01*
X83455000Y-129008665D01*
X83455000Y-129291335D01*
X83510147Y-129568574D01*
X83618320Y-129829727D01*
X83775363Y-130064759D01*
X83975241Y-130264637D01*
X84210273Y-130421680D01*
X84471426Y-130529853D01*
X84748665Y-130585000D01*
X85031335Y-130585000D01*
X85308574Y-130529853D01*
X85569727Y-130421680D01*
X85804759Y-130264637D01*
X86004637Y-130064759D01*
X86108043Y-129910000D01*
X89412292Y-129910000D01*
X89378115Y-129973940D01*
X89311785Y-130192600D01*
X89289388Y-130420000D01*
X89311785Y-130647400D01*
X89378115Y-130866060D01*
X89485829Y-131067579D01*
X89630788Y-131244212D01*
X89807421Y-131389171D01*
X90008940Y-131496885D01*
X90227600Y-131563215D01*
X90398021Y-131580000D01*
X90961979Y-131580000D01*
X91132400Y-131563215D01*
X91351060Y-131496885D01*
X91429421Y-131455000D01*
X99256872Y-131455000D01*
X99307700Y-131460006D01*
X99358528Y-131455000D01*
X99358538Y-131455000D01*
X99510595Y-131440024D01*
X99705693Y-131380841D01*
X99885497Y-131284734D01*
X100043096Y-131155396D01*
X100075507Y-131115903D01*
X100289789Y-130901621D01*
X100293463Y-130908494D01*
X100372815Y-131005185D01*
X100469506Y-131084537D01*
X100579820Y-131143502D01*
X100699518Y-131179812D01*
X100824000Y-131192072D01*
X102924000Y-131192072D01*
X103048482Y-131179812D01*
X103168180Y-131143502D01*
X103278494Y-131084537D01*
X103375185Y-131005185D01*
X103454537Y-130908494D01*
X103462042Y-130894454D01*
X103615853Y-130997228D01*
X103922504Y-131124246D01*
X104248042Y-131189000D01*
X104579958Y-131189000D01*
X104905496Y-131124246D01*
X105212147Y-130997228D01*
X105488125Y-130812825D01*
X105684000Y-130616950D01*
X105879875Y-130812825D01*
X106155853Y-130997228D01*
X106462504Y-131124246D01*
X106788042Y-131189000D01*
X107119958Y-131189000D01*
X107445496Y-131124246D01*
X107752147Y-130997228D01*
X108028125Y-130812825D01*
X108224000Y-130616950D01*
X108419875Y-130812825D01*
X108695853Y-130997228D01*
X109002504Y-131124246D01*
X109328042Y-131189000D01*
X109659958Y-131189000D01*
X109985496Y-131124246D01*
X110292147Y-130997228D01*
X110568125Y-130812825D01*
X110802825Y-130578125D01*
X110987228Y-130302147D01*
X111114246Y-129995496D01*
X111179000Y-129669958D01*
X111179000Y-129338042D01*
X111114246Y-129012504D01*
X110987228Y-128705853D01*
X110802825Y-128429875D01*
X110568125Y-128195175D01*
X110292147Y-128010772D01*
X109985496Y-127883754D01*
X109659958Y-127819000D01*
X109328042Y-127819000D01*
X109002504Y-127883754D01*
X108695853Y-128010772D01*
X108419875Y-128195175D01*
X108224000Y-128391050D01*
X108028125Y-128195175D01*
X107752147Y-128010772D01*
X107445496Y-127883754D01*
X107119958Y-127819000D01*
X106788042Y-127819000D01*
X106462504Y-127883754D01*
X106155853Y-128010772D01*
X105879875Y-128195175D01*
X105684000Y-128391050D01*
X105488125Y-128195175D01*
X105212147Y-128010772D01*
X104905496Y-127883754D01*
X104579958Y-127819000D01*
X104248042Y-127819000D01*
X103922504Y-127883754D01*
X103615853Y-128010772D01*
X103462042Y-128113546D01*
X103454537Y-128099506D01*
X103375185Y-128002815D01*
X103278494Y-127923463D01*
X103168180Y-127864498D01*
X103048482Y-127828188D01*
X102924000Y-127815928D01*
X100824000Y-127815928D01*
X100699518Y-127828188D01*
X100579820Y-127864498D01*
X100469506Y-127923463D01*
X100372815Y-128002815D01*
X100293463Y-128099506D01*
X100234498Y-128209820D01*
X100198188Y-128329518D01*
X100185928Y-128454000D01*
X100185928Y-128467713D01*
X100172865Y-128469000D01*
X100172862Y-128469000D01*
X100020805Y-128483976D01*
X99871115Y-128529385D01*
X99825706Y-128543159D01*
X99645902Y-128639266D01*
X99527792Y-128736197D01*
X99488304Y-128768604D01*
X99455897Y-128808092D01*
X98878990Y-129385000D01*
X92045910Y-129385000D01*
X92048215Y-129377400D01*
X92070612Y-129150000D01*
X92048215Y-128922600D01*
X91984907Y-128713902D01*
X92019502Y-128649180D01*
X92055812Y-128529482D01*
X92068072Y-128405000D01*
X92065000Y-128165750D01*
X91906250Y-128007000D01*
X91133109Y-128007000D01*
X91132400Y-128006785D01*
X90961979Y-127990000D01*
X90398021Y-127990000D01*
X90227600Y-128006785D01*
X90226891Y-128007000D01*
X89453750Y-128007000D01*
X89295000Y-128165750D01*
X89292121Y-128390000D01*
X86108043Y-128390000D01*
X86004637Y-128235241D01*
X85804759Y-128035363D01*
X85569727Y-127878320D01*
X85308574Y-127770147D01*
X85031335Y-127715000D01*
X84748665Y-127715000D01*
X84471426Y-127770147D01*
X84210273Y-127878320D01*
X83975241Y-128035363D01*
X83775363Y-128235241D01*
X83618320Y-128470273D01*
X83510147Y-128731426D01*
X83455000Y-129008665D01*
X76165000Y-129008665D01*
X76109853Y-128731426D01*
X76001680Y-128470273D01*
X75844637Y-128235241D01*
X75644759Y-128035363D01*
X75409727Y-127878320D01*
X75148574Y-127770147D01*
X74871335Y-127715000D01*
X74588665Y-127715000D01*
X74311426Y-127770147D01*
X74050273Y-127878320D01*
X73815241Y-128035363D01*
X73615363Y-128235241D01*
X73511957Y-128390000D01*
X73060901Y-128390000D01*
X73038932Y-128348899D01*
X72859608Y-128130392D01*
X72641101Y-127951068D01*
X72508142Y-127880000D01*
X72641101Y-127808932D01*
X72859608Y-127629608D01*
X73038932Y-127411101D01*
X73068918Y-127355000D01*
X89291928Y-127355000D01*
X89295000Y-127594250D01*
X89453750Y-127753000D01*
X90553000Y-127753000D01*
X90553000Y-126878750D01*
X90807000Y-126878750D01*
X90807000Y-127753000D01*
X91906250Y-127753000D01*
X92065000Y-127594250D01*
X92068072Y-127355000D01*
X92055812Y-127230518D01*
X92019502Y-127110820D01*
X91960537Y-127000506D01*
X91881185Y-126903815D01*
X91784494Y-126824463D01*
X91674180Y-126765498D01*
X91554482Y-126729188D01*
X91430000Y-126716928D01*
X90965750Y-126720000D01*
X90807000Y-126878750D01*
X90553000Y-126878750D01*
X90394250Y-126720000D01*
X89930000Y-126716928D01*
X89805518Y-126729188D01*
X89685820Y-126765498D01*
X89575506Y-126824463D01*
X89478815Y-126903815D01*
X89399463Y-127000506D01*
X89340498Y-127110820D01*
X89304188Y-127230518D01*
X89291928Y-127355000D01*
X73068918Y-127355000D01*
X73172182Y-127161808D01*
X73254236Y-126891309D01*
X73281943Y-126610000D01*
X73254236Y-126328691D01*
X73172182Y-126058192D01*
X73038932Y-125808899D01*
X72859608Y-125590392D01*
X72641101Y-125411068D01*
X72508142Y-125340000D01*
X72641101Y-125268932D01*
X72859608Y-125089608D01*
X73038932Y-124871101D01*
X73060901Y-124830000D01*
X73511957Y-124830000D01*
X73615363Y-124984759D01*
X73815241Y-125184637D01*
X74050273Y-125341680D01*
X74311426Y-125449853D01*
X74588665Y-125505000D01*
X74871335Y-125505000D01*
X75148574Y-125449853D01*
X75409727Y-125341680D01*
X75644759Y-125184637D01*
X75844637Y-124984759D01*
X76001680Y-124749727D01*
X76109853Y-124488574D01*
X76165000Y-124211335D01*
X76165000Y-123928665D01*
X83455000Y-123928665D01*
X83455000Y-124211335D01*
X83510147Y-124488574D01*
X83618320Y-124749727D01*
X83775363Y-124984759D01*
X83975241Y-125184637D01*
X84210273Y-125341680D01*
X84471426Y-125449853D01*
X84748665Y-125505000D01*
X85031335Y-125505000D01*
X85308574Y-125449853D01*
X85569727Y-125341680D01*
X85804759Y-125184637D01*
X86004637Y-124984759D01*
X86108043Y-124830000D01*
X95712292Y-124830000D01*
X95678115Y-124893940D01*
X95611785Y-125112600D01*
X95589388Y-125340000D01*
X95611785Y-125567400D01*
X95678115Y-125786060D01*
X95785829Y-125987579D01*
X95930788Y-126164212D01*
X96107421Y-126309171D01*
X96308940Y-126416885D01*
X96527600Y-126483215D01*
X96698021Y-126500000D01*
X97261979Y-126500000D01*
X97432400Y-126483215D01*
X97651060Y-126416885D01*
X97852579Y-126309171D01*
X98029212Y-126164212D01*
X98174171Y-125987579D01*
X98281885Y-125786060D01*
X98348215Y-125567400D01*
X98370612Y-125340000D01*
X98348215Y-125112600D01*
X98281885Y-124893940D01*
X98180895Y-124705000D01*
X98281885Y-124516060D01*
X98348215Y-124297400D01*
X98370612Y-124070000D01*
X98348215Y-123842600D01*
X98284907Y-123633902D01*
X98319502Y-123569180D01*
X98355812Y-123449482D01*
X98368072Y-123325000D01*
X98365000Y-123085750D01*
X98206250Y-122927000D01*
X97433109Y-122927000D01*
X97432400Y-122926785D01*
X97261979Y-122910000D01*
X96698021Y-122910000D01*
X96527600Y-122926785D01*
X96526891Y-122927000D01*
X95753750Y-122927000D01*
X95595000Y-123085750D01*
X95592121Y-123310000D01*
X86108043Y-123310000D01*
X86004637Y-123155241D01*
X85804759Y-122955363D01*
X85569727Y-122798320D01*
X85308574Y-122690147D01*
X85031335Y-122635000D01*
X84748665Y-122635000D01*
X84471426Y-122690147D01*
X84210273Y-122798320D01*
X83975241Y-122955363D01*
X83775363Y-123155241D01*
X83618320Y-123390273D01*
X83510147Y-123651426D01*
X83455000Y-123928665D01*
X76165000Y-123928665D01*
X76109853Y-123651426D01*
X76001680Y-123390273D01*
X75844637Y-123155241D01*
X75644759Y-122955363D01*
X75409727Y-122798320D01*
X75148574Y-122690147D01*
X74871335Y-122635000D01*
X74588665Y-122635000D01*
X74311426Y-122690147D01*
X74050273Y-122798320D01*
X73815241Y-122955363D01*
X73615363Y-123155241D01*
X73511957Y-123310000D01*
X73060901Y-123310000D01*
X73038932Y-123268899D01*
X72859608Y-123050392D01*
X72641101Y-122871068D01*
X72508142Y-122800000D01*
X72641101Y-122728932D01*
X72859608Y-122549608D01*
X73038932Y-122331101D01*
X73068918Y-122275000D01*
X95591928Y-122275000D01*
X95595000Y-122514250D01*
X95753750Y-122673000D01*
X96853000Y-122673000D01*
X96853000Y-121798750D01*
X97107000Y-121798750D01*
X97107000Y-122673000D01*
X98206250Y-122673000D01*
X98365000Y-122514250D01*
X98368072Y-122275000D01*
X98355812Y-122150518D01*
X98319502Y-122030820D01*
X98260537Y-121920506D01*
X98181185Y-121823815D01*
X98084494Y-121744463D01*
X97974180Y-121685498D01*
X97854482Y-121649188D01*
X97730000Y-121636928D01*
X97265750Y-121640000D01*
X97107000Y-121798750D01*
X96853000Y-121798750D01*
X96694250Y-121640000D01*
X96230000Y-121636928D01*
X96105518Y-121649188D01*
X95985820Y-121685498D01*
X95875506Y-121744463D01*
X95778815Y-121823815D01*
X95699463Y-121920506D01*
X95640498Y-122030820D01*
X95604188Y-122150518D01*
X95591928Y-122275000D01*
X73068918Y-122275000D01*
X73172182Y-122081808D01*
X73254236Y-121811309D01*
X73281943Y-121530000D01*
X73254236Y-121248691D01*
X73172182Y-120978192D01*
X73038932Y-120728899D01*
X72859608Y-120510392D01*
X72641101Y-120331068D01*
X72508142Y-120260000D01*
X72641101Y-120188932D01*
X72859608Y-120009608D01*
X73038932Y-119791101D01*
X73060901Y-119750000D01*
X73511957Y-119750000D01*
X73615363Y-119904759D01*
X73815241Y-120104637D01*
X74050273Y-120261680D01*
X74311426Y-120369853D01*
X74588665Y-120425000D01*
X74871335Y-120425000D01*
X75148574Y-120369853D01*
X75409727Y-120261680D01*
X75644759Y-120104637D01*
X75844637Y-119904759D01*
X76001680Y-119669727D01*
X76109853Y-119408574D01*
X76165000Y-119131335D01*
X76165000Y-118848665D01*
X83455000Y-118848665D01*
X83455000Y-119131335D01*
X83510147Y-119408574D01*
X83618320Y-119669727D01*
X83775363Y-119904759D01*
X83975241Y-120104637D01*
X84210273Y-120261680D01*
X84471426Y-120369853D01*
X84748665Y-120425000D01*
X85031335Y-120425000D01*
X85308574Y-120369853D01*
X85569727Y-120261680D01*
X85804759Y-120104637D01*
X86004637Y-119904759D01*
X86108043Y-119750000D01*
X89412292Y-119750000D01*
X89378115Y-119813940D01*
X89311785Y-120032600D01*
X89289388Y-120260000D01*
X89311785Y-120487400D01*
X89378115Y-120706060D01*
X89485829Y-120907579D01*
X89630788Y-121084212D01*
X89807421Y-121229171D01*
X90008940Y-121336885D01*
X90227600Y-121403215D01*
X90398021Y-121420000D01*
X90961979Y-121420000D01*
X91132400Y-121403215D01*
X91351060Y-121336885D01*
X91552579Y-121229171D01*
X91729212Y-121084212D01*
X91874171Y-120907579D01*
X91981885Y-120706060D01*
X92048215Y-120487400D01*
X92070612Y-120260000D01*
X92048215Y-120032600D01*
X91981885Y-119813940D01*
X91880895Y-119625000D01*
X91981885Y-119436060D01*
X92048215Y-119217400D01*
X92070612Y-118990000D01*
X92048215Y-118762600D01*
X91984907Y-118553902D01*
X92019502Y-118489180D01*
X92055812Y-118369482D01*
X92068072Y-118245000D01*
X92065000Y-118005750D01*
X91906250Y-117847000D01*
X91133109Y-117847000D01*
X91132400Y-117846785D01*
X90961979Y-117830000D01*
X90398021Y-117830000D01*
X90227600Y-117846785D01*
X90226891Y-117847000D01*
X89453750Y-117847000D01*
X89295000Y-118005750D01*
X89292121Y-118230000D01*
X86108043Y-118230000D01*
X86004637Y-118075241D01*
X85804759Y-117875363D01*
X85569727Y-117718320D01*
X85308574Y-117610147D01*
X85031335Y-117555000D01*
X84748665Y-117555000D01*
X84471426Y-117610147D01*
X84210273Y-117718320D01*
X83975241Y-117875363D01*
X83775363Y-118075241D01*
X83618320Y-118310273D01*
X83510147Y-118571426D01*
X83455000Y-118848665D01*
X76165000Y-118848665D01*
X76109853Y-118571426D01*
X76001680Y-118310273D01*
X75844637Y-118075241D01*
X75644759Y-117875363D01*
X75409727Y-117718320D01*
X75148574Y-117610147D01*
X74871335Y-117555000D01*
X74588665Y-117555000D01*
X74311426Y-117610147D01*
X74050273Y-117718320D01*
X73815241Y-117875363D01*
X73615363Y-118075241D01*
X73511957Y-118230000D01*
X73060901Y-118230000D01*
X73038932Y-118188899D01*
X72859608Y-117970392D01*
X72641101Y-117791068D01*
X72513259Y-117722735D01*
X72742839Y-117572601D01*
X72944500Y-117374895D01*
X73067295Y-117195000D01*
X89291928Y-117195000D01*
X89295000Y-117434250D01*
X89453750Y-117593000D01*
X90553000Y-117593000D01*
X90553000Y-116718750D01*
X90807000Y-116718750D01*
X90807000Y-117593000D01*
X91906250Y-117593000D01*
X92065000Y-117434250D01*
X92068072Y-117195000D01*
X92055812Y-117070518D01*
X92019502Y-116950820D01*
X91960537Y-116840506D01*
X91881185Y-116743815D01*
X91784494Y-116664463D01*
X91674180Y-116605498D01*
X91554482Y-116569188D01*
X91430000Y-116556928D01*
X90965750Y-116560000D01*
X90807000Y-116718750D01*
X90553000Y-116718750D01*
X90394250Y-116560000D01*
X89930000Y-116556928D01*
X89805518Y-116569188D01*
X89685820Y-116605498D01*
X89575506Y-116664463D01*
X89478815Y-116743815D01*
X89399463Y-116840506D01*
X89340498Y-116950820D01*
X89304188Y-117070518D01*
X89291928Y-117195000D01*
X73067295Y-117195000D01*
X73103715Y-117141646D01*
X73214367Y-116881818D01*
X73231904Y-116799039D01*
X73109915Y-116577000D01*
X71567000Y-116577000D01*
X71567000Y-116597000D01*
X71313000Y-116597000D01*
X71313000Y-116577000D01*
X69770085Y-116577000D01*
X69648096Y-116799039D01*
X69665633Y-116881818D01*
X69776285Y-117141646D01*
X69935500Y-117374895D01*
X70137161Y-117572601D01*
X70366741Y-117722735D01*
X70238899Y-117791068D01*
X70020392Y-117970392D01*
X69841068Y-118188899D01*
X69707818Y-118438192D01*
X69625764Y-118708691D01*
X69598057Y-118990000D01*
X65661943Y-118990000D01*
X65634236Y-118708691D01*
X65552182Y-118438192D01*
X65418932Y-118188899D01*
X65239608Y-117970392D01*
X65021101Y-117791068D01*
X64888142Y-117720000D01*
X65021101Y-117648932D01*
X65239608Y-117469608D01*
X65418932Y-117251101D01*
X65552182Y-117001808D01*
X65634236Y-116731309D01*
X65661943Y-116450000D01*
X65634236Y-116168691D01*
X65613691Y-116100961D01*
X69648096Y-116100961D01*
X69770085Y-116323000D01*
X71313000Y-116323000D01*
X71313000Y-115015000D01*
X71567000Y-115015000D01*
X71567000Y-116323000D01*
X73109915Y-116323000D01*
X73231904Y-116100961D01*
X73214367Y-116018182D01*
X73103715Y-115758354D01*
X72944500Y-115525105D01*
X72742839Y-115327399D01*
X72506483Y-115172834D01*
X72244514Y-115067350D01*
X71967000Y-115015000D01*
X71567000Y-115015000D01*
X71313000Y-115015000D01*
X70913000Y-115015000D01*
X70635486Y-115067350D01*
X70373517Y-115172834D01*
X70137161Y-115327399D01*
X69935500Y-115525105D01*
X69776285Y-115758354D01*
X69665633Y-116018182D01*
X69648096Y-116100961D01*
X65613691Y-116100961D01*
X65552182Y-115898192D01*
X65418932Y-115648899D01*
X65239608Y-115430392D01*
X65021101Y-115251068D01*
X64771808Y-115117818D01*
X64501309Y-115035764D01*
X64299703Y-115015907D01*
X66929945Y-112385665D01*
X70965000Y-112385665D01*
X70965000Y-112668335D01*
X71020147Y-112945574D01*
X71128320Y-113206727D01*
X71285363Y-113441759D01*
X71485241Y-113641637D01*
X71720273Y-113798680D01*
X71981426Y-113906853D01*
X72258665Y-113962000D01*
X72541335Y-113962000D01*
X72818574Y-113906853D01*
X73079727Y-113798680D01*
X73314759Y-113641637D01*
X73514637Y-113441759D01*
X73618043Y-113287000D01*
X78183895Y-113287000D01*
X78148115Y-113353940D01*
X78081785Y-113572600D01*
X78059388Y-113800000D01*
X78081785Y-114027400D01*
X78148115Y-114246060D01*
X78255829Y-114447579D01*
X78400788Y-114624212D01*
X78577421Y-114769171D01*
X78778940Y-114876885D01*
X78997600Y-114943215D01*
X79168021Y-114960000D01*
X79731979Y-114960000D01*
X79902400Y-114943215D01*
X80121060Y-114876885D01*
X80322579Y-114769171D01*
X80499212Y-114624212D01*
X80644171Y-114447579D01*
X80751885Y-114246060D01*
X80818215Y-114027400D01*
X80840612Y-113800000D01*
X80818215Y-113572600D01*
X80751885Y-113353940D01*
X80650895Y-113165000D01*
X80751885Y-112976060D01*
X80818215Y-112757400D01*
X80840612Y-112530000D01*
X80818215Y-112302600D01*
X80754907Y-112093902D01*
X80789502Y-112029180D01*
X80825812Y-111909482D01*
X80838072Y-111785000D01*
X80835000Y-111545750D01*
X80676250Y-111387000D01*
X79903109Y-111387000D01*
X79902400Y-111386785D01*
X79731979Y-111370000D01*
X79168021Y-111370000D01*
X78997600Y-111386785D01*
X78996891Y-111387000D01*
X78223750Y-111387000D01*
X78065000Y-111545750D01*
X78062159Y-111767000D01*
X73618043Y-111767000D01*
X73514637Y-111612241D01*
X73314759Y-111412363D01*
X73079727Y-111255320D01*
X72818574Y-111147147D01*
X72541335Y-111092000D01*
X72258665Y-111092000D01*
X71981426Y-111147147D01*
X71720273Y-111255320D01*
X71485241Y-111412363D01*
X71285363Y-111612241D01*
X71128320Y-111847273D01*
X71020147Y-112108426D01*
X70965000Y-112385665D01*
X66929945Y-112385665D01*
X68267211Y-111048400D01*
X78139150Y-111048400D01*
X78223750Y-111133000D01*
X79323000Y-111133000D01*
X79323000Y-111113000D01*
X79577000Y-111113000D01*
X79577000Y-111133000D01*
X80676250Y-111133000D01*
X80760850Y-111048400D01*
X107974972Y-111048400D01*
X108025800Y-111053406D01*
X108076628Y-111048400D01*
X108076638Y-111048400D01*
X108228695Y-111033424D01*
X108423793Y-110974241D01*
X108603597Y-110878134D01*
X108761196Y-110748796D01*
X108793607Y-110709303D01*
X113339007Y-106163903D01*
X113407241Y-106232137D01*
X113642273Y-106389180D01*
X113903426Y-106497353D01*
X114180665Y-106552500D01*
X114463335Y-106552500D01*
X114740574Y-106497353D01*
X115001727Y-106389180D01*
X115236759Y-106232137D01*
X115436637Y-106032259D01*
X115593680Y-105797227D01*
X115701853Y-105536074D01*
X115757000Y-105258835D01*
X115757000Y-104976165D01*
X115701853Y-104698926D01*
X115593680Y-104437773D01*
X115436637Y-104202741D01*
X115236759Y-104002863D01*
X115001727Y-103845820D01*
X114740574Y-103737647D01*
X114463335Y-103682500D01*
X114180665Y-103682500D01*
X113903426Y-103737647D01*
X113642273Y-103845820D01*
X113407241Y-104002863D01*
X113327604Y-104082500D01*
X112972527Y-104082500D01*
X112921699Y-104077494D01*
X112870871Y-104082500D01*
X112870862Y-104082500D01*
X112718805Y-104097476D01*
X112523707Y-104156659D01*
X112440009Y-104201396D01*
X112343902Y-104252766D01*
X112244796Y-104334101D01*
X112186304Y-104382104D01*
X112153897Y-104421592D01*
X107597090Y-108978400D01*
X73278072Y-108978400D01*
X73278072Y-107813000D01*
X73265812Y-107688518D01*
X73229502Y-107568820D01*
X73170537Y-107458506D01*
X73091185Y-107361815D01*
X72994494Y-107282463D01*
X72884180Y-107223498D01*
X72764482Y-107187188D01*
X72746518Y-107185419D01*
X72859608Y-107092608D01*
X73038932Y-106874101D01*
X73060901Y-106833000D01*
X73511957Y-106833000D01*
X73615363Y-106987759D01*
X73815241Y-107187637D01*
X74050273Y-107344680D01*
X74311426Y-107452853D01*
X74588665Y-107508000D01*
X74871335Y-107508000D01*
X75148574Y-107452853D01*
X75409727Y-107344680D01*
X75644759Y-107187637D01*
X75844637Y-106987759D01*
X76001680Y-106752727D01*
X76109853Y-106491574D01*
X76165000Y-106214335D01*
X76165000Y-105931665D01*
X83455000Y-105931665D01*
X83455000Y-106214335D01*
X83510147Y-106491574D01*
X83618320Y-106752727D01*
X83775363Y-106987759D01*
X83975241Y-107187637D01*
X84210273Y-107344680D01*
X84471426Y-107452853D01*
X84748665Y-107508000D01*
X85031335Y-107508000D01*
X85308574Y-107452853D01*
X85569727Y-107344680D01*
X85804759Y-107187637D01*
X86004637Y-106987759D01*
X86108043Y-106833000D01*
X89412292Y-106833000D01*
X89378115Y-106896940D01*
X89311785Y-107115600D01*
X89289388Y-107343000D01*
X89311785Y-107570400D01*
X89378115Y-107789060D01*
X89485829Y-107990579D01*
X89630788Y-108167212D01*
X89807421Y-108312171D01*
X90008940Y-108419885D01*
X90227600Y-108486215D01*
X90398021Y-108503000D01*
X90961979Y-108503000D01*
X91132400Y-108486215D01*
X91351060Y-108419885D01*
X91552579Y-108312171D01*
X91729212Y-108167212D01*
X91874171Y-107990579D01*
X91981885Y-107789060D01*
X92048215Y-107570400D01*
X92070612Y-107343000D01*
X92048215Y-107115600D01*
X91981885Y-106896940D01*
X91880895Y-106708000D01*
X91981885Y-106519060D01*
X92048215Y-106300400D01*
X92070612Y-106073000D01*
X92048215Y-105845600D01*
X91984907Y-105636902D01*
X92019502Y-105572180D01*
X92055812Y-105452482D01*
X92068072Y-105328000D01*
X92065000Y-105088750D01*
X91952415Y-104976165D01*
X106213000Y-104976165D01*
X106213000Y-105258835D01*
X106268147Y-105536074D01*
X106376320Y-105797227D01*
X106533363Y-106032259D01*
X106733241Y-106232137D01*
X106968273Y-106389180D01*
X107229426Y-106497353D01*
X107506665Y-106552500D01*
X107789335Y-106552500D01*
X108066574Y-106497353D01*
X108327727Y-106389180D01*
X108562759Y-106232137D01*
X108762637Y-106032259D01*
X108919680Y-105797227D01*
X109027853Y-105536074D01*
X109083000Y-105258835D01*
X109083000Y-104976165D01*
X109027853Y-104698926D01*
X108919680Y-104437773D01*
X108762637Y-104202741D01*
X108562759Y-104002863D01*
X108327727Y-103845820D01*
X108066574Y-103737647D01*
X107789335Y-103682500D01*
X107506665Y-103682500D01*
X107229426Y-103737647D01*
X106968273Y-103845820D01*
X106733241Y-104002863D01*
X106533363Y-104202741D01*
X106376320Y-104437773D01*
X106268147Y-104698926D01*
X106213000Y-104976165D01*
X91952415Y-104976165D01*
X91906250Y-104930000D01*
X91133109Y-104930000D01*
X91132400Y-104929785D01*
X90961979Y-104913000D01*
X90398021Y-104913000D01*
X90227600Y-104929785D01*
X90226891Y-104930000D01*
X89453750Y-104930000D01*
X89295000Y-105088750D01*
X89292121Y-105313000D01*
X86108043Y-105313000D01*
X86004637Y-105158241D01*
X85804759Y-104958363D01*
X85569727Y-104801320D01*
X85308574Y-104693147D01*
X85031335Y-104638000D01*
X84748665Y-104638000D01*
X84471426Y-104693147D01*
X84210273Y-104801320D01*
X83975241Y-104958363D01*
X83775363Y-105158241D01*
X83618320Y-105393273D01*
X83510147Y-105654426D01*
X83455000Y-105931665D01*
X76165000Y-105931665D01*
X76109853Y-105654426D01*
X76001680Y-105393273D01*
X75844637Y-105158241D01*
X75644759Y-104958363D01*
X75409727Y-104801320D01*
X75148574Y-104693147D01*
X74871335Y-104638000D01*
X74588665Y-104638000D01*
X74311426Y-104693147D01*
X74050273Y-104801320D01*
X73815241Y-104958363D01*
X73615363Y-105158241D01*
X73511957Y-105313000D01*
X73060901Y-105313000D01*
X73038932Y-105271899D01*
X72859608Y-105053392D01*
X72641101Y-104874068D01*
X72508142Y-104803000D01*
X72641101Y-104731932D01*
X72859608Y-104552608D01*
X73038932Y-104334101D01*
X73068918Y-104278000D01*
X89291928Y-104278000D01*
X89295000Y-104517250D01*
X89453750Y-104676000D01*
X90553000Y-104676000D01*
X90553000Y-103801750D01*
X90807000Y-103801750D01*
X90807000Y-104676000D01*
X91906250Y-104676000D01*
X92065000Y-104517250D01*
X92068072Y-104278000D01*
X92055812Y-104153518D01*
X92019502Y-104033820D01*
X91960537Y-103923506D01*
X91881185Y-103826815D01*
X91784494Y-103747463D01*
X91674180Y-103688498D01*
X91554482Y-103652188D01*
X91430000Y-103639928D01*
X90965750Y-103643000D01*
X90807000Y-103801750D01*
X90553000Y-103801750D01*
X90394250Y-103643000D01*
X89930000Y-103639928D01*
X89805518Y-103652188D01*
X89685820Y-103688498D01*
X89575506Y-103747463D01*
X89478815Y-103826815D01*
X89399463Y-103923506D01*
X89340498Y-104033820D01*
X89304188Y-104153518D01*
X89291928Y-104278000D01*
X73068918Y-104278000D01*
X73172182Y-104084808D01*
X73254236Y-103814309D01*
X73281943Y-103533000D01*
X73254236Y-103251691D01*
X73172182Y-102981192D01*
X73038932Y-102731899D01*
X72859608Y-102513392D01*
X72641101Y-102334068D01*
X72508142Y-102263000D01*
X72641101Y-102191932D01*
X72859608Y-102012608D01*
X73038932Y-101794101D01*
X73060901Y-101753000D01*
X73511957Y-101753000D01*
X73615363Y-101907759D01*
X73815241Y-102107637D01*
X74050273Y-102264680D01*
X74311426Y-102372853D01*
X74588665Y-102428000D01*
X74871335Y-102428000D01*
X75148574Y-102372853D01*
X75409727Y-102264680D01*
X75644759Y-102107637D01*
X75844637Y-101907759D01*
X76001680Y-101672727D01*
X76109853Y-101411574D01*
X76165000Y-101134335D01*
X76165000Y-100851665D01*
X83455000Y-100851665D01*
X83455000Y-101134335D01*
X83510147Y-101411574D01*
X83618320Y-101672727D01*
X83775363Y-101907759D01*
X83975241Y-102107637D01*
X84210273Y-102264680D01*
X84471426Y-102372853D01*
X84748665Y-102428000D01*
X85031335Y-102428000D01*
X85308574Y-102372853D01*
X85569727Y-102264680D01*
X85804759Y-102107637D01*
X86004637Y-101907759D01*
X86108043Y-101753000D01*
X95712452Y-101753000D01*
X95678115Y-101817240D01*
X95611785Y-102035900D01*
X95589388Y-102263300D01*
X95611785Y-102490700D01*
X95678115Y-102709360D01*
X95785829Y-102910879D01*
X95930788Y-103087512D01*
X96107421Y-103232471D01*
X96308940Y-103340185D01*
X96527600Y-103406515D01*
X96698021Y-103423300D01*
X97261979Y-103423300D01*
X97432400Y-103406515D01*
X97651060Y-103340185D01*
X97852579Y-103232471D01*
X98029212Y-103087512D01*
X98174171Y-102910879D01*
X98281885Y-102709360D01*
X98348215Y-102490700D01*
X98370612Y-102263300D01*
X98348215Y-102035900D01*
X98281885Y-101817240D01*
X98180895Y-101628300D01*
X98281885Y-101439360D01*
X98348215Y-101220700D01*
X98370612Y-100993300D01*
X98348215Y-100765900D01*
X98284907Y-100557202D01*
X98319502Y-100492480D01*
X98355812Y-100372782D01*
X98368072Y-100248300D01*
X98365000Y-100009050D01*
X98206250Y-99850300D01*
X97433109Y-99850300D01*
X97432400Y-99850085D01*
X97261979Y-99833300D01*
X96698021Y-99833300D01*
X96527600Y-99850085D01*
X96526891Y-99850300D01*
X95753750Y-99850300D01*
X95595000Y-100009050D01*
X95592124Y-100233000D01*
X86108043Y-100233000D01*
X86004637Y-100078241D01*
X85804759Y-99878363D01*
X85569727Y-99721320D01*
X85308574Y-99613147D01*
X85031335Y-99558000D01*
X84748665Y-99558000D01*
X84471426Y-99613147D01*
X84210273Y-99721320D01*
X83975241Y-99878363D01*
X83775363Y-100078241D01*
X83618320Y-100313273D01*
X83510147Y-100574426D01*
X83455000Y-100851665D01*
X76165000Y-100851665D01*
X76109853Y-100574426D01*
X76001680Y-100313273D01*
X75844637Y-100078241D01*
X75644759Y-99878363D01*
X75409727Y-99721320D01*
X75148574Y-99613147D01*
X74871335Y-99558000D01*
X74588665Y-99558000D01*
X74311426Y-99613147D01*
X74050273Y-99721320D01*
X73815241Y-99878363D01*
X73615363Y-100078241D01*
X73511957Y-100233000D01*
X73060901Y-100233000D01*
X73038932Y-100191899D01*
X72859608Y-99973392D01*
X72641101Y-99794068D01*
X72508142Y-99723000D01*
X72641101Y-99651932D01*
X72859608Y-99472608D01*
X73038932Y-99254101D01*
X73068758Y-99198300D01*
X95591928Y-99198300D01*
X95595000Y-99437550D01*
X95753750Y-99596300D01*
X96853000Y-99596300D01*
X96853000Y-98722050D01*
X97107000Y-98722050D01*
X97107000Y-99596300D01*
X98206250Y-99596300D01*
X98365000Y-99437550D01*
X98368072Y-99198300D01*
X98355812Y-99073818D01*
X98319502Y-98954120D01*
X98260537Y-98843806D01*
X98181185Y-98747115D01*
X98084494Y-98667763D01*
X97974180Y-98608798D01*
X97854482Y-98572488D01*
X97730000Y-98560228D01*
X97265750Y-98563300D01*
X97107000Y-98722050D01*
X96853000Y-98722050D01*
X96694250Y-98563300D01*
X96230000Y-98560228D01*
X96105518Y-98572488D01*
X95985820Y-98608798D01*
X95875506Y-98667763D01*
X95778815Y-98747115D01*
X95699463Y-98843806D01*
X95640498Y-98954120D01*
X95604188Y-99073818D01*
X95591928Y-99198300D01*
X73068758Y-99198300D01*
X73172182Y-99004808D01*
X73254236Y-98734309D01*
X73281943Y-98453000D01*
X73254236Y-98171691D01*
X73172182Y-97901192D01*
X73038932Y-97651899D01*
X72859608Y-97433392D01*
X72641101Y-97254068D01*
X72508142Y-97183000D01*
X72641101Y-97111932D01*
X72859608Y-96932608D01*
X73038932Y-96714101D01*
X73060741Y-96673300D01*
X73511957Y-96673300D01*
X73615363Y-96828059D01*
X73815241Y-97027937D01*
X74050273Y-97184980D01*
X74311426Y-97293153D01*
X74588665Y-97348300D01*
X74871335Y-97348300D01*
X75148574Y-97293153D01*
X75409727Y-97184980D01*
X75644759Y-97027937D01*
X75844637Y-96828059D01*
X76001680Y-96593027D01*
X76109853Y-96331874D01*
X76165000Y-96054635D01*
X76165000Y-95771965D01*
X83455000Y-95771965D01*
X83455000Y-96054635D01*
X83510147Y-96331874D01*
X83618320Y-96593027D01*
X83775363Y-96828059D01*
X83975241Y-97027937D01*
X84210273Y-97184980D01*
X84471426Y-97293153D01*
X84748665Y-97348300D01*
X85031335Y-97348300D01*
X85308574Y-97293153D01*
X85569727Y-97184980D01*
X85804759Y-97027937D01*
X86004637Y-96828059D01*
X86108043Y-96673300D01*
X89412292Y-96673300D01*
X89378115Y-96737240D01*
X89311785Y-96955900D01*
X89289388Y-97183300D01*
X89311785Y-97410700D01*
X89378115Y-97629360D01*
X89485829Y-97830879D01*
X89630788Y-98007512D01*
X89807421Y-98152471D01*
X90008940Y-98260185D01*
X90227600Y-98326515D01*
X90398021Y-98343300D01*
X90961979Y-98343300D01*
X91132400Y-98326515D01*
X91351060Y-98260185D01*
X91552579Y-98152471D01*
X91729212Y-98007512D01*
X91874171Y-97830879D01*
X91981885Y-97629360D01*
X92048215Y-97410700D01*
X92070612Y-97183300D01*
X92048215Y-96955900D01*
X91981885Y-96737240D01*
X91880895Y-96548300D01*
X91981885Y-96359360D01*
X92048215Y-96140700D01*
X92070612Y-95913300D01*
X92048215Y-95685900D01*
X91984907Y-95477202D01*
X92019502Y-95412480D01*
X92055812Y-95292782D01*
X92068072Y-95168300D01*
X92065000Y-94929050D01*
X91906250Y-94770300D01*
X91133109Y-94770300D01*
X91132400Y-94770085D01*
X90961979Y-94753300D01*
X90398021Y-94753300D01*
X90227600Y-94770085D01*
X90226891Y-94770300D01*
X89453750Y-94770300D01*
X89295000Y-94929050D01*
X89292121Y-95153300D01*
X86108043Y-95153300D01*
X86004637Y-94998541D01*
X85804759Y-94798663D01*
X85569727Y-94641620D01*
X85308574Y-94533447D01*
X85031335Y-94478300D01*
X84748665Y-94478300D01*
X84471426Y-94533447D01*
X84210273Y-94641620D01*
X83975241Y-94798663D01*
X83775363Y-94998541D01*
X83618320Y-95233573D01*
X83510147Y-95494726D01*
X83455000Y-95771965D01*
X76165000Y-95771965D01*
X76109853Y-95494726D01*
X76001680Y-95233573D01*
X75844637Y-94998541D01*
X75644759Y-94798663D01*
X75409727Y-94641620D01*
X75148574Y-94533447D01*
X74871335Y-94478300D01*
X74588665Y-94478300D01*
X74311426Y-94533447D01*
X74050273Y-94641620D01*
X73815241Y-94798663D01*
X73615363Y-94998541D01*
X73511957Y-95153300D01*
X73061061Y-95153300D01*
X73038932Y-95111899D01*
X72859608Y-94893392D01*
X72641101Y-94714068D01*
X72513259Y-94645735D01*
X72742839Y-94495601D01*
X72944500Y-94297895D01*
X73103715Y-94064646D01*
X73214367Y-93804818D01*
X73231904Y-93722039D01*
X73109915Y-93500000D01*
X71567000Y-93500000D01*
X71567000Y-93520000D01*
X71313000Y-93520000D01*
X71313000Y-93500000D01*
X69770085Y-93500000D01*
X69648096Y-93722039D01*
X69665633Y-93804818D01*
X69776285Y-94064646D01*
X69935500Y-94297895D01*
X70137161Y-94495601D01*
X70366741Y-94645735D01*
X70238899Y-94714068D01*
X70020392Y-94893392D01*
X69841068Y-95111899D01*
X69707818Y-95361192D01*
X69625764Y-95631691D01*
X69598057Y-95913000D01*
X69625764Y-96194309D01*
X69707818Y-96464808D01*
X69841068Y-96714101D01*
X70020392Y-96932608D01*
X70238899Y-97111932D01*
X70371858Y-97183000D01*
X70238899Y-97254068D01*
X70020392Y-97433392D01*
X69841068Y-97651899D01*
X69815861Y-97699058D01*
X69765714Y-97703997D01*
X69622453Y-97747454D01*
X69490424Y-97818026D01*
X69490422Y-97818027D01*
X69490423Y-97818027D01*
X69403696Y-97889201D01*
X69403692Y-97889205D01*
X69374699Y-97912999D01*
X69350905Y-97941992D01*
X65822979Y-101469920D01*
X65574899Y-101469920D01*
X65634236Y-101274309D01*
X65661943Y-100993000D01*
X65634236Y-100711691D01*
X65552182Y-100441192D01*
X65418932Y-100191899D01*
X65239608Y-99973392D01*
X65021101Y-99794068D01*
X64888142Y-99723000D01*
X65021101Y-99651932D01*
X65239608Y-99472608D01*
X65418932Y-99254101D01*
X65552182Y-99004808D01*
X65634236Y-98734309D01*
X65661943Y-98453000D01*
X65634236Y-98171691D01*
X65552182Y-97901192D01*
X65418932Y-97651899D01*
X65239608Y-97433392D01*
X65021101Y-97254068D01*
X64888142Y-97183000D01*
X65021101Y-97111932D01*
X65239608Y-96932608D01*
X65418932Y-96714101D01*
X65552182Y-96464808D01*
X65634236Y-96194309D01*
X65661943Y-95913000D01*
X65634236Y-95631691D01*
X65552182Y-95361192D01*
X65418932Y-95111899D01*
X65239608Y-94893392D01*
X65021101Y-94714068D01*
X64888142Y-94643000D01*
X65021101Y-94571932D01*
X65239608Y-94392608D01*
X65418932Y-94174101D01*
X65552182Y-93924808D01*
X65634236Y-93654309D01*
X65661943Y-93373000D01*
X65634236Y-93091691D01*
X65613691Y-93023961D01*
X69648096Y-93023961D01*
X69770085Y-93246000D01*
X71313000Y-93246000D01*
X71313000Y-91938000D01*
X71567000Y-91938000D01*
X71567000Y-93246000D01*
X73109915Y-93246000D01*
X73231904Y-93023961D01*
X73214367Y-92941182D01*
X73103715Y-92681354D01*
X72944500Y-92448105D01*
X72742839Y-92250399D01*
X72506483Y-92095834D01*
X72244514Y-91990350D01*
X71967000Y-91938000D01*
X71567000Y-91938000D01*
X71313000Y-91938000D01*
X70913000Y-91938000D01*
X70635486Y-91990350D01*
X70373517Y-92095834D01*
X70137161Y-92250399D01*
X69935500Y-92448105D01*
X69776285Y-92681354D01*
X69665633Y-92941182D01*
X69648096Y-93023961D01*
X65613691Y-93023961D01*
X65552182Y-92821192D01*
X65418932Y-92571899D01*
X65239608Y-92353392D01*
X65021101Y-92174068D01*
X64771808Y-92040818D01*
X64501309Y-91958764D01*
X64290492Y-91938000D01*
X63349508Y-91938000D01*
X63138691Y-91958764D01*
X62868192Y-92040818D01*
X62618899Y-92174068D01*
X62400392Y-92353392D01*
X62221068Y-92571899D01*
X62087818Y-92821192D01*
X62005764Y-93091691D01*
X61978057Y-93373000D01*
X62005764Y-93654309D01*
X62087818Y-93924808D01*
X62221068Y-94174101D01*
X62400392Y-94392608D01*
X62618899Y-94571932D01*
X62751858Y-94643000D01*
X62618899Y-94714068D01*
X62400392Y-94893392D01*
X62221068Y-95111899D01*
X62195861Y-95159058D01*
X62145714Y-95163997D01*
X62002453Y-95207454D01*
X61870424Y-95278026D01*
X61754699Y-95372999D01*
X61730901Y-95401997D01*
X57557819Y-99575080D01*
X55842283Y-99575080D01*
X55867932Y-99513158D01*
X55925000Y-99226260D01*
X55925000Y-98933740D01*
X55867932Y-98646842D01*
X55755990Y-98376589D01*
X55593475Y-98133368D01*
X55386632Y-97926525D01*
X55204466Y-97804805D01*
X55321355Y-97735178D01*
X55537588Y-97540269D01*
X55711641Y-97306920D01*
X55836825Y-97044099D01*
X55881476Y-96896890D01*
X55760155Y-96667000D01*
X54567000Y-96667000D01*
X54567000Y-96687000D01*
X54313000Y-96687000D01*
X54313000Y-96667000D01*
X52027000Y-96667000D01*
X52027000Y-96687000D01*
X51773000Y-96687000D01*
X51773000Y-96667000D01*
X50579845Y-96667000D01*
X50458524Y-96896890D01*
X50503175Y-97044099D01*
X50628359Y-97306920D01*
X50802412Y-97540269D01*
X51018645Y-97735178D01*
X51135534Y-97804805D01*
X50953368Y-97926525D01*
X50746525Y-98133368D01*
X50584010Y-98376589D01*
X50472068Y-98646842D01*
X50415000Y-98933740D01*
X50415000Y-99226260D01*
X50472068Y-99513158D01*
X50584010Y-99783411D01*
X50746525Y-100026632D01*
X50953368Y-100233475D01*
X51127760Y-100350000D01*
X50953368Y-100466525D01*
X50746525Y-100673368D01*
X50584010Y-100916589D01*
X50472068Y-101186842D01*
X50415000Y-101473740D01*
X50415000Y-101766260D01*
X50472068Y-102053158D01*
X50584010Y-102323411D01*
X50746525Y-102566632D01*
X50953368Y-102773475D01*
X51127760Y-102890000D01*
X50953368Y-103006525D01*
X50746525Y-103213368D01*
X50584010Y-103456589D01*
X50472068Y-103726842D01*
X50415000Y-104013740D01*
X50415000Y-104306260D01*
X50472068Y-104593158D01*
X50584010Y-104863411D01*
X50746525Y-105106632D01*
X50953368Y-105313475D01*
X51127760Y-105430000D01*
X50953368Y-105546525D01*
X50746525Y-105753368D01*
X50584010Y-105996589D01*
X50472068Y-106266842D01*
X50415000Y-106553740D01*
X50415000Y-106846260D01*
X50472068Y-107133158D01*
X50584010Y-107403411D01*
X50746525Y-107646632D01*
X50953368Y-107853475D01*
X51127760Y-107970000D01*
X50953368Y-108086525D01*
X50746525Y-108293368D01*
X50584010Y-108536589D01*
X50472068Y-108806842D01*
X50415000Y-109093740D01*
X50415000Y-109386260D01*
X50472068Y-109673158D01*
X50584010Y-109943411D01*
X50746525Y-110186632D01*
X50953368Y-110393475D01*
X51127760Y-110510000D01*
X50953368Y-110626525D01*
X50746525Y-110833368D01*
X50584010Y-111076589D01*
X50472068Y-111346842D01*
X50415000Y-111633740D01*
X50415000Y-111926260D01*
X50472068Y-112213158D01*
X50584010Y-112483411D01*
X50746525Y-112726632D01*
X50953368Y-112933475D01*
X51127760Y-113050000D01*
X50953368Y-113166525D01*
X50746525Y-113373368D01*
X50584010Y-113616589D01*
X50472068Y-113886842D01*
X50415000Y-114173740D01*
X50415000Y-114466260D01*
X50472068Y-114753158D01*
X50584010Y-115023411D01*
X50746525Y-115266632D01*
X50953368Y-115473475D01*
X51127760Y-115590000D01*
X50953368Y-115706525D01*
X50746525Y-115913368D01*
X50584010Y-116156589D01*
X50472068Y-116426842D01*
X50415000Y-116713740D01*
X50415000Y-117006260D01*
X50472068Y-117293158D01*
X50584010Y-117563411D01*
X50746525Y-117806632D01*
X50953368Y-118013475D01*
X51127760Y-118130000D01*
X50953368Y-118246525D01*
X50746525Y-118453368D01*
X50584010Y-118696589D01*
X50472068Y-118966842D01*
X50415000Y-119253740D01*
X50415000Y-119546260D01*
X50472068Y-119833158D01*
X50584010Y-120103411D01*
X50746525Y-120346632D01*
X50953368Y-120553475D01*
X51127760Y-120670000D01*
X50953368Y-120786525D01*
X50746525Y-120993368D01*
X50584010Y-121236589D01*
X50472068Y-121506842D01*
X50415000Y-121793740D01*
X50415000Y-122086260D01*
X50472068Y-122373158D01*
X50584010Y-122643411D01*
X50746525Y-122886632D01*
X50953368Y-123093475D01*
X51135534Y-123215195D01*
X51018645Y-123284822D01*
X50802412Y-123479731D01*
X50628359Y-123713080D01*
X50503175Y-123975901D01*
X50458524Y-124123110D01*
X50579845Y-124353000D01*
X51773000Y-124353000D01*
X51773000Y-124333000D01*
X52027000Y-124333000D01*
X52027000Y-124353000D01*
X54313000Y-124353000D01*
X54313000Y-124333000D01*
X54567000Y-124333000D01*
X54567000Y-124353000D01*
X55766250Y-124353000D01*
X55925000Y-124194250D01*
X55928072Y-123630000D01*
X55915812Y-123505518D01*
X55879502Y-123385820D01*
X55820537Y-123275506D01*
X55741185Y-123178815D01*
X55644494Y-123099463D01*
X55534180Y-123040498D01*
X55461620Y-123018487D01*
X55505107Y-122975000D01*
X55861072Y-122975000D01*
X55911900Y-122980006D01*
X55962728Y-122975000D01*
X55962738Y-122975000D01*
X56114795Y-122960024D01*
X56309893Y-122900841D01*
X56489697Y-122804734D01*
X56647296Y-122675396D01*
X56679707Y-122635903D01*
X62166534Y-117149076D01*
X62221068Y-117251101D01*
X62400392Y-117469608D01*
X62618899Y-117648932D01*
X62751858Y-117720000D01*
X62618899Y-117791068D01*
X62400392Y-117970392D01*
X62221068Y-118188899D01*
X62087818Y-118438192D01*
X62005764Y-118708691D01*
X61978057Y-118990000D01*
X62005764Y-119271309D01*
X62087818Y-119541808D01*
X62221068Y-119791101D01*
X62400392Y-120009608D01*
X62618899Y-120188932D01*
X62751858Y-120260000D01*
X62618899Y-120331068D01*
X62400392Y-120510392D01*
X62221068Y-120728899D01*
X62087818Y-120978192D01*
X62005764Y-121248691D01*
X61978057Y-121530000D01*
X62005764Y-121811309D01*
X62087818Y-122081808D01*
X62221068Y-122331101D01*
X62400392Y-122549608D01*
X62618899Y-122728932D01*
X62751858Y-122800000D01*
X62618899Y-122871068D01*
X62400392Y-123050392D01*
X62221068Y-123268899D01*
X62087818Y-123518192D01*
X62005764Y-123788691D01*
X61978057Y-124070000D01*
X62005764Y-124351309D01*
X62087818Y-124621808D01*
X62221068Y-124871101D01*
X62400392Y-125089608D01*
X62618899Y-125268932D01*
X62751858Y-125340000D01*
X62618899Y-125411068D01*
X62400392Y-125590392D01*
X62221068Y-125808899D01*
X62087818Y-126058192D01*
X62005764Y-126328691D01*
X61978057Y-126610000D01*
X62005764Y-126891309D01*
X62087818Y-127161808D01*
X62221068Y-127411101D01*
X62400392Y-127629608D01*
X62618899Y-127808932D01*
X62751858Y-127880000D01*
X62618899Y-127951068D01*
X62400392Y-128130392D01*
X62221068Y-128348899D01*
X62087818Y-128598192D01*
X62005764Y-128868691D01*
X61978057Y-129150000D01*
X62005764Y-129431309D01*
X62087818Y-129701808D01*
X62221068Y-129951101D01*
X62400392Y-130169608D01*
X62618899Y-130348932D01*
X62751858Y-130420000D01*
X62618899Y-130491068D01*
X62419147Y-130655000D01*
X62070527Y-130655000D01*
X62019699Y-130649994D01*
X61968871Y-130655000D01*
X61968862Y-130655000D01*
X61816805Y-130669976D01*
X61621707Y-130729159D01*
X61441903Y-130825266D01*
X61284304Y-130954604D01*
X61251893Y-130994097D01*
X61174353Y-131071637D01*
X61054131Y-130991308D01*
X61081514Y-130976671D01*
X61153097Y-130732702D01*
X60340000Y-129919605D01*
X59526903Y-130732702D01*
X59598486Y-130976671D01*
X59627341Y-130990324D01*
X59425241Y-131125363D01*
X59225363Y-131325241D01*
X59068320Y-131560273D01*
X58960147Y-131821426D01*
X58905000Y-132098665D01*
X58905000Y-132381335D01*
X58960147Y-132658574D01*
X59068320Y-132919727D01*
X59225363Y-133154759D01*
X59425241Y-133354637D01*
X59660273Y-133511680D01*
X59761477Y-133553600D01*
X45373376Y-133553600D01*
X45543682Y-133483057D01*
X46106285Y-133107138D01*
X46584738Y-132628685D01*
X46960657Y-132066082D01*
X47219594Y-131440952D01*
X47351600Y-130777318D01*
X47351600Y-130100682D01*
X47293882Y-129810512D01*
X58899783Y-129810512D01*
X58941213Y-130090130D01*
X59036397Y-130356292D01*
X59103329Y-130481514D01*
X59347298Y-130553097D01*
X60160395Y-129740000D01*
X60519605Y-129740000D01*
X61332702Y-130553097D01*
X61576671Y-130481514D01*
X61697571Y-130226004D01*
X61766300Y-129951816D01*
X61780217Y-129669488D01*
X61738787Y-129389870D01*
X61643603Y-129123708D01*
X61576671Y-128998486D01*
X61332702Y-128926903D01*
X60519605Y-129740000D01*
X60160395Y-129740000D01*
X59347298Y-128926903D01*
X59103329Y-128998486D01*
X58982429Y-129253996D01*
X58913700Y-129528184D01*
X58899783Y-129810512D01*
X47293882Y-129810512D01*
X47219594Y-129437048D01*
X46960657Y-128811918D01*
X46917480Y-128747298D01*
X59526903Y-128747298D01*
X60340000Y-129560395D01*
X61153097Y-128747298D01*
X61081514Y-128503329D01*
X60826004Y-128382429D01*
X60551816Y-128313700D01*
X60269488Y-128299783D01*
X59989870Y-128341213D01*
X59723708Y-128436397D01*
X59598486Y-128503329D01*
X59526903Y-128747298D01*
X46917480Y-128747298D01*
X46584738Y-128249315D01*
X46106285Y-127770862D01*
X45543682Y-127394943D01*
X44918552Y-127136006D01*
X44254918Y-127004000D01*
X43578282Y-127004000D01*
X42914648Y-127136006D01*
X42289518Y-127394943D01*
X41726915Y-127770862D01*
X41248462Y-128249315D01*
X40913920Y-128749993D01*
X40913920Y-124836890D01*
X50458524Y-124836890D01*
X50503175Y-124984099D01*
X50628359Y-125246920D01*
X50802412Y-125480269D01*
X51018645Y-125675178D01*
X51268748Y-125824157D01*
X51543109Y-125921481D01*
X51773000Y-125800814D01*
X51773000Y-124607000D01*
X52027000Y-124607000D01*
X52027000Y-125800814D01*
X52256891Y-125921481D01*
X52531252Y-125824157D01*
X52781355Y-125675178D01*
X52977502Y-125498374D01*
X53000498Y-125574180D01*
X53059463Y-125684494D01*
X53138815Y-125781185D01*
X53235506Y-125860537D01*
X53345820Y-125919502D01*
X53465518Y-125955812D01*
X53590000Y-125968072D01*
X54154250Y-125965000D01*
X54313000Y-125806250D01*
X54313000Y-124607000D01*
X54567000Y-124607000D01*
X54567000Y-125806250D01*
X54725750Y-125965000D01*
X55290000Y-125968072D01*
X55414482Y-125955812D01*
X55534180Y-125919502D01*
X55644494Y-125860537D01*
X55741185Y-125781185D01*
X55820537Y-125684494D01*
X55879502Y-125574180D01*
X55915812Y-125454482D01*
X55928072Y-125330000D01*
X55925000Y-124765750D01*
X55766250Y-124607000D01*
X54567000Y-124607000D01*
X54313000Y-124607000D01*
X52027000Y-124607000D01*
X51773000Y-124607000D01*
X50579845Y-124607000D01*
X50458524Y-124836890D01*
X40913920Y-124836890D01*
X40913920Y-96183110D01*
X50458524Y-96183110D01*
X50579845Y-96413000D01*
X51773000Y-96413000D01*
X51773000Y-95219186D01*
X52027000Y-95219186D01*
X52027000Y-96413000D01*
X54313000Y-96413000D01*
X54313000Y-95219186D01*
X54567000Y-95219186D01*
X54567000Y-96413000D01*
X55760155Y-96413000D01*
X55881476Y-96183110D01*
X55836825Y-96035901D01*
X55711641Y-95773080D01*
X55537588Y-95539731D01*
X55321355Y-95344822D01*
X55071252Y-95195843D01*
X54796891Y-95098519D01*
X54567000Y-95219186D01*
X54313000Y-95219186D01*
X54083109Y-95098519D01*
X53808748Y-95195843D01*
X53558645Y-95344822D01*
X53342412Y-95539731D01*
X53170000Y-95770880D01*
X52997588Y-95539731D01*
X52781355Y-95344822D01*
X52531252Y-95195843D01*
X52256891Y-95098519D01*
X52027000Y-95219186D01*
X51773000Y-95219186D01*
X51543109Y-95098519D01*
X51268748Y-95195843D01*
X51018645Y-95344822D01*
X50802412Y-95539731D01*
X50628359Y-95773080D01*
X50503175Y-96035901D01*
X50458524Y-96183110D01*
X40913920Y-96183110D01*
X40913920Y-91808207D01*
X41248462Y-92308885D01*
X41726915Y-92787338D01*
X42289518Y-93163257D01*
X42914648Y-93422194D01*
X43578282Y-93554200D01*
X44254918Y-93554200D01*
X44918552Y-93422194D01*
X45543682Y-93163257D01*
X46106285Y-92787338D01*
X46584738Y-92308885D01*
X46960657Y-91746282D01*
X47219594Y-91121152D01*
X47351600Y-90457518D01*
X47351600Y-90442702D01*
X54090903Y-90442702D01*
X54162486Y-90686671D01*
X54417996Y-90807571D01*
X54692184Y-90876300D01*
X54974512Y-90890217D01*
X55254130Y-90848787D01*
X55520292Y-90753603D01*
X55645514Y-90686671D01*
X55717097Y-90442702D01*
X54904000Y-89629605D01*
X54090903Y-90442702D01*
X47351600Y-90442702D01*
X47351600Y-89780882D01*
X47299809Y-89520512D01*
X53463783Y-89520512D01*
X53505213Y-89800130D01*
X53600397Y-90066292D01*
X53667329Y-90191514D01*
X53911298Y-90263097D01*
X54724395Y-89450000D01*
X55083605Y-89450000D01*
X55896702Y-90263097D01*
X55965928Y-90242785D01*
X55965928Y-90250000D01*
X55978188Y-90374482D01*
X56014498Y-90494180D01*
X56073463Y-90604494D01*
X56152815Y-90701185D01*
X56249506Y-90780537D01*
X56359820Y-90839502D01*
X56479518Y-90875812D01*
X56604000Y-90888072D01*
X58204000Y-90888072D01*
X58328482Y-90875812D01*
X58448180Y-90839502D01*
X58558494Y-90780537D01*
X58655185Y-90701185D01*
X58734537Y-90604494D01*
X58793502Y-90494180D01*
X58829812Y-90374482D01*
X58842072Y-90250000D01*
X58842072Y-89308665D01*
X60805000Y-89308665D01*
X60805000Y-89591335D01*
X60860147Y-89868574D01*
X60968320Y-90129727D01*
X61125363Y-90364759D01*
X61325241Y-90564637D01*
X61560273Y-90721680D01*
X61821426Y-90829853D01*
X62098665Y-90885000D01*
X62381335Y-90885000D01*
X62658574Y-90829853D01*
X62919727Y-90721680D01*
X63154759Y-90564637D01*
X63354637Y-90364759D01*
X63511680Y-90129727D01*
X63619853Y-89868574D01*
X63675000Y-89591335D01*
X63675000Y-89308665D01*
X70965000Y-89308665D01*
X70965000Y-89591335D01*
X71020147Y-89868574D01*
X71128320Y-90129727D01*
X71285363Y-90364759D01*
X71485241Y-90564637D01*
X71720273Y-90721680D01*
X71981426Y-90829853D01*
X72258665Y-90885000D01*
X72541335Y-90885000D01*
X72818574Y-90829853D01*
X73079727Y-90721680D01*
X73314759Y-90564637D01*
X73514637Y-90364759D01*
X73618043Y-90210000D01*
X78182292Y-90210000D01*
X78148115Y-90273940D01*
X78081785Y-90492600D01*
X78059388Y-90720000D01*
X78081785Y-90947400D01*
X78148115Y-91166060D01*
X78255829Y-91367579D01*
X78400788Y-91544212D01*
X78415000Y-91555876D01*
X78415000Y-91794471D01*
X78409994Y-91845300D01*
X78415000Y-91896128D01*
X78415000Y-91896137D01*
X78429976Y-92048194D01*
X78489159Y-92243292D01*
X78585266Y-92423097D01*
X78714604Y-92580696D01*
X78754097Y-92613107D01*
X79930196Y-93789207D01*
X79962604Y-93828696D01*
X80002092Y-93861103D01*
X80120202Y-93958034D01*
X80300006Y-94054141D01*
X80334637Y-94064646D01*
X80495105Y-94113324D01*
X80647162Y-94128300D01*
X80647165Y-94128300D01*
X80698000Y-94133307D01*
X80748835Y-94128300D01*
X89292056Y-94128300D01*
X89295000Y-94357550D01*
X89453750Y-94516300D01*
X90553000Y-94516300D01*
X90553000Y-94496300D01*
X90807000Y-94496300D01*
X90807000Y-94516300D01*
X91906250Y-94516300D01*
X92065000Y-94357550D01*
X92067944Y-94128300D01*
X93853310Y-94128300D01*
X102615276Y-102890267D01*
X102647684Y-102929756D01*
X102805283Y-103059094D01*
X102985087Y-103155201D01*
X103180185Y-103214384D01*
X103332242Y-103229360D01*
X103332251Y-103229360D01*
X103383079Y-103234366D01*
X103433907Y-103229360D01*
X115415610Y-103229360D01*
X120230001Y-108043752D01*
X120230000Y-128169032D01*
X120190875Y-128195175D01*
X119995000Y-128391050D01*
X119799125Y-128195175D01*
X119523147Y-128010772D01*
X119216496Y-127883754D01*
X118890958Y-127819000D01*
X118559042Y-127819000D01*
X118233504Y-127883754D01*
X117926853Y-128010772D01*
X117650875Y-128195175D01*
X117455000Y-128391050D01*
X117259125Y-128195175D01*
X116983147Y-128010772D01*
X116676496Y-127883754D01*
X116350958Y-127819000D01*
X116019042Y-127819000D01*
X115693504Y-127883754D01*
X115386853Y-128010772D01*
X115233042Y-128113546D01*
X115225537Y-128099506D01*
X115146185Y-128002815D01*
X115049494Y-127923463D01*
X114939180Y-127864498D01*
X114819482Y-127828188D01*
X114695000Y-127815928D01*
X112595000Y-127815928D01*
X112470518Y-127828188D01*
X112350820Y-127864498D01*
X112240506Y-127923463D01*
X112143815Y-128002815D01*
X112064463Y-128099506D01*
X112005498Y-128209820D01*
X111969188Y-128329518D01*
X111956928Y-128454000D01*
X111956928Y-130554000D01*
X111969188Y-130678482D01*
X112005498Y-130798180D01*
X112064463Y-130908494D01*
X112143815Y-131005185D01*
X112240506Y-131084537D01*
X112350820Y-131143502D01*
X112470518Y-131179812D01*
X112595000Y-131192072D01*
X114695000Y-131192072D01*
X114819482Y-131179812D01*
X114939180Y-131143502D01*
X115049494Y-131084537D01*
X115146185Y-131005185D01*
X115225537Y-130908494D01*
X115233042Y-130894454D01*
X115386853Y-130997228D01*
X115693504Y-131124246D01*
X116019042Y-131189000D01*
X116350958Y-131189000D01*
X116676496Y-131124246D01*
X116983147Y-130997228D01*
X117259125Y-130812825D01*
X117455000Y-130616950D01*
X117650875Y-130812825D01*
X117926853Y-130997228D01*
X118233504Y-131124246D01*
X118559042Y-131189000D01*
X118890958Y-131189000D01*
X119216496Y-131124246D01*
X119523147Y-130997228D01*
X119799125Y-130812825D01*
X119995000Y-130616950D01*
X120190875Y-130812825D01*
X120466853Y-130997228D01*
X120773504Y-131124246D01*
X121099042Y-131189000D01*
X121430958Y-131189000D01*
X121756496Y-131124246D01*
X122063147Y-130997228D01*
X122339125Y-130812825D01*
X122573825Y-130578125D01*
X122758228Y-130302147D01*
X122885246Y-129995496D01*
X122950000Y-129669958D01*
X122950000Y-129338042D01*
X122885246Y-129012504D01*
X122758228Y-128705853D01*
X122589945Y-128454000D01*
X123726928Y-128454000D01*
X123726928Y-130554000D01*
X123739188Y-130678482D01*
X123775498Y-130798180D01*
X123834463Y-130908494D01*
X123913815Y-131005185D01*
X124010506Y-131084537D01*
X124120820Y-131143502D01*
X124240518Y-131179812D01*
X124365000Y-131192072D01*
X126465000Y-131192072D01*
X126589482Y-131179812D01*
X126709180Y-131143502D01*
X126819494Y-131084537D01*
X126916185Y-131005185D01*
X126995537Y-130908494D01*
X127028451Y-130846918D01*
X127065339Y-130944579D01*
X127363477Y-131090463D01*
X127684346Y-131175380D01*
X128015617Y-131196066D01*
X128344557Y-131151728D01*
X128658527Y-131044069D01*
X128844661Y-130944579D01*
X128946461Y-130675066D01*
X127955000Y-129683605D01*
X127940858Y-129697748D01*
X127761253Y-129518143D01*
X127775395Y-129504000D01*
X128134605Y-129504000D01*
X129126066Y-130495461D01*
X129129958Y-130493991D01*
X129186175Y-130578125D01*
X129420875Y-130812825D01*
X129696853Y-130997228D01*
X130003504Y-131124246D01*
X130329042Y-131189000D01*
X130660958Y-131189000D01*
X130986496Y-131124246D01*
X131293147Y-130997228D01*
X131569125Y-130812825D01*
X131803825Y-130578125D01*
X131988228Y-130302147D01*
X132115246Y-129995496D01*
X132180000Y-129669958D01*
X132180000Y-129338042D01*
X132115246Y-129012504D01*
X131988228Y-128705853D01*
X131803825Y-128429875D01*
X131569125Y-128195175D01*
X131293147Y-128010772D01*
X130986496Y-127883754D01*
X130660958Y-127819000D01*
X130329042Y-127819000D01*
X130003504Y-127883754D01*
X129696853Y-128010772D01*
X129420875Y-128195175D01*
X129186175Y-128429875D01*
X129129958Y-128514009D01*
X129126066Y-128512539D01*
X128134605Y-129504000D01*
X127775395Y-129504000D01*
X127761253Y-129489858D01*
X127940858Y-129310253D01*
X127955000Y-129324395D01*
X128946461Y-128332934D01*
X128844661Y-128063421D01*
X128546523Y-127917537D01*
X128225654Y-127832620D01*
X127894383Y-127811934D01*
X127565443Y-127856272D01*
X127251473Y-127963931D01*
X127065339Y-128063421D01*
X127028451Y-128161082D01*
X126995537Y-128099506D01*
X126916185Y-128002815D01*
X126819494Y-127923463D01*
X126709180Y-127864498D01*
X126589482Y-127828188D01*
X126465000Y-127815928D01*
X124365000Y-127815928D01*
X124240518Y-127828188D01*
X124120820Y-127864498D01*
X124010506Y-127923463D01*
X123913815Y-128002815D01*
X123834463Y-128099506D01*
X123775498Y-128209820D01*
X123739188Y-128329518D01*
X123726928Y-128454000D01*
X122589945Y-128454000D01*
X122573825Y-128429875D01*
X122339125Y-128195175D01*
X122300000Y-128169032D01*
X122300000Y-119565520D01*
X133786448Y-119565520D01*
X133786448Y-121165520D01*
X133798708Y-121290002D01*
X133835018Y-121409700D01*
X133893983Y-121520014D01*
X133973335Y-121616705D01*
X134070026Y-121696057D01*
X134180340Y-121755022D01*
X134300038Y-121791332D01*
X134424520Y-121803592D01*
X136024520Y-121803592D01*
X136149002Y-121791332D01*
X136268700Y-121755022D01*
X136379014Y-121696057D01*
X136475705Y-121616705D01*
X136555057Y-121520014D01*
X136614022Y-121409700D01*
X136629637Y-121358222D01*
X136911423Y-121358222D01*
X136983006Y-121602191D01*
X137238516Y-121723091D01*
X137512704Y-121791820D01*
X137795032Y-121805737D01*
X138074650Y-121764307D01*
X138340812Y-121669123D01*
X138466034Y-121602191D01*
X138537617Y-121358222D01*
X137724520Y-120545125D01*
X136911423Y-121358222D01*
X136629637Y-121358222D01*
X136650332Y-121290002D01*
X136662592Y-121165520D01*
X136662592Y-121158305D01*
X136731818Y-121178617D01*
X137544915Y-120365520D01*
X137904125Y-120365520D01*
X138717222Y-121178617D01*
X138961191Y-121107034D01*
X139082091Y-120851524D01*
X139150820Y-120577336D01*
X139164737Y-120295008D01*
X139123307Y-120015390D01*
X139028123Y-119749228D01*
X138961191Y-119624006D01*
X138717222Y-119552423D01*
X137904125Y-120365520D01*
X137544915Y-120365520D01*
X136731818Y-119552423D01*
X136662592Y-119572735D01*
X136662592Y-119565520D01*
X136650332Y-119441038D01*
X136629638Y-119372818D01*
X136911423Y-119372818D01*
X137724520Y-120185915D01*
X138537617Y-119372818D01*
X138466034Y-119128849D01*
X138210524Y-119007949D01*
X137936336Y-118939220D01*
X137654008Y-118925303D01*
X137374390Y-118966733D01*
X137108228Y-119061917D01*
X136983006Y-119128849D01*
X136911423Y-119372818D01*
X136629638Y-119372818D01*
X136614022Y-119321340D01*
X136555057Y-119211026D01*
X136475705Y-119114335D01*
X136379014Y-119034983D01*
X136268700Y-118976018D01*
X136149002Y-118939708D01*
X136024520Y-118927448D01*
X134424520Y-118927448D01*
X134300038Y-118939708D01*
X134180340Y-118976018D01*
X134070026Y-119034983D01*
X133973335Y-119114335D01*
X133893983Y-119211026D01*
X133835018Y-119321340D01*
X133798708Y-119441038D01*
X133786448Y-119565520D01*
X122300000Y-119565520D01*
X122300000Y-111526000D01*
X134877319Y-111526000D01*
X134907970Y-111837204D01*
X134998745Y-112136449D01*
X135146155Y-112412235D01*
X135344537Y-112653963D01*
X135586265Y-112852345D01*
X135862051Y-112999755D01*
X136161296Y-113090530D01*
X136394514Y-113113500D01*
X136645486Y-113113500D01*
X136878704Y-113090530D01*
X137177949Y-112999755D01*
X137453735Y-112852345D01*
X137695463Y-112653963D01*
X137893845Y-112412235D01*
X138041255Y-112136449D01*
X138132030Y-111837204D01*
X138162681Y-111526000D01*
X138132030Y-111214796D01*
X138041255Y-110915551D01*
X137893845Y-110639765D01*
X137695463Y-110398037D01*
X137516101Y-110250837D01*
X137701315Y-110095437D01*
X137895969Y-109852923D01*
X138039571Y-109577094D01*
X138110563Y-109358980D01*
X137990594Y-109113000D01*
X136647000Y-109113000D01*
X136647000Y-109133000D01*
X136393000Y-109133000D01*
X136393000Y-109113000D01*
X135049406Y-109113000D01*
X134929437Y-109358980D01*
X135000429Y-109577094D01*
X135144031Y-109852923D01*
X135338685Y-110095437D01*
X135523899Y-110250837D01*
X135344537Y-110398037D01*
X135146155Y-110639765D01*
X134998745Y-110915551D01*
X134907970Y-111214796D01*
X134877319Y-111526000D01*
X122300000Y-111526000D01*
X122300000Y-109954702D01*
X132465903Y-109954702D01*
X132537486Y-110198671D01*
X132792996Y-110319571D01*
X133067184Y-110388300D01*
X133349512Y-110402217D01*
X133629130Y-110360787D01*
X133895292Y-110265603D01*
X134020514Y-110198671D01*
X134092097Y-109954702D01*
X133279000Y-109141605D01*
X132465903Y-109954702D01*
X122300000Y-109954702D01*
X122300000Y-109032512D01*
X131838783Y-109032512D01*
X131880213Y-109312130D01*
X131975397Y-109578292D01*
X132042329Y-109703514D01*
X132286298Y-109775097D01*
X133099395Y-108962000D01*
X133458605Y-108962000D01*
X134271702Y-109775097D01*
X134515671Y-109703514D01*
X134636571Y-109448004D01*
X134705300Y-109173816D01*
X134719217Y-108891488D01*
X134677787Y-108611870D01*
X134582603Y-108345708D01*
X134515671Y-108220486D01*
X134271702Y-108148903D01*
X133458605Y-108962000D01*
X133099395Y-108962000D01*
X132286298Y-108148903D01*
X132042329Y-108220486D01*
X131921429Y-108475996D01*
X131852700Y-108750184D01*
X131838783Y-109032512D01*
X122300000Y-109032512D01*
X122300000Y-107665867D01*
X122305006Y-107615039D01*
X122300000Y-107564211D01*
X122300000Y-107564202D01*
X122285024Y-107412145D01*
X122225841Y-107217047D01*
X122159327Y-107092608D01*
X122129734Y-107037242D01*
X122032803Y-106919132D01*
X122000396Y-106879644D01*
X121960908Y-106847237D01*
X121434336Y-106320665D01*
X131844000Y-106320665D01*
X131844000Y-106603335D01*
X131899147Y-106880574D01*
X132007320Y-107141727D01*
X132164363Y-107376759D01*
X132364241Y-107576637D01*
X132564869Y-107710692D01*
X132537486Y-107725329D01*
X132465903Y-107969298D01*
X133279000Y-108782395D01*
X134092097Y-107969298D01*
X134020514Y-107725329D01*
X133991659Y-107711676D01*
X134193759Y-107576637D01*
X134273396Y-107497000D01*
X134852872Y-107497000D01*
X134892009Y-107500855D01*
X134894188Y-107522982D01*
X134930498Y-107642680D01*
X134989463Y-107752994D01*
X135068815Y-107849685D01*
X135165506Y-107929037D01*
X135257219Y-107978059D01*
X135144031Y-108119077D01*
X135000429Y-108394906D01*
X134929437Y-108613020D01*
X135049406Y-108859000D01*
X136393000Y-108859000D01*
X136393000Y-108839000D01*
X136647000Y-108839000D01*
X136647000Y-108859000D01*
X137990594Y-108859000D01*
X138110563Y-108613020D01*
X138039571Y-108394906D01*
X137895969Y-108119077D01*
X137782781Y-107978059D01*
X137874494Y-107929037D01*
X137971185Y-107849685D01*
X138050537Y-107752994D01*
X138109502Y-107642680D01*
X138145812Y-107522982D01*
X138158072Y-107398500D01*
X138158072Y-105493500D01*
X138145812Y-105369018D01*
X138109502Y-105249320D01*
X138050537Y-105139006D01*
X137971185Y-105042315D01*
X137874494Y-104962963D01*
X137764180Y-104903998D01*
X137644482Y-104867688D01*
X137520000Y-104855428D01*
X135520000Y-104855428D01*
X135395518Y-104867688D01*
X135275820Y-104903998D01*
X135165506Y-104962963D01*
X135068815Y-105042315D01*
X134989463Y-105139006D01*
X134930498Y-105249320D01*
X134894188Y-105369018D01*
X134890261Y-105408893D01*
X134868871Y-105411000D01*
X134868862Y-105411000D01*
X134716805Y-105425976D01*
X134713429Y-105427000D01*
X134273396Y-105427000D01*
X134193759Y-105347363D01*
X133958727Y-105190320D01*
X133697574Y-105082147D01*
X133420335Y-105027000D01*
X133137665Y-105027000D01*
X132860426Y-105082147D01*
X132599273Y-105190320D01*
X132364241Y-105347363D01*
X132164363Y-105547241D01*
X132007320Y-105782273D01*
X131899147Y-106043426D01*
X131844000Y-106320665D01*
X121434336Y-106320665D01*
X116612127Y-101498457D01*
X116579716Y-101458964D01*
X116422117Y-101329626D01*
X116242313Y-101233519D01*
X116047215Y-101174336D01*
X115895158Y-101159360D01*
X115895148Y-101159360D01*
X115844320Y-101154354D01*
X115793492Y-101159360D01*
X103811791Y-101159360D01*
X95049827Y-92397397D01*
X95017416Y-92357904D01*
X94859817Y-92228566D01*
X94680013Y-92132459D01*
X94484915Y-92073276D01*
X94332858Y-92058300D01*
X94332848Y-92058300D01*
X94282020Y-92053294D01*
X94231192Y-92058300D01*
X87849383Y-92058300D01*
X87871514Y-92046471D01*
X87943097Y-91802502D01*
X87130000Y-90989405D01*
X86316903Y-91802502D01*
X86388486Y-92046471D01*
X86413485Y-92058300D01*
X81126711Y-92058300D01*
X80550332Y-91481922D01*
X80644171Y-91367579D01*
X80751885Y-91166060D01*
X80818215Y-90947400D01*
X80824822Y-90880312D01*
X85689783Y-90880312D01*
X85731213Y-91159930D01*
X85826397Y-91426092D01*
X85893329Y-91551314D01*
X86137298Y-91622897D01*
X86950395Y-90809800D01*
X87309605Y-90809800D01*
X88122702Y-91622897D01*
X88366671Y-91551314D01*
X88487571Y-91295804D01*
X88556300Y-91021616D01*
X88570217Y-90739288D01*
X88528787Y-90459670D01*
X88433603Y-90193508D01*
X88366671Y-90068286D01*
X88122702Y-89996703D01*
X87309605Y-90809800D01*
X86950395Y-90809800D01*
X86137298Y-89996703D01*
X85893329Y-90068286D01*
X85772429Y-90323796D01*
X85703700Y-90597984D01*
X85689783Y-90880312D01*
X80824822Y-90880312D01*
X80840612Y-90720000D01*
X80818215Y-90492600D01*
X80751885Y-90273940D01*
X80650895Y-90085000D01*
X80751885Y-89896060D01*
X80818215Y-89677400D01*
X80840612Y-89450000D01*
X80818215Y-89222600D01*
X80754907Y-89013902D01*
X80789502Y-88949180D01*
X80825812Y-88829482D01*
X80838072Y-88705000D01*
X80835000Y-88465750D01*
X80676250Y-88307000D01*
X79903109Y-88307000D01*
X79902400Y-88306785D01*
X79731979Y-88290000D01*
X79168021Y-88290000D01*
X78997600Y-88306785D01*
X78996891Y-88307000D01*
X78223750Y-88307000D01*
X78065000Y-88465750D01*
X78062121Y-88690000D01*
X73618043Y-88690000D01*
X73514637Y-88535241D01*
X73314759Y-88335363D01*
X73079727Y-88178320D01*
X72818574Y-88070147D01*
X72541335Y-88015000D01*
X72258665Y-88015000D01*
X71981426Y-88070147D01*
X71720273Y-88178320D01*
X71485241Y-88335363D01*
X71285363Y-88535241D01*
X71128320Y-88770273D01*
X71020147Y-89031426D01*
X70965000Y-89308665D01*
X63675000Y-89308665D01*
X63619853Y-89031426D01*
X63511680Y-88770273D01*
X63354637Y-88535241D01*
X63154759Y-88335363D01*
X62919727Y-88178320D01*
X62658574Y-88070147D01*
X62381335Y-88015000D01*
X62098665Y-88015000D01*
X61821426Y-88070147D01*
X61560273Y-88178320D01*
X61325241Y-88335363D01*
X61125363Y-88535241D01*
X60968320Y-88770273D01*
X60860147Y-89031426D01*
X60805000Y-89308665D01*
X58842072Y-89308665D01*
X58842072Y-88650000D01*
X58829812Y-88525518D01*
X58793502Y-88405820D01*
X58734537Y-88295506D01*
X58655185Y-88198815D01*
X58558494Y-88119463D01*
X58448180Y-88060498D01*
X58328482Y-88024188D01*
X58204000Y-88011928D01*
X56604000Y-88011928D01*
X56479518Y-88024188D01*
X56359820Y-88060498D01*
X56249506Y-88119463D01*
X56152815Y-88198815D01*
X56073463Y-88295506D01*
X56014498Y-88405820D01*
X55978188Y-88525518D01*
X55965928Y-88650000D01*
X55965928Y-88657215D01*
X55896702Y-88636903D01*
X55083605Y-89450000D01*
X54724395Y-89450000D01*
X53911298Y-88636903D01*
X53667329Y-88708486D01*
X53546429Y-88963996D01*
X53477700Y-89238184D01*
X53463783Y-89520512D01*
X47299809Y-89520512D01*
X47219594Y-89117248D01*
X46960657Y-88492118D01*
X46937392Y-88457298D01*
X54090903Y-88457298D01*
X54904000Y-89270395D01*
X55717097Y-88457298D01*
X55645514Y-88213329D01*
X55390004Y-88092429D01*
X55115816Y-88023700D01*
X54833488Y-88009783D01*
X54553870Y-88051213D01*
X54287708Y-88146397D01*
X54162486Y-88213329D01*
X54090903Y-88457298D01*
X46937392Y-88457298D01*
X46584738Y-87929515D01*
X46106285Y-87451062D01*
X45543682Y-87075143D01*
X45485427Y-87051013D01*
X78492472Y-87054380D01*
G37*
%TD.AperFunction*%
D33*
X69205298Y-108978400D02*
X67889327Y-108978400D01*
X67838499Y-108973394D01*
X67787671Y-108978400D01*
X67787662Y-108978400D01*
X67635605Y-108993376D01*
X67440507Y-109052559D01*
X67260703Y-109148666D01*
X67103104Y-109278004D01*
X67070697Y-109317492D01*
X63663862Y-112724327D01*
X63675000Y-112668335D01*
X63675000Y-112385665D01*
X63619853Y-112108426D01*
X63511680Y-111847273D01*
X63354637Y-111612241D01*
X63154759Y-111412363D01*
X62919727Y-111255320D01*
X62658574Y-111147147D01*
X62381335Y-111092000D01*
X62098665Y-111092000D01*
X61821426Y-111147147D01*
X61560273Y-111255320D01*
X61325241Y-111412363D01*
X61125363Y-111612241D01*
X60968320Y-111847273D01*
X60860147Y-112108426D01*
X60805000Y-112385665D01*
X60805000Y-112668335D01*
X60860147Y-112945574D01*
X60968320Y-113206727D01*
X61125363Y-113441759D01*
X61325241Y-113641637D01*
X61560273Y-113798680D01*
X61821426Y-113906853D01*
X62098665Y-113962000D01*
X62381335Y-113962000D01*
X62437327Y-113950862D01*
X55494148Y-120894041D01*
X55386632Y-120786525D01*
X55212240Y-120670000D01*
X55386632Y-120553475D01*
X55593475Y-120346632D01*
X55755990Y-120103411D01*
X55867932Y-119833158D01*
X55925000Y-119546260D01*
X55925000Y-119253740D01*
X55867932Y-118966842D01*
X55755990Y-118696589D01*
X55593475Y-118453368D01*
X55386632Y-118246525D01*
X55212240Y-118130000D01*
X55386632Y-118013475D01*
X55593475Y-117806632D01*
X55755990Y-117563411D01*
X55867932Y-117293158D01*
X55925000Y-117006260D01*
X55925000Y-116713740D01*
X55867932Y-116426842D01*
X55755990Y-116156589D01*
X55593475Y-115913368D01*
X55386632Y-115706525D01*
X55212240Y-115590000D01*
X55386632Y-115473475D01*
X55593475Y-115266632D01*
X55755990Y-115023411D01*
X55867932Y-114753158D01*
X55925000Y-114466260D01*
X55925000Y-114173740D01*
X55867932Y-113886842D01*
X55755990Y-113616589D01*
X55593475Y-113373368D01*
X55386632Y-113166525D01*
X55212240Y-113050000D01*
X55386632Y-112933475D01*
X55593475Y-112726632D01*
X55755990Y-112483411D01*
X55867932Y-112213158D01*
X55925000Y-111926260D01*
X55925000Y-111633740D01*
X55867932Y-111346842D01*
X55755990Y-111076589D01*
X55593475Y-110833368D01*
X55386632Y-110626525D01*
X55212240Y-110510000D01*
X55386632Y-110393475D01*
X55593475Y-110186632D01*
X55755990Y-109943411D01*
X55867932Y-109673158D01*
X55925000Y-109386260D01*
X55925000Y-109093740D01*
X55867932Y-108806842D01*
X55832027Y-108720160D01*
X58970198Y-108720160D01*
X58960147Y-108744426D01*
X58905000Y-109021665D01*
X58905000Y-109304335D01*
X58960147Y-109581574D01*
X59068320Y-109842727D01*
X59225363Y-110077759D01*
X59425241Y-110277637D01*
X59660273Y-110434680D01*
X59921426Y-110542853D01*
X60198665Y-110598000D01*
X60481335Y-110598000D01*
X60758574Y-110542853D01*
X61019727Y-110434680D01*
X61254759Y-110277637D01*
X61454637Y-110077759D01*
X61611680Y-109842727D01*
X61719853Y-109581574D01*
X61775000Y-109304335D01*
X61775000Y-109021665D01*
X61719853Y-108744426D01*
X61708793Y-108717725D01*
X61795726Y-108709163D01*
X61938987Y-108665706D01*
X61981035Y-108643231D01*
X62005764Y-108894309D01*
X62087818Y-109164808D01*
X62221068Y-109414101D01*
X62400392Y-109632608D01*
X62618899Y-109811932D01*
X62868192Y-109945182D01*
X63138691Y-110027236D01*
X63349508Y-110048000D01*
X64290492Y-110048000D01*
X64501309Y-110027236D01*
X64771808Y-109945182D01*
X65021101Y-109811932D01*
X65239608Y-109632608D01*
X65418932Y-109414101D01*
X65552182Y-109164808D01*
X65634236Y-108894309D01*
X65661943Y-108613000D01*
X65634236Y-108331691D01*
X65565616Y-108105480D01*
X68332379Y-108105480D01*
X69205298Y-108978400D01*
%TA.AperFunction,Conductor*%
D34*
G36*
X69205298Y-108978400D02*
G01*
X67889327Y-108978400D01*
X67838499Y-108973394D01*
X67787671Y-108978400D01*
X67787662Y-108978400D01*
X67635605Y-108993376D01*
X67440507Y-109052559D01*
X67260703Y-109148666D01*
X67103104Y-109278004D01*
X67070697Y-109317492D01*
X63663862Y-112724327D01*
X63675000Y-112668335D01*
X63675000Y-112385665D01*
X63619853Y-112108426D01*
X63511680Y-111847273D01*
X63354637Y-111612241D01*
X63154759Y-111412363D01*
X62919727Y-111255320D01*
X62658574Y-111147147D01*
X62381335Y-111092000D01*
X62098665Y-111092000D01*
X61821426Y-111147147D01*
X61560273Y-111255320D01*
X61325241Y-111412363D01*
X61125363Y-111612241D01*
X60968320Y-111847273D01*
X60860147Y-112108426D01*
X60805000Y-112385665D01*
X60805000Y-112668335D01*
X60860147Y-112945574D01*
X60968320Y-113206727D01*
X61125363Y-113441759D01*
X61325241Y-113641637D01*
X61560273Y-113798680D01*
X61821426Y-113906853D01*
X62098665Y-113962000D01*
X62381335Y-113962000D01*
X62437327Y-113950862D01*
X55494148Y-120894041D01*
X55386632Y-120786525D01*
X55212240Y-120670000D01*
X55386632Y-120553475D01*
X55593475Y-120346632D01*
X55755990Y-120103411D01*
X55867932Y-119833158D01*
X55925000Y-119546260D01*
X55925000Y-119253740D01*
X55867932Y-118966842D01*
X55755990Y-118696589D01*
X55593475Y-118453368D01*
X55386632Y-118246525D01*
X55212240Y-118130000D01*
X55386632Y-118013475D01*
X55593475Y-117806632D01*
X55755990Y-117563411D01*
X55867932Y-117293158D01*
X55925000Y-117006260D01*
X55925000Y-116713740D01*
X55867932Y-116426842D01*
X55755990Y-116156589D01*
X55593475Y-115913368D01*
X55386632Y-115706525D01*
X55212240Y-115590000D01*
X55386632Y-115473475D01*
X55593475Y-115266632D01*
X55755990Y-115023411D01*
X55867932Y-114753158D01*
X55925000Y-114466260D01*
X55925000Y-114173740D01*
X55867932Y-113886842D01*
X55755990Y-113616589D01*
X55593475Y-113373368D01*
X55386632Y-113166525D01*
X55212240Y-113050000D01*
X55386632Y-112933475D01*
X55593475Y-112726632D01*
X55755990Y-112483411D01*
X55867932Y-112213158D01*
X55925000Y-111926260D01*
X55925000Y-111633740D01*
X55867932Y-111346842D01*
X55755990Y-111076589D01*
X55593475Y-110833368D01*
X55386632Y-110626525D01*
X55212240Y-110510000D01*
X55386632Y-110393475D01*
X55593475Y-110186632D01*
X55755990Y-109943411D01*
X55867932Y-109673158D01*
X55925000Y-109386260D01*
X55925000Y-109093740D01*
X55867932Y-108806842D01*
X55832027Y-108720160D01*
X58970198Y-108720160D01*
X58960147Y-108744426D01*
X58905000Y-109021665D01*
X58905000Y-109304335D01*
X58960147Y-109581574D01*
X59068320Y-109842727D01*
X59225363Y-110077759D01*
X59425241Y-110277637D01*
X59660273Y-110434680D01*
X59921426Y-110542853D01*
X60198665Y-110598000D01*
X60481335Y-110598000D01*
X60758574Y-110542853D01*
X61019727Y-110434680D01*
X61254759Y-110277637D01*
X61454637Y-110077759D01*
X61611680Y-109842727D01*
X61719853Y-109581574D01*
X61775000Y-109304335D01*
X61775000Y-109021665D01*
X61719853Y-108744426D01*
X61708793Y-108717725D01*
X61795726Y-108709163D01*
X61938987Y-108665706D01*
X61981035Y-108643231D01*
X62005764Y-108894309D01*
X62087818Y-109164808D01*
X62221068Y-109414101D01*
X62400392Y-109632608D01*
X62618899Y-109811932D01*
X62868192Y-109945182D01*
X63138691Y-110027236D01*
X63349508Y-110048000D01*
X64290492Y-110048000D01*
X64501309Y-110027236D01*
X64771808Y-109945182D01*
X65021101Y-109811932D01*
X65239608Y-109632608D01*
X65418932Y-109414101D01*
X65552182Y-109164808D01*
X65634236Y-108894309D01*
X65661943Y-108613000D01*
X65634236Y-108331691D01*
X65565616Y-108105480D01*
X68332379Y-108105480D01*
X69205298Y-108978400D01*
G37*
%TD.AperFunction*%
D33*
X70020392Y-104552608D02*
X70238899Y-104731932D01*
X70371858Y-104803000D01*
X70238899Y-104874068D01*
X70020392Y-105053392D01*
X69841068Y-105271899D01*
X69707818Y-105521192D01*
X69625764Y-105791691D01*
X69598057Y-106073000D01*
X69625764Y-106354309D01*
X69707818Y-106624808D01*
X69841068Y-106874101D01*
X70020392Y-107092608D01*
X70133482Y-107185419D01*
X70115518Y-107187188D01*
X69995820Y-107223498D01*
X69885506Y-107282463D01*
X69788815Y-107361815D01*
X69766053Y-107389551D01*
X69210984Y-106834483D01*
X69187181Y-106805479D01*
X69071456Y-106710506D01*
X68939427Y-106639934D01*
X68796166Y-106596477D01*
X68684513Y-106585480D01*
X68684502Y-106585480D01*
X68647180Y-106581804D01*
X68609858Y-106585480D01*
X65564112Y-106585480D01*
X65634236Y-106354309D01*
X65661943Y-106073000D01*
X65634236Y-105791691D01*
X65565616Y-105565480D01*
X68604898Y-105565480D01*
X68642220Y-105569156D01*
X68679542Y-105565480D01*
X68679553Y-105565480D01*
X68791206Y-105554483D01*
X68934467Y-105511026D01*
X69066496Y-105440454D01*
X69182221Y-105345481D01*
X69206023Y-105316478D01*
X69997630Y-104524872D01*
X70020392Y-104552608D01*
%TA.AperFunction,Conductor*%
D34*
G36*
X70020392Y-104552608D02*
G01*
X70238899Y-104731932D01*
X70371858Y-104803000D01*
X70238899Y-104874068D01*
X70020392Y-105053392D01*
X69841068Y-105271899D01*
X69707818Y-105521192D01*
X69625764Y-105791691D01*
X69598057Y-106073000D01*
X69625764Y-106354309D01*
X69707818Y-106624808D01*
X69841068Y-106874101D01*
X70020392Y-107092608D01*
X70133482Y-107185419D01*
X70115518Y-107187188D01*
X69995820Y-107223498D01*
X69885506Y-107282463D01*
X69788815Y-107361815D01*
X69766053Y-107389551D01*
X69210984Y-106834483D01*
X69187181Y-106805479D01*
X69071456Y-106710506D01*
X68939427Y-106639934D01*
X68796166Y-106596477D01*
X68684513Y-106585480D01*
X68684502Y-106585480D01*
X68647180Y-106581804D01*
X68609858Y-106585480D01*
X65564112Y-106585480D01*
X65634236Y-106354309D01*
X65661943Y-106073000D01*
X65634236Y-105791691D01*
X65565616Y-105565480D01*
X68604898Y-105565480D01*
X68642220Y-105569156D01*
X68679542Y-105565480D01*
X68679553Y-105565480D01*
X68791206Y-105554483D01*
X68934467Y-105511026D01*
X69066496Y-105440454D01*
X69182221Y-105345481D01*
X69206023Y-105316478D01*
X69997630Y-104524872D01*
X70020392Y-104552608D01*
G37*
%TD.AperFunction*%
D33*
X58913700Y-106451184D02*
X58899783Y-106733512D01*
X58941213Y-107013130D01*
X59008098Y-107200160D01*
X55840179Y-107200160D01*
X55867932Y-107133158D01*
X55925000Y-106846260D01*
X55925000Y-106553740D01*
X55867932Y-106266842D01*
X55832027Y-106180160D01*
X58981636Y-106180160D01*
X58913700Y-106451184D01*
%TA.AperFunction,Conductor*%
D34*
G36*
X58913700Y-106451184D02*
G01*
X58899783Y-106733512D01*
X58941213Y-107013130D01*
X59008098Y-107200160D01*
X55840179Y-107200160D01*
X55867932Y-107133158D01*
X55925000Y-106846260D01*
X55925000Y-106553740D01*
X55867932Y-106266842D01*
X55832027Y-106180160D01*
X58981636Y-106180160D01*
X58913700Y-106451184D01*
G37*
%TD.AperFunction*%
D33*
X60533748Y-106648858D02*
X60519605Y-106663000D01*
X60533748Y-106677143D01*
X60354143Y-106856748D01*
X60340000Y-106842605D01*
X60325858Y-106856748D01*
X60146253Y-106677143D01*
X60160395Y-106663000D01*
X60146253Y-106648858D01*
X60325858Y-106469253D01*
X60340000Y-106483395D01*
X60354143Y-106469253D01*
X60533748Y-106648858D01*
%TA.AperFunction,Conductor*%
D34*
G36*
X60533748Y-106648858D02*
G01*
X60519605Y-106663000D01*
X60533748Y-106677143D01*
X60354143Y-106856748D01*
X60340000Y-106842605D01*
X60325858Y-106856748D01*
X60146253Y-106677143D01*
X60160395Y-106663000D01*
X60146253Y-106648858D01*
X60325858Y-106469253D01*
X60340000Y-106483395D01*
X60354143Y-106469253D01*
X60533748Y-106648858D01*
G37*
%TD.AperFunction*%
D33*
X62005764Y-103814309D02*
X62087818Y-104084808D01*
X62221068Y-104334101D01*
X62221081Y-104334117D01*
X61895039Y-104660160D01*
X55840179Y-104660160D01*
X55867932Y-104593158D01*
X55925000Y-104306260D01*
X55925000Y-104013740D01*
X55867932Y-103726842D01*
X55827819Y-103630000D01*
X61987611Y-103630000D01*
X62005764Y-103814309D01*
%TA.AperFunction,Conductor*%
D34*
G36*
X62005764Y-103814309D02*
G01*
X62087818Y-104084808D01*
X62221068Y-104334101D01*
X62221081Y-104334117D01*
X61895039Y-104660160D01*
X55840179Y-104660160D01*
X55867932Y-104593158D01*
X55925000Y-104306260D01*
X55925000Y-104013740D01*
X55867932Y-103726842D01*
X55827819Y-103630000D01*
X61987611Y-103630000D01*
X62005764Y-103814309D01*
G37*
%TD.AperFunction*%
D33*
X70020392Y-99472608D02*
X70238899Y-99651932D01*
X70371858Y-99723000D01*
X70238899Y-99794068D01*
X70020392Y-99973392D01*
X69841068Y-100191899D01*
X69707818Y-100441192D01*
X69625764Y-100711691D01*
X69598057Y-100993000D01*
X69625764Y-101274309D01*
X69707818Y-101544808D01*
X69841068Y-101794101D01*
X70020392Y-102012608D01*
X70238899Y-102191932D01*
X70371858Y-102263000D01*
X70238899Y-102334068D01*
X70020392Y-102513392D01*
X69841068Y-102731899D01*
X69815861Y-102779058D01*
X69765714Y-102783997D01*
X69622453Y-102827454D01*
X69490424Y-102898026D01*
X69490422Y-102898027D01*
X69490423Y-102898027D01*
X69403696Y-102969201D01*
X69403692Y-102969205D01*
X69374699Y-102992999D01*
X69350905Y-103021992D01*
X68327419Y-104045480D01*
X65564112Y-104045480D01*
X65634236Y-103814309D01*
X65661943Y-103533000D01*
X65634236Y-103251691D01*
X65554830Y-102989920D01*
X66100458Y-102989920D01*
X66137780Y-102993596D01*
X66175102Y-102989920D01*
X66175113Y-102989920D01*
X66286766Y-102978923D01*
X66430027Y-102935466D01*
X66562056Y-102864894D01*
X66677781Y-102769921D01*
X66701584Y-102740917D01*
X69997630Y-99444873D01*
X70020392Y-99472608D01*
%TA.AperFunction,Conductor*%
D34*
G36*
X70020392Y-99472608D02*
G01*
X70238899Y-99651932D01*
X70371858Y-99723000D01*
X70238899Y-99794068D01*
X70020392Y-99973392D01*
X69841068Y-100191899D01*
X69707818Y-100441192D01*
X69625764Y-100711691D01*
X69598057Y-100993000D01*
X69625764Y-101274309D01*
X69707818Y-101544808D01*
X69841068Y-101794101D01*
X70020392Y-102012608D01*
X70238899Y-102191932D01*
X70371858Y-102263000D01*
X70238899Y-102334068D01*
X70020392Y-102513392D01*
X69841068Y-102731899D01*
X69815861Y-102779058D01*
X69765714Y-102783997D01*
X69622453Y-102827454D01*
X69490424Y-102898026D01*
X69490422Y-102898027D01*
X69490423Y-102898027D01*
X69403696Y-102969201D01*
X69403692Y-102969205D01*
X69374699Y-102992999D01*
X69350905Y-103021992D01*
X68327419Y-104045480D01*
X65564112Y-104045480D01*
X65634236Y-103814309D01*
X65661943Y-103533000D01*
X65634236Y-103251691D01*
X65554830Y-102989920D01*
X66100458Y-102989920D01*
X66137780Y-102993596D01*
X66175102Y-102989920D01*
X66175113Y-102989920D01*
X66286766Y-102978923D01*
X66430027Y-102935466D01*
X66562056Y-102864894D01*
X66677781Y-102769921D01*
X66701584Y-102740917D01*
X69997630Y-99444873D01*
X70020392Y-99472608D01*
G37*
%TD.AperFunction*%
D33*
X62400392Y-96932608D02*
X62618899Y-97111932D01*
X62751858Y-97183000D01*
X62618899Y-97254068D01*
X62400392Y-97433392D01*
X62221068Y-97651899D01*
X62087818Y-97901192D01*
X62005764Y-98171691D01*
X61978057Y-98453000D01*
X62005764Y-98734309D01*
X62087818Y-99004808D01*
X62221068Y-99254101D01*
X62400392Y-99472608D01*
X62618899Y-99651932D01*
X62751858Y-99723000D01*
X62618899Y-99794068D01*
X62400392Y-99973392D01*
X62221068Y-100191899D01*
X62087818Y-100441192D01*
X62005764Y-100711691D01*
X61978057Y-100993000D01*
X62005764Y-101274309D01*
X62087818Y-101544808D01*
X62221068Y-101794101D01*
X62221081Y-101794117D01*
X61905199Y-102110000D01*
X55844387Y-102110000D01*
X55867932Y-102053158D01*
X55925000Y-101766260D01*
X55925000Y-101473740D01*
X55867932Y-101186842D01*
X55829923Y-101095080D01*
X57835298Y-101095080D01*
X57872620Y-101098756D01*
X57909942Y-101095080D01*
X57909953Y-101095080D01*
X58021606Y-101084083D01*
X58164867Y-101040626D01*
X58296896Y-100970054D01*
X58412621Y-100875081D01*
X58436424Y-100846077D01*
X62377630Y-96904872D01*
X62400392Y-96932608D01*
%TA.AperFunction,Conductor*%
D34*
G36*
X62400392Y-96932608D02*
G01*
X62618899Y-97111932D01*
X62751858Y-97183000D01*
X62618899Y-97254068D01*
X62400392Y-97433392D01*
X62221068Y-97651899D01*
X62087818Y-97901192D01*
X62005764Y-98171691D01*
X61978057Y-98453000D01*
X62005764Y-98734309D01*
X62087818Y-99004808D01*
X62221068Y-99254101D01*
X62400392Y-99472608D01*
X62618899Y-99651932D01*
X62751858Y-99723000D01*
X62618899Y-99794068D01*
X62400392Y-99973392D01*
X62221068Y-100191899D01*
X62087818Y-100441192D01*
X62005764Y-100711691D01*
X61978057Y-100993000D01*
X62005764Y-101274309D01*
X62087818Y-101544808D01*
X62221068Y-101794101D01*
X62221081Y-101794117D01*
X61905199Y-102110000D01*
X55844387Y-102110000D01*
X55867932Y-102053158D01*
X55925000Y-101766260D01*
X55925000Y-101473740D01*
X55867932Y-101186842D01*
X55829923Y-101095080D01*
X57835298Y-101095080D01*
X57872620Y-101098756D01*
X57909942Y-101095080D01*
X57909953Y-101095080D01*
X58021606Y-101084083D01*
X58164867Y-101040626D01*
X58296896Y-100970054D01*
X58412621Y-100875081D01*
X58436424Y-100846077D01*
X62377630Y-96904872D01*
X62400392Y-96932608D01*
G37*
%TD.AperFunction*%
%TD*%
M02*
