%TF.GenerationSoftware,KiCad,Pcbnew,(5.1.9)-1*%
%TF.CreationDate,2021-05-06T15:16:17-04:00*%
%TF.ProjectId,c64interface,63363469-6e74-4657-9266-6163652e6b69,rev?*%
%TF.SameCoordinates,Original*%
%TF.FileFunction,Legend,Top*%
%TF.FilePolarity,Positive*%
%FSLAX46Y46*%
G04 Gerber Fmt 4.6, Leading zero omitted, Abs format (unit mm)*
G04 Created by KiCad (PCBNEW (5.1.9)-1) date 2021-05-06 15:16:17*
%MOMM*%
%LPD*%
G01*
G04 APERTURE LIST*
%ADD10C,0.120000*%
%ADD11C,0.300000*%
%ADD12C,0.150000*%
%ADD13C,0.100000*%
%ADD14C,0.254000*%
G04 APERTURE END LIST*
D10*
X40259000Y-86420960D02*
X139840000Y-86420000D01*
X40260000Y-134210000D02*
X40259000Y-86420960D01*
D11*
X96801500Y-108633194D02*
X96730071Y-108704622D01*
X96515785Y-108776051D01*
X96372928Y-108776051D01*
X96158642Y-108704622D01*
X96015785Y-108561765D01*
X95944357Y-108418908D01*
X95872928Y-108133194D01*
X95872928Y-107918908D01*
X95944357Y-107633194D01*
X96015785Y-107490337D01*
X96158642Y-107347480D01*
X96372928Y-107276051D01*
X96515785Y-107276051D01*
X96730071Y-107347480D01*
X96801500Y-107418908D01*
X98087214Y-107276051D02*
X97801500Y-107276051D01*
X97658642Y-107347480D01*
X97587214Y-107418908D01*
X97444357Y-107633194D01*
X97372928Y-107918908D01*
X97372928Y-108490337D01*
X97444357Y-108633194D01*
X97515785Y-108704622D01*
X97658642Y-108776051D01*
X97944357Y-108776051D01*
X98087214Y-108704622D01*
X98158642Y-108633194D01*
X98230071Y-108490337D01*
X98230071Y-108133194D01*
X98158642Y-107990337D01*
X98087214Y-107918908D01*
X97944357Y-107847480D01*
X97658642Y-107847480D01*
X97515785Y-107918908D01*
X97444357Y-107990337D01*
X97372928Y-108133194D01*
X99515785Y-107776051D02*
X99515785Y-108776051D01*
X99158642Y-107204622D02*
X98801500Y-108276051D01*
X99730071Y-108276051D01*
X101444357Y-107276051D02*
X101444357Y-108490337D01*
X101515785Y-108633194D01*
X101587214Y-108704622D01*
X101730071Y-108776051D01*
X102015785Y-108776051D01*
X102158642Y-108704622D01*
X102230071Y-108633194D01*
X102301500Y-108490337D01*
X102301500Y-107276051D01*
X102944357Y-108704622D02*
X103158642Y-108776051D01*
X103515785Y-108776051D01*
X103658642Y-108704622D01*
X103730071Y-108633194D01*
X103801500Y-108490337D01*
X103801500Y-108347480D01*
X103730071Y-108204622D01*
X103658642Y-108133194D01*
X103515785Y-108061765D01*
X103230071Y-107990337D01*
X103087214Y-107918908D01*
X103015785Y-107847480D01*
X102944357Y-107704622D01*
X102944357Y-107561765D01*
X103015785Y-107418908D01*
X103087214Y-107347480D01*
X103230071Y-107276051D01*
X103587214Y-107276051D01*
X103801500Y-107347480D01*
X104444357Y-107990337D02*
X104944357Y-107990337D01*
X105158642Y-108776051D02*
X104444357Y-108776051D01*
X104444357Y-107276051D01*
X105158642Y-107276051D01*
X106658642Y-108776051D02*
X106158642Y-108061765D01*
X105801500Y-108776051D02*
X105801500Y-107276051D01*
X106372928Y-107276051D01*
X106515785Y-107347480D01*
X106587214Y-107418908D01*
X106658642Y-107561765D01*
X106658642Y-107776051D01*
X106587214Y-107918908D01*
X106515785Y-107990337D01*
X106372928Y-108061765D01*
X105801500Y-108061765D01*
X107301500Y-108776051D02*
X107301500Y-107276051D01*
X107872928Y-107276051D01*
X108015785Y-107347480D01*
X108087214Y-107418908D01*
X108158642Y-107561765D01*
X108158642Y-107776051D01*
X108087214Y-107918908D01*
X108015785Y-107990337D01*
X107872928Y-108061765D01*
X107301500Y-108061765D01*
X109087214Y-107276051D02*
X109372928Y-107276051D01*
X109515785Y-107347480D01*
X109658642Y-107490337D01*
X109730071Y-107776051D01*
X109730071Y-108276051D01*
X109658642Y-108561765D01*
X109515785Y-108704622D01*
X109372928Y-108776051D01*
X109087214Y-108776051D01*
X108944357Y-108704622D01*
X108801500Y-108561765D01*
X108730071Y-108276051D01*
X108730071Y-107776051D01*
X108801500Y-107490337D01*
X108944357Y-107347480D01*
X109087214Y-107276051D01*
X111230071Y-108776051D02*
X110730071Y-108061765D01*
X110372928Y-108776051D02*
X110372928Y-107276051D01*
X110944357Y-107276051D01*
X111087214Y-107347480D01*
X111158642Y-107418908D01*
X111230071Y-107561765D01*
X111230071Y-107776051D01*
X111158642Y-107918908D01*
X111087214Y-107990337D01*
X110944357Y-108061765D01*
X110372928Y-108061765D01*
X111658642Y-107276051D02*
X112515785Y-107276051D01*
X112087214Y-108776051D02*
X112087214Y-107276051D01*
X114158642Y-108776051D02*
X114158642Y-107276051D01*
X114872928Y-108776051D02*
X114872928Y-107276051D01*
X115730071Y-108776051D01*
X115730071Y-107276051D01*
X116230071Y-107276051D02*
X117087214Y-107276051D01*
X116658642Y-108776051D02*
X116658642Y-107276051D01*
X117587214Y-107990337D02*
X118087214Y-107990337D01*
X118301499Y-108776051D02*
X117587214Y-108776051D01*
X117587214Y-107276051D01*
X118301499Y-107276051D01*
X119801499Y-108776051D02*
X119301499Y-108061765D01*
X118944357Y-108776051D02*
X118944357Y-107276051D01*
X119515785Y-107276051D01*
X119658642Y-107347480D01*
X119730071Y-107418908D01*
X119801499Y-107561765D01*
X119801499Y-107776051D01*
X119730071Y-107918908D01*
X119658642Y-107990337D01*
X119515785Y-108061765D01*
X118944357Y-108061765D01*
X120944357Y-107990337D02*
X120444357Y-107990337D01*
X120444357Y-108776051D02*
X120444357Y-107276051D01*
X121158642Y-107276051D01*
X121658642Y-108347480D02*
X122372928Y-108347480D01*
X121515785Y-108776051D02*
X122015785Y-107276051D01*
X122515785Y-108776051D01*
X123872928Y-108633194D02*
X123801500Y-108704622D01*
X123587214Y-108776051D01*
X123444357Y-108776051D01*
X123230071Y-108704622D01*
X123087214Y-108561765D01*
X123015785Y-108418908D01*
X122944357Y-108133194D01*
X122944357Y-107918908D01*
X123015785Y-107633194D01*
X123087214Y-107490337D01*
X123230071Y-107347480D01*
X123444357Y-107276051D01*
X123587214Y-107276051D01*
X123801500Y-107347480D01*
X123872928Y-107418908D01*
X124515785Y-107990337D02*
X125015785Y-107990337D01*
X125230071Y-108776051D02*
X124515785Y-108776051D01*
X124515785Y-107276051D01*
X125230071Y-107276051D01*
X126801500Y-107276051D02*
X127301500Y-108776051D01*
X127801500Y-107276051D01*
X129087214Y-108776051D02*
X128230071Y-108776051D01*
X128658642Y-108776051D02*
X128658642Y-107276051D01*
X128515785Y-107490337D01*
X128372928Y-107633194D01*
X128230071Y-107704622D01*
X129730071Y-108633194D02*
X129801500Y-108704622D01*
X129730071Y-108776051D01*
X129658642Y-108704622D01*
X129730071Y-108633194D01*
X129730071Y-108776051D01*
X131230071Y-108776051D02*
X130372928Y-108776051D01*
X130801500Y-108776051D02*
X130801500Y-107276051D01*
X130658642Y-107490337D01*
X130515785Y-107633194D01*
X130372928Y-107704622D01*
X105622928Y-109826051D02*
X105622928Y-110897480D01*
X105551500Y-111111765D01*
X105408642Y-111254622D01*
X105194357Y-111326051D01*
X105051500Y-111326051D01*
X106622928Y-109826051D02*
X106908642Y-109826051D01*
X107051500Y-109897480D01*
X107194357Y-110040337D01*
X107265785Y-110326051D01*
X107265785Y-110826051D01*
X107194357Y-111111765D01*
X107051500Y-111254622D01*
X106908642Y-111326051D01*
X106622928Y-111326051D01*
X106480071Y-111254622D01*
X106337214Y-111111765D01*
X106265785Y-110826051D01*
X106265785Y-110326051D01*
X106337214Y-110040337D01*
X106480071Y-109897480D01*
X106622928Y-109826051D01*
X107908642Y-111326051D02*
X107908642Y-109826051D01*
X107908642Y-110540337D02*
X108765785Y-110540337D01*
X108765785Y-111326051D02*
X108765785Y-109826051D01*
X109480071Y-111326051D02*
X109480071Y-109826051D01*
X110337214Y-111326051D01*
X110337214Y-109826051D01*
X113051500Y-111183194D02*
X112980071Y-111254622D01*
X112765785Y-111326051D01*
X112622928Y-111326051D01*
X112408642Y-111254622D01*
X112265785Y-111111765D01*
X112194357Y-110968908D01*
X112122928Y-110683194D01*
X112122928Y-110468908D01*
X112194357Y-110183194D01*
X112265785Y-110040337D01*
X112408642Y-109897480D01*
X112622928Y-109826051D01*
X112765785Y-109826051D01*
X112980071Y-109897480D01*
X113051500Y-109968908D01*
X113622928Y-110897480D02*
X114337214Y-110897480D01*
X113480071Y-111326051D02*
X113980071Y-109826051D01*
X114480071Y-111326051D01*
X115837214Y-111326051D02*
X115337214Y-110611765D01*
X114980071Y-111326051D02*
X114980071Y-109826051D01*
X115551500Y-109826051D01*
X115694357Y-109897480D01*
X115765785Y-109968908D01*
X115837214Y-110111765D01*
X115837214Y-110326051D01*
X115765785Y-110468908D01*
X115694357Y-110540337D01*
X115551500Y-110611765D01*
X114980071Y-110611765D01*
X116480071Y-111326051D02*
X116480071Y-109826051D01*
X116980071Y-110897480D01*
X117480071Y-109826051D01*
X117480071Y-111326051D01*
X118480071Y-109826051D02*
X118765785Y-109826051D01*
X118908642Y-109897480D01*
X119051500Y-110040337D01*
X119122928Y-110326051D01*
X119122928Y-110826051D01*
X119051500Y-111111765D01*
X118908642Y-111254622D01*
X118765785Y-111326051D01*
X118480071Y-111326051D01*
X118337214Y-111254622D01*
X118194357Y-111111765D01*
X118122928Y-110826051D01*
X118122928Y-110326051D01*
X118194357Y-110040337D01*
X118337214Y-109897480D01*
X118480071Y-109826051D01*
X119765785Y-111326051D02*
X119765785Y-109826051D01*
X120622928Y-111326051D01*
X120622928Y-109826051D01*
X121622928Y-110611765D02*
X121622928Y-111326051D01*
X121122928Y-109826051D02*
X121622928Y-110611765D01*
X122122928Y-109826051D01*
X107122928Y-113733194D02*
X107051500Y-113804622D01*
X106837214Y-113876051D01*
X106694357Y-113876051D01*
X106480071Y-113804622D01*
X106337214Y-113661765D01*
X106265785Y-113518908D01*
X106194357Y-113233194D01*
X106194357Y-113018908D01*
X106265785Y-112733194D01*
X106337214Y-112590337D01*
X106480071Y-112447480D01*
X106694357Y-112376051D01*
X106837214Y-112376051D01*
X107051500Y-112447480D01*
X107122928Y-112518908D01*
X107694357Y-113447480D02*
X108408642Y-113447480D01*
X107551500Y-113876051D02*
X108051500Y-112376051D01*
X108551500Y-113876051D01*
X109908642Y-113876051D02*
X109408642Y-113161765D01*
X109051500Y-113876051D02*
X109051500Y-112376051D01*
X109622928Y-112376051D01*
X109765785Y-112447480D01*
X109837214Y-112518908D01*
X109908642Y-112661765D01*
X109908642Y-112876051D01*
X109837214Y-113018908D01*
X109765785Y-113090337D01*
X109622928Y-113161765D01*
X109051500Y-113161765D01*
X110551500Y-113876051D02*
X110551500Y-112376051D01*
X111051500Y-113447480D01*
X111551500Y-112376051D01*
X111551500Y-113876051D01*
X112551500Y-112376051D02*
X112837214Y-112376051D01*
X112980071Y-112447480D01*
X113122928Y-112590337D01*
X113194357Y-112876051D01*
X113194357Y-113376051D01*
X113122928Y-113661765D01*
X112980071Y-113804622D01*
X112837214Y-113876051D01*
X112551500Y-113876051D01*
X112408642Y-113804622D01*
X112265785Y-113661765D01*
X112194357Y-113376051D01*
X112194357Y-112876051D01*
X112265785Y-112590337D01*
X112408642Y-112447480D01*
X112551500Y-112376051D01*
X113837214Y-113876051D02*
X113837214Y-112376051D01*
X114694357Y-113876051D01*
X114694357Y-112376051D01*
X115694357Y-113161765D02*
X115694357Y-113876051D01*
X115194357Y-112376051D02*
X115694357Y-113161765D01*
X116194357Y-112376051D01*
X116694357Y-113733194D02*
X116765785Y-113804622D01*
X116694357Y-113876051D01*
X116622928Y-113804622D01*
X116694357Y-113733194D01*
X116694357Y-113876051D01*
X117265785Y-112376051D02*
X118265785Y-113876051D01*
X118265785Y-112376051D02*
X117265785Y-113876051D01*
X119122928Y-113161765D02*
X119122928Y-113876051D01*
X118622928Y-112376051D02*
X119122928Y-113161765D01*
X119622928Y-112376051D01*
X119980071Y-112376051D02*
X120980071Y-112376051D01*
X119980071Y-113876051D01*
X120980071Y-113876051D01*
D12*
X104003880Y-115705146D02*
X104480071Y-115705146D01*
X103908642Y-115990860D02*
X104241976Y-114990860D01*
X104575309Y-115990860D01*
X105384833Y-115990860D02*
X104908642Y-115990860D01*
X104908642Y-114990860D01*
X106194357Y-115990860D02*
X105718166Y-115990860D01*
X105718166Y-114990860D01*
X107146738Y-114990860D02*
X107718166Y-114990860D01*
X107432452Y-115990860D02*
X107432452Y-114990860D01*
X108622928Y-115990860D02*
X108289595Y-115514670D01*
X108051500Y-115990860D02*
X108051500Y-114990860D01*
X108432452Y-114990860D01*
X108527690Y-115038480D01*
X108575309Y-115086099D01*
X108622928Y-115181337D01*
X108622928Y-115324194D01*
X108575309Y-115419432D01*
X108527690Y-115467051D01*
X108432452Y-115514670D01*
X108051500Y-115514670D01*
X109003880Y-115705146D02*
X109480071Y-115705146D01*
X108908642Y-115990860D02*
X109241976Y-114990860D01*
X109575309Y-115990860D01*
X109908642Y-115990860D02*
X109908642Y-114990860D01*
X110480071Y-115990860D01*
X110480071Y-114990860D01*
X110908642Y-115943241D02*
X111051500Y-115990860D01*
X111289595Y-115990860D01*
X111384833Y-115943241D01*
X111432452Y-115895622D01*
X111480071Y-115800384D01*
X111480071Y-115705146D01*
X111432452Y-115609908D01*
X111384833Y-115562289D01*
X111289595Y-115514670D01*
X111099119Y-115467051D01*
X111003880Y-115419432D01*
X110956261Y-115371813D01*
X110908642Y-115276575D01*
X110908642Y-115181337D01*
X110956261Y-115086099D01*
X111003880Y-115038480D01*
X111099119Y-114990860D01*
X111337214Y-114990860D01*
X111480071Y-115038480D01*
X111908642Y-115990860D02*
X111908642Y-114990860D01*
X112337214Y-115943241D02*
X112480071Y-115990860D01*
X112718166Y-115990860D01*
X112813404Y-115943241D01*
X112861023Y-115895622D01*
X112908642Y-115800384D01*
X112908642Y-115705146D01*
X112861023Y-115609908D01*
X112813404Y-115562289D01*
X112718166Y-115514670D01*
X112527690Y-115467051D01*
X112432452Y-115419432D01*
X112384833Y-115371813D01*
X112337214Y-115276575D01*
X112337214Y-115181337D01*
X112384833Y-115086099D01*
X112432452Y-115038480D01*
X112527690Y-114990860D01*
X112765785Y-114990860D01*
X112908642Y-115038480D01*
X113194357Y-114990860D02*
X113765785Y-114990860D01*
X113480071Y-115990860D02*
X113480071Y-114990860D01*
X114289595Y-114990860D02*
X114480071Y-114990860D01*
X114575309Y-115038480D01*
X114670547Y-115133718D01*
X114718166Y-115324194D01*
X114718166Y-115657527D01*
X114670547Y-115848003D01*
X114575309Y-115943241D01*
X114480071Y-115990860D01*
X114289595Y-115990860D01*
X114194357Y-115943241D01*
X114099119Y-115848003D01*
X114051500Y-115657527D01*
X114051500Y-115324194D01*
X114099119Y-115133718D01*
X114194357Y-115038480D01*
X114289595Y-114990860D01*
X115718166Y-115990860D02*
X115384833Y-115514670D01*
X115146738Y-115990860D02*
X115146738Y-114990860D01*
X115527690Y-114990860D01*
X115622928Y-115038480D01*
X115670547Y-115086099D01*
X115718166Y-115181337D01*
X115718166Y-115324194D01*
X115670547Y-115419432D01*
X115622928Y-115467051D01*
X115527690Y-115514670D01*
X115146738Y-115514670D01*
X116099119Y-115943241D02*
X116241976Y-115990860D01*
X116480071Y-115990860D01*
X116575309Y-115943241D01*
X116622928Y-115895622D01*
X116670547Y-115800384D01*
X116670547Y-115705146D01*
X116622928Y-115609908D01*
X116575309Y-115562289D01*
X116480071Y-115514670D01*
X116289595Y-115467051D01*
X116194357Y-115419432D01*
X116146738Y-115371813D01*
X116099119Y-115276575D01*
X116099119Y-115181337D01*
X116146738Y-115086099D01*
X116194357Y-115038480D01*
X116289595Y-114990860D01*
X116527690Y-114990860D01*
X116670547Y-115038480D01*
X117813404Y-115086099D02*
X117861023Y-115038480D01*
X117956261Y-114990860D01*
X118194357Y-114990860D01*
X118289595Y-115038480D01*
X118337214Y-115086099D01*
X118384833Y-115181337D01*
X118384833Y-115276575D01*
X118337214Y-115419432D01*
X117765785Y-115990860D01*
X118384833Y-115990860D01*
X118813404Y-115324194D02*
X118813404Y-115990860D01*
X118813404Y-115419432D02*
X118861023Y-115371813D01*
X118956261Y-115324194D01*
X119099119Y-115324194D01*
X119194357Y-115371813D01*
X119241976Y-115467051D01*
X119241976Y-115990860D01*
X119670547Y-115086099D02*
X119718166Y-115038480D01*
X119813404Y-114990860D01*
X120051500Y-114990860D01*
X120146738Y-115038480D01*
X120194357Y-115086099D01*
X120241976Y-115181337D01*
X120241976Y-115276575D01*
X120194357Y-115419432D01*
X119622928Y-115990860D01*
X120241976Y-115990860D01*
X120622928Y-115086099D02*
X120670547Y-115038480D01*
X120765785Y-114990860D01*
X121003880Y-114990860D01*
X121099119Y-115038480D01*
X121146738Y-115086099D01*
X121194357Y-115181337D01*
X121194357Y-115276575D01*
X121146738Y-115419432D01*
X120575309Y-115990860D01*
X121194357Y-115990860D01*
X121575309Y-115086099D02*
X121622928Y-115038480D01*
X121718166Y-114990860D01*
X121956261Y-114990860D01*
X122051500Y-115038480D01*
X122099119Y-115086099D01*
X122146738Y-115181337D01*
X122146738Y-115276575D01*
X122099119Y-115419432D01*
X121527690Y-115990860D01*
X122146738Y-115990860D01*
X122527690Y-115086099D02*
X122575309Y-115038480D01*
X122670547Y-114990860D01*
X122908642Y-114990860D01*
X123003880Y-115038480D01*
X123051500Y-115086099D01*
X123099119Y-115181337D01*
X123099119Y-115276575D01*
X123051500Y-115419432D01*
X122480071Y-115990860D01*
X123099119Y-115990860D01*
X105241976Y-117117051D02*
X105575309Y-117117051D01*
X105718166Y-117640860D02*
X105241976Y-117640860D01*
X105241976Y-116640860D01*
X105718166Y-116640860D01*
X106622928Y-117640860D02*
X106146738Y-117640860D01*
X106146738Y-116640860D01*
X106956261Y-117117051D02*
X107289595Y-117117051D01*
X107432452Y-117640860D02*
X106956261Y-117640860D01*
X106956261Y-116640860D01*
X107432452Y-116640860D01*
X108432452Y-117545622D02*
X108384833Y-117593241D01*
X108241976Y-117640860D01*
X108146738Y-117640860D01*
X108003880Y-117593241D01*
X107908642Y-117498003D01*
X107861023Y-117402765D01*
X107813404Y-117212289D01*
X107813404Y-117069432D01*
X107861023Y-116878956D01*
X107908642Y-116783718D01*
X108003880Y-116688480D01*
X108146738Y-116640860D01*
X108241976Y-116640860D01*
X108384833Y-116688480D01*
X108432452Y-116736099D01*
X110194357Y-117545622D02*
X110146738Y-117593241D01*
X110003880Y-117640860D01*
X109908642Y-117640860D01*
X109765785Y-117593241D01*
X109670547Y-117498003D01*
X109622928Y-117402765D01*
X109575309Y-117212289D01*
X109575309Y-117069432D01*
X109622928Y-116878956D01*
X109670547Y-116783718D01*
X109765785Y-116688480D01*
X109908642Y-116640860D01*
X110003880Y-116640860D01*
X110146738Y-116688480D01*
X110194357Y-116736099D01*
X110575309Y-117355146D02*
X111051500Y-117355146D01*
X110480071Y-117640860D02*
X110813404Y-116640860D01*
X111146738Y-117640860D01*
X111480071Y-117640860D02*
X111480071Y-116640860D01*
X111861023Y-116640860D01*
X111956261Y-116688480D01*
X112003880Y-116736099D01*
X112051500Y-116831337D01*
X112051500Y-116974194D01*
X112003880Y-117069432D01*
X111956261Y-117117051D01*
X111861023Y-117164670D01*
X111480071Y-117164670D01*
X112432452Y-117593241D02*
X112575309Y-117640860D01*
X112813404Y-117640860D01*
X112908642Y-117593241D01*
X112956261Y-117545622D01*
X113003880Y-117450384D01*
X113003880Y-117355146D01*
X112956261Y-117259908D01*
X112908642Y-117212289D01*
X112813404Y-117164670D01*
X112622928Y-117117051D01*
X112527690Y-117069432D01*
X112480071Y-117021813D01*
X112432452Y-116926575D01*
X112432452Y-116831337D01*
X112480071Y-116736099D01*
X112527690Y-116688480D01*
X112622928Y-116640860D01*
X112861023Y-116640860D01*
X113003880Y-116688480D01*
X114718166Y-117640860D02*
X114146738Y-117640860D01*
X114432452Y-117640860D02*
X114432452Y-116640860D01*
X114337214Y-116783718D01*
X114241976Y-116878956D01*
X114146738Y-116926575D01*
X115337214Y-116640860D02*
X115432452Y-116640860D01*
X115527690Y-116688480D01*
X115575309Y-116736099D01*
X115622928Y-116831337D01*
X115670547Y-117021813D01*
X115670547Y-117259908D01*
X115622928Y-117450384D01*
X115575309Y-117545622D01*
X115527690Y-117593241D01*
X115432452Y-117640860D01*
X115337214Y-117640860D01*
X115241976Y-117593241D01*
X115194357Y-117545622D01*
X115146738Y-117450384D01*
X115099119Y-117259908D01*
X115099119Y-117021813D01*
X115146738Y-116831337D01*
X115194357Y-116736099D01*
X115241976Y-116688480D01*
X115337214Y-116640860D01*
X116289595Y-116640860D02*
X116384833Y-116640860D01*
X116480071Y-116688480D01*
X116527690Y-116736099D01*
X116575309Y-116831337D01*
X116622928Y-117021813D01*
X116622928Y-117259908D01*
X116575309Y-117450384D01*
X116527690Y-117545622D01*
X116480071Y-117593241D01*
X116384833Y-117640860D01*
X116289595Y-117640860D01*
X116194357Y-117593241D01*
X116146738Y-117545622D01*
X116099119Y-117450384D01*
X116051500Y-117259908D01*
X116051500Y-117021813D01*
X116099119Y-116831337D01*
X116146738Y-116736099D01*
X116194357Y-116688480D01*
X116289595Y-116640860D01*
X117480071Y-116974194D02*
X117480071Y-117640860D01*
X117051500Y-116974194D02*
X117051500Y-117498003D01*
X117099119Y-117593241D01*
X117194357Y-117640860D01*
X117337214Y-117640860D01*
X117432452Y-117593241D01*
X117480071Y-117545622D01*
X118289595Y-117117051D02*
X117956261Y-117117051D01*
X117956261Y-117640860D02*
X117956261Y-116640860D01*
X118432452Y-116640860D01*
X120099119Y-117640860D02*
X119527690Y-117640860D01*
X119813404Y-117640860D02*
X119813404Y-116640860D01*
X119718166Y-116783718D01*
X119622928Y-116878956D01*
X119527690Y-116926575D01*
X120956261Y-116640860D02*
X120765785Y-116640860D01*
X120670547Y-116688480D01*
X120622928Y-116736099D01*
X120527690Y-116878956D01*
X120480071Y-117069432D01*
X120480071Y-117450384D01*
X120527690Y-117545622D01*
X120575309Y-117593241D01*
X120670547Y-117640860D01*
X120861023Y-117640860D01*
X120956261Y-117593241D01*
X121003880Y-117545622D01*
X121051500Y-117450384D01*
X121051500Y-117212289D01*
X121003880Y-117117051D01*
X120956261Y-117069432D01*
X120861023Y-117021813D01*
X120670547Y-117021813D01*
X120575309Y-117069432D01*
X120527690Y-117117051D01*
X120480071Y-117212289D01*
X121337214Y-116640860D02*
X121670547Y-117640860D01*
X122003880Y-116640860D01*
X106861023Y-118290860D02*
X107051500Y-118290860D01*
X107146738Y-118338480D01*
X107241976Y-118433718D01*
X107289595Y-118624194D01*
X107289595Y-118957527D01*
X107241976Y-119148003D01*
X107146738Y-119243241D01*
X107051500Y-119290860D01*
X106861023Y-119290860D01*
X106765785Y-119243241D01*
X106670547Y-119148003D01*
X106622928Y-118957527D01*
X106622928Y-118624194D01*
X106670547Y-118433718D01*
X106765785Y-118338480D01*
X106861023Y-118290860D01*
X107575309Y-118290860D02*
X108146738Y-118290860D01*
X107861023Y-119290860D02*
X107861023Y-118290860D01*
X108480071Y-119290860D02*
X108480071Y-118290860D01*
X108480071Y-118767051D02*
X109051500Y-118767051D01*
X109051500Y-119290860D02*
X109051500Y-118290860D01*
X109527690Y-118767051D02*
X109861023Y-118767051D01*
X110003880Y-119290860D02*
X109527690Y-119290860D01*
X109527690Y-118290860D01*
X110003880Y-118290860D01*
X111003880Y-119290860D02*
X110670547Y-118814670D01*
X110432452Y-119290860D02*
X110432452Y-118290860D01*
X110813404Y-118290860D01*
X110908642Y-118338480D01*
X110956261Y-118386099D01*
X111003880Y-118481337D01*
X111003880Y-118624194D01*
X110956261Y-118719432D01*
X110908642Y-118767051D01*
X110813404Y-118814670D01*
X110432452Y-118814670D01*
X112765785Y-119195622D02*
X112718166Y-119243241D01*
X112575309Y-119290860D01*
X112480071Y-119290860D01*
X112337214Y-119243241D01*
X112241976Y-119148003D01*
X112194357Y-119052765D01*
X112146738Y-118862289D01*
X112146738Y-118719432D01*
X112194357Y-118528956D01*
X112241976Y-118433718D01*
X112337214Y-118338480D01*
X112480071Y-118290860D01*
X112575309Y-118290860D01*
X112718166Y-118338480D01*
X112765785Y-118386099D01*
X113146738Y-119005146D02*
X113622928Y-119005146D01*
X113051500Y-119290860D02*
X113384833Y-118290860D01*
X113718166Y-119290860D01*
X114051500Y-119290860D02*
X114051500Y-118290860D01*
X114432452Y-118290860D01*
X114527690Y-118338480D01*
X114575309Y-118386099D01*
X114622928Y-118481337D01*
X114622928Y-118624194D01*
X114575309Y-118719432D01*
X114527690Y-118767051D01*
X114432452Y-118814670D01*
X114051500Y-118814670D01*
X115003880Y-119243241D02*
X115146738Y-119290860D01*
X115384833Y-119290860D01*
X115480071Y-119243241D01*
X115527690Y-119195622D01*
X115575309Y-119100384D01*
X115575309Y-119005146D01*
X115527690Y-118909908D01*
X115480071Y-118862289D01*
X115384833Y-118814670D01*
X115194357Y-118767051D01*
X115099119Y-118719432D01*
X115051500Y-118671813D01*
X115003880Y-118576575D01*
X115003880Y-118481337D01*
X115051500Y-118386099D01*
X115099119Y-118338480D01*
X115194357Y-118290860D01*
X115432452Y-118290860D01*
X115575309Y-118338480D01*
X116956261Y-118290860D02*
X117051500Y-118290860D01*
X117146738Y-118338480D01*
X117194357Y-118386099D01*
X117241976Y-118481337D01*
X117289595Y-118671813D01*
X117289595Y-118909908D01*
X117241976Y-119100384D01*
X117194357Y-119195622D01*
X117146738Y-119243241D01*
X117051500Y-119290860D01*
X116956261Y-119290860D01*
X116861023Y-119243241D01*
X116813404Y-119195622D01*
X116765785Y-119100384D01*
X116718166Y-118909908D01*
X116718166Y-118671813D01*
X116765785Y-118481337D01*
X116813404Y-118386099D01*
X116861023Y-118338480D01*
X116956261Y-118290860D01*
X117718166Y-119195622D02*
X117765785Y-119243241D01*
X117718166Y-119290860D01*
X117670547Y-119243241D01*
X117718166Y-119195622D01*
X117718166Y-119290860D01*
X118718166Y-119290860D02*
X118146738Y-119290860D01*
X118432452Y-119290860D02*
X118432452Y-118290860D01*
X118337214Y-118433718D01*
X118241976Y-118528956D01*
X118146738Y-118576575D01*
X119575309Y-118624194D02*
X119575309Y-119290860D01*
X119146738Y-118624194D02*
X119146738Y-119148003D01*
X119194357Y-119243241D01*
X119289595Y-119290860D01*
X119432452Y-119290860D01*
X119527690Y-119243241D01*
X119575309Y-119195622D01*
X120384833Y-118767051D02*
X120051500Y-118767051D01*
X120051500Y-119290860D02*
X120051500Y-118290860D01*
X120527690Y-118290860D01*
X109075309Y-120940860D02*
X108741976Y-120464670D01*
X108503880Y-120940860D02*
X108503880Y-119940860D01*
X108884833Y-119940860D01*
X108980071Y-119988480D01*
X109027690Y-120036099D01*
X109075309Y-120131337D01*
X109075309Y-120274194D01*
X109027690Y-120369432D01*
X108980071Y-120417051D01*
X108884833Y-120464670D01*
X108503880Y-120464670D01*
X109503880Y-120417051D02*
X109837214Y-120417051D01*
X109980071Y-120940860D02*
X109503880Y-120940860D01*
X109503880Y-119940860D01*
X109980071Y-119940860D01*
X110361023Y-120893241D02*
X110503880Y-120940860D01*
X110741976Y-120940860D01*
X110837214Y-120893241D01*
X110884833Y-120845622D01*
X110932452Y-120750384D01*
X110932452Y-120655146D01*
X110884833Y-120559908D01*
X110837214Y-120512289D01*
X110741976Y-120464670D01*
X110551500Y-120417051D01*
X110456261Y-120369432D01*
X110408642Y-120321813D01*
X110361023Y-120226575D01*
X110361023Y-120131337D01*
X110408642Y-120036099D01*
X110456261Y-119988480D01*
X110551500Y-119940860D01*
X110789595Y-119940860D01*
X110932452Y-119988480D01*
X111361023Y-120940860D02*
X111361023Y-119940860D01*
X111789595Y-120893241D02*
X111932452Y-120940860D01*
X112170547Y-120940860D01*
X112265785Y-120893241D01*
X112313404Y-120845622D01*
X112361023Y-120750384D01*
X112361023Y-120655146D01*
X112313404Y-120559908D01*
X112265785Y-120512289D01*
X112170547Y-120464670D01*
X111980071Y-120417051D01*
X111884833Y-120369432D01*
X111837214Y-120321813D01*
X111789595Y-120226575D01*
X111789595Y-120131337D01*
X111837214Y-120036099D01*
X111884833Y-119988480D01*
X111980071Y-119940860D01*
X112218166Y-119940860D01*
X112361023Y-119988480D01*
X112646738Y-119940860D02*
X113218166Y-119940860D01*
X112932452Y-120940860D02*
X112932452Y-119940860D01*
X113741976Y-119940860D02*
X113932452Y-119940860D01*
X114027690Y-119988480D01*
X114122928Y-120083718D01*
X114170547Y-120274194D01*
X114170547Y-120607527D01*
X114122928Y-120798003D01*
X114027690Y-120893241D01*
X113932452Y-120940860D01*
X113741976Y-120940860D01*
X113646738Y-120893241D01*
X113551500Y-120798003D01*
X113503880Y-120607527D01*
X113503880Y-120274194D01*
X113551500Y-120083718D01*
X113646738Y-119988480D01*
X113741976Y-119940860D01*
X115170547Y-120940860D02*
X114837214Y-120464670D01*
X114599119Y-120940860D02*
X114599119Y-119940860D01*
X114980071Y-119940860D01*
X115075309Y-119988480D01*
X115122928Y-120036099D01*
X115170547Y-120131337D01*
X115170547Y-120274194D01*
X115122928Y-120369432D01*
X115075309Y-120417051D01*
X114980071Y-120464670D01*
X114599119Y-120464670D01*
X115551500Y-120893241D02*
X115694357Y-120940860D01*
X115932452Y-120940860D01*
X116027690Y-120893241D01*
X116075309Y-120845622D01*
X116122928Y-120750384D01*
X116122928Y-120655146D01*
X116075309Y-120559908D01*
X116027690Y-120512289D01*
X115932452Y-120464670D01*
X115741976Y-120417051D01*
X115646738Y-120369432D01*
X115599119Y-120321813D01*
X115551500Y-120226575D01*
X115551500Y-120131337D01*
X115599119Y-120036099D01*
X115646738Y-119988480D01*
X115741976Y-119940860D01*
X115980071Y-119940860D01*
X116122928Y-119988480D01*
X117837214Y-120940860D02*
X117265785Y-120940860D01*
X117551500Y-120940860D02*
X117551500Y-119940860D01*
X117456261Y-120083718D01*
X117361023Y-120178956D01*
X117265785Y-120226575D01*
X118265785Y-120940860D02*
X118265785Y-119940860D01*
X118361023Y-120559908D02*
X118646738Y-120940860D01*
X118646738Y-120274194D02*
X118265785Y-120655146D01*
D10*
X139840000Y-134210000D02*
X40260000Y-134210000D01*
X139840000Y-86420000D02*
X139840000Y-134210000D01*
D13*
%TO.C,J1*%
X122007000Y-84207500D02*
X122007000Y-92207500D01*
X131007000Y-84207500D02*
X122007000Y-84207500D01*
X131007000Y-98707500D02*
X131007000Y-84207500D01*
X130507000Y-98707500D02*
X131007000Y-98707500D01*
X129507000Y-98707500D02*
X130507000Y-98707500D01*
D10*
%TO.C,C6*%
X133919745Y-118640520D02*
X133919745Y-119140520D01*
X133669745Y-118890520D02*
X134169745Y-118890520D01*
X139075520Y-120081520D02*
X139075520Y-120649520D01*
X139035520Y-119847520D02*
X139035520Y-120883520D01*
X138995520Y-119688520D02*
X138995520Y-121042520D01*
X138955520Y-119560520D02*
X138955520Y-121170520D01*
X138915520Y-119450520D02*
X138915520Y-121280520D01*
X138875520Y-119354520D02*
X138875520Y-121376520D01*
X138835520Y-119267520D02*
X138835520Y-121463520D01*
X138795520Y-119187520D02*
X138795520Y-121543520D01*
X138755520Y-121405520D02*
X138755520Y-121616520D01*
X138755520Y-119114520D02*
X138755520Y-119325520D01*
X138715520Y-121405520D02*
X138715520Y-121684520D01*
X138715520Y-119046520D02*
X138715520Y-119325520D01*
X138675520Y-121405520D02*
X138675520Y-121748520D01*
X138675520Y-118982520D02*
X138675520Y-119325520D01*
X138635520Y-121405520D02*
X138635520Y-121808520D01*
X138635520Y-118922520D02*
X138635520Y-119325520D01*
X138595520Y-121405520D02*
X138595520Y-121865520D01*
X138595520Y-118865520D02*
X138595520Y-119325520D01*
X138555520Y-121405520D02*
X138555520Y-121919520D01*
X138555520Y-118811520D02*
X138555520Y-119325520D01*
X138515520Y-121405520D02*
X138515520Y-121970520D01*
X138515520Y-118760520D02*
X138515520Y-119325520D01*
X138475520Y-121405520D02*
X138475520Y-122018520D01*
X138475520Y-118712520D02*
X138475520Y-119325520D01*
X138435520Y-121405520D02*
X138435520Y-122064520D01*
X138435520Y-118666520D02*
X138435520Y-119325520D01*
X138395520Y-121405520D02*
X138395520Y-122108520D01*
X138395520Y-118622520D02*
X138395520Y-119325520D01*
X138355520Y-121405520D02*
X138355520Y-122150520D01*
X138355520Y-118580520D02*
X138355520Y-119325520D01*
X138315520Y-121405520D02*
X138315520Y-122191520D01*
X138315520Y-118539520D02*
X138315520Y-119325520D01*
X138275520Y-121405520D02*
X138275520Y-122229520D01*
X138275520Y-118501520D02*
X138275520Y-119325520D01*
X138235520Y-121405520D02*
X138235520Y-122266520D01*
X138235520Y-118464520D02*
X138235520Y-119325520D01*
X138195520Y-121405520D02*
X138195520Y-122302520D01*
X138195520Y-118428520D02*
X138195520Y-119325520D01*
X138155520Y-121405520D02*
X138155520Y-122336520D01*
X138155520Y-118394520D02*
X138155520Y-119325520D01*
X138115520Y-121405520D02*
X138115520Y-122369520D01*
X138115520Y-118361520D02*
X138115520Y-119325520D01*
X138075520Y-121405520D02*
X138075520Y-122400520D01*
X138075520Y-118330520D02*
X138075520Y-119325520D01*
X138035520Y-121405520D02*
X138035520Y-122430520D01*
X138035520Y-118300520D02*
X138035520Y-119325520D01*
X137995520Y-121405520D02*
X137995520Y-122460520D01*
X137995520Y-118270520D02*
X137995520Y-119325520D01*
X137955520Y-121405520D02*
X137955520Y-122487520D01*
X137955520Y-118243520D02*
X137955520Y-119325520D01*
X137915520Y-121405520D02*
X137915520Y-122514520D01*
X137915520Y-118216520D02*
X137915520Y-119325520D01*
X137875520Y-121405520D02*
X137875520Y-122540520D01*
X137875520Y-118190520D02*
X137875520Y-119325520D01*
X137835520Y-121405520D02*
X137835520Y-122565520D01*
X137835520Y-118165520D02*
X137835520Y-119325520D01*
X137795520Y-121405520D02*
X137795520Y-122589520D01*
X137795520Y-118141520D02*
X137795520Y-119325520D01*
X137755520Y-121405520D02*
X137755520Y-122612520D01*
X137755520Y-118118520D02*
X137755520Y-119325520D01*
X137715520Y-121405520D02*
X137715520Y-122633520D01*
X137715520Y-118097520D02*
X137715520Y-119325520D01*
X137675520Y-121405520D02*
X137675520Y-122655520D01*
X137675520Y-118075520D02*
X137675520Y-119325520D01*
X137635520Y-121405520D02*
X137635520Y-122675520D01*
X137635520Y-118055520D02*
X137635520Y-119325520D01*
X137595520Y-121405520D02*
X137595520Y-122694520D01*
X137595520Y-118036520D02*
X137595520Y-119325520D01*
X137555520Y-121405520D02*
X137555520Y-122713520D01*
X137555520Y-118017520D02*
X137555520Y-119325520D01*
X137515520Y-121405520D02*
X137515520Y-122730520D01*
X137515520Y-118000520D02*
X137515520Y-119325520D01*
X137475520Y-121405520D02*
X137475520Y-122747520D01*
X137475520Y-117983520D02*
X137475520Y-119325520D01*
X137435520Y-121405520D02*
X137435520Y-122763520D01*
X137435520Y-117967520D02*
X137435520Y-119325520D01*
X137395520Y-121405520D02*
X137395520Y-122779520D01*
X137395520Y-117951520D02*
X137395520Y-119325520D01*
X137355520Y-121405520D02*
X137355520Y-122793520D01*
X137355520Y-117937520D02*
X137355520Y-119325520D01*
X137315520Y-121405520D02*
X137315520Y-122807520D01*
X137315520Y-117923520D02*
X137315520Y-119325520D01*
X137275520Y-121405520D02*
X137275520Y-122820520D01*
X137275520Y-117910520D02*
X137275520Y-119325520D01*
X137235520Y-121405520D02*
X137235520Y-122833520D01*
X137235520Y-117897520D02*
X137235520Y-119325520D01*
X137195520Y-121405520D02*
X137195520Y-122845520D01*
X137195520Y-117885520D02*
X137195520Y-119325520D01*
X137154520Y-121405520D02*
X137154520Y-122856520D01*
X137154520Y-117874520D02*
X137154520Y-119325520D01*
X137114520Y-121405520D02*
X137114520Y-122866520D01*
X137114520Y-117864520D02*
X137114520Y-119325520D01*
X137074520Y-121405520D02*
X137074520Y-122876520D01*
X137074520Y-117854520D02*
X137074520Y-119325520D01*
X137034520Y-121405520D02*
X137034520Y-122885520D01*
X137034520Y-117845520D02*
X137034520Y-119325520D01*
X136994520Y-121405520D02*
X136994520Y-122893520D01*
X136994520Y-117837520D02*
X136994520Y-119325520D01*
X136954520Y-121405520D02*
X136954520Y-122901520D01*
X136954520Y-117829520D02*
X136954520Y-119325520D01*
X136914520Y-121405520D02*
X136914520Y-122908520D01*
X136914520Y-117822520D02*
X136914520Y-119325520D01*
X136874520Y-121405520D02*
X136874520Y-122915520D01*
X136874520Y-117815520D02*
X136874520Y-119325520D01*
X136834520Y-121405520D02*
X136834520Y-122921520D01*
X136834520Y-117809520D02*
X136834520Y-119325520D01*
X136794520Y-121405520D02*
X136794520Y-122926520D01*
X136794520Y-117804520D02*
X136794520Y-119325520D01*
X136754520Y-121405520D02*
X136754520Y-122930520D01*
X136754520Y-117800520D02*
X136754520Y-119325520D01*
X136714520Y-121405520D02*
X136714520Y-122934520D01*
X136714520Y-117796520D02*
X136714520Y-119325520D01*
X136674520Y-117792520D02*
X136674520Y-122938520D01*
X136634520Y-117789520D02*
X136634520Y-122941520D01*
X136594520Y-117787520D02*
X136594520Y-122943520D01*
X136554520Y-117786520D02*
X136554520Y-122944520D01*
X136514520Y-117785520D02*
X136514520Y-122945520D01*
X136474520Y-117785520D02*
X136474520Y-122945520D01*
X139094520Y-120365520D02*
G75*
G03*
X139094520Y-120365520I-2620000J0D01*
G01*
%TO.C,J4*%
X123555000Y-133114000D02*
X123955000Y-133114000D01*
X123555000Y-132474000D02*
X123555000Y-133114000D01*
X132115000Y-126134000D02*
X132115000Y-132874000D01*
X123795000Y-126134000D02*
X123795000Y-132874000D01*
X123795000Y-132874000D02*
X132115000Y-132874000D01*
X123795000Y-126134000D02*
X132115000Y-126134000D01*
X123795000Y-127254000D02*
X132115000Y-127254000D01*
X123795000Y-132354000D02*
X132115000Y-132354000D01*
%TO.C,U4*%
X139790000Y-110837000D02*
X138280000Y-110837000D01*
X139790000Y-107136000D02*
X138280000Y-107136000D01*
X138280000Y-103866000D02*
X138280000Y-114106000D01*
X139790000Y-114106000D02*
X135149000Y-114106000D01*
X139790000Y-103866000D02*
X135149000Y-103866000D01*
X135149000Y-103866000D02*
X135149000Y-114106000D01*
X139790000Y-103866000D02*
X139790000Y-114106000D01*
%TO.C,C3*%
X58708775Y-91175000D02*
X58708775Y-90675000D01*
X58958775Y-90925000D02*
X58458775Y-90925000D01*
X53553000Y-89734000D02*
X53553000Y-89166000D01*
X53593000Y-89968000D02*
X53593000Y-88932000D01*
X53633000Y-90127000D02*
X53633000Y-88773000D01*
X53673000Y-90255000D02*
X53673000Y-88645000D01*
X53713000Y-90365000D02*
X53713000Y-88535000D01*
X53753000Y-90461000D02*
X53753000Y-88439000D01*
X53793000Y-90548000D02*
X53793000Y-88352000D01*
X53833000Y-90628000D02*
X53833000Y-88272000D01*
X53873000Y-88410000D02*
X53873000Y-88199000D01*
X53873000Y-90701000D02*
X53873000Y-90490000D01*
X53913000Y-88410000D02*
X53913000Y-88131000D01*
X53913000Y-90769000D02*
X53913000Y-90490000D01*
X53953000Y-88410000D02*
X53953000Y-88067000D01*
X53953000Y-90833000D02*
X53953000Y-90490000D01*
X53993000Y-88410000D02*
X53993000Y-88007000D01*
X53993000Y-90893000D02*
X53993000Y-90490000D01*
X54033000Y-88410000D02*
X54033000Y-87950000D01*
X54033000Y-90950000D02*
X54033000Y-90490000D01*
X54073000Y-88410000D02*
X54073000Y-87896000D01*
X54073000Y-91004000D02*
X54073000Y-90490000D01*
X54113000Y-88410000D02*
X54113000Y-87845000D01*
X54113000Y-91055000D02*
X54113000Y-90490000D01*
X54153000Y-88410000D02*
X54153000Y-87797000D01*
X54153000Y-91103000D02*
X54153000Y-90490000D01*
X54193000Y-88410000D02*
X54193000Y-87751000D01*
X54193000Y-91149000D02*
X54193000Y-90490000D01*
X54233000Y-88410000D02*
X54233000Y-87707000D01*
X54233000Y-91193000D02*
X54233000Y-90490000D01*
X54273000Y-88410000D02*
X54273000Y-87665000D01*
X54273000Y-91235000D02*
X54273000Y-90490000D01*
X54313000Y-88410000D02*
X54313000Y-87624000D01*
X54313000Y-91276000D02*
X54313000Y-90490000D01*
X54353000Y-88410000D02*
X54353000Y-87586000D01*
X54353000Y-91314000D02*
X54353000Y-90490000D01*
X54393000Y-88410000D02*
X54393000Y-87549000D01*
X54393000Y-91351000D02*
X54393000Y-90490000D01*
X54433000Y-88410000D02*
X54433000Y-87513000D01*
X54433000Y-91387000D02*
X54433000Y-90490000D01*
X54473000Y-88410000D02*
X54473000Y-87479000D01*
X54473000Y-91421000D02*
X54473000Y-90490000D01*
X54513000Y-88410000D02*
X54513000Y-87446000D01*
X54513000Y-91454000D02*
X54513000Y-90490000D01*
X54553000Y-88410000D02*
X54553000Y-87415000D01*
X54553000Y-91485000D02*
X54553000Y-90490000D01*
X54593000Y-88410000D02*
X54593000Y-87385000D01*
X54593000Y-91515000D02*
X54593000Y-90490000D01*
X54633000Y-88410000D02*
X54633000Y-87355000D01*
X54633000Y-91545000D02*
X54633000Y-90490000D01*
X54673000Y-88410000D02*
X54673000Y-87328000D01*
X54673000Y-91572000D02*
X54673000Y-90490000D01*
X54713000Y-88410000D02*
X54713000Y-87301000D01*
X54713000Y-91599000D02*
X54713000Y-90490000D01*
X54753000Y-88410000D02*
X54753000Y-87275000D01*
X54753000Y-91625000D02*
X54753000Y-90490000D01*
X54793000Y-88410000D02*
X54793000Y-87250000D01*
X54793000Y-91650000D02*
X54793000Y-90490000D01*
X54833000Y-88410000D02*
X54833000Y-87226000D01*
X54833000Y-91674000D02*
X54833000Y-90490000D01*
X54873000Y-88410000D02*
X54873000Y-87203000D01*
X54873000Y-91697000D02*
X54873000Y-90490000D01*
X54913000Y-88410000D02*
X54913000Y-87182000D01*
X54913000Y-91718000D02*
X54913000Y-90490000D01*
X54953000Y-88410000D02*
X54953000Y-87160000D01*
X54953000Y-91740000D02*
X54953000Y-90490000D01*
X54993000Y-88410000D02*
X54993000Y-87140000D01*
X54993000Y-91760000D02*
X54993000Y-90490000D01*
X55033000Y-88410000D02*
X55033000Y-87121000D01*
X55033000Y-91779000D02*
X55033000Y-90490000D01*
X55073000Y-88410000D02*
X55073000Y-87102000D01*
X55073000Y-91798000D02*
X55073000Y-90490000D01*
X55113000Y-88410000D02*
X55113000Y-87085000D01*
X55113000Y-91815000D02*
X55113000Y-90490000D01*
X55153000Y-88410000D02*
X55153000Y-87068000D01*
X55153000Y-91832000D02*
X55153000Y-90490000D01*
X55193000Y-88410000D02*
X55193000Y-87052000D01*
X55193000Y-91848000D02*
X55193000Y-90490000D01*
X55233000Y-88410000D02*
X55233000Y-87036000D01*
X55233000Y-91864000D02*
X55233000Y-90490000D01*
X55273000Y-88410000D02*
X55273000Y-87022000D01*
X55273000Y-91878000D02*
X55273000Y-90490000D01*
X55313000Y-88410000D02*
X55313000Y-87008000D01*
X55313000Y-91892000D02*
X55313000Y-90490000D01*
X55353000Y-88410000D02*
X55353000Y-86995000D01*
X55353000Y-91905000D02*
X55353000Y-90490000D01*
X55393000Y-88410000D02*
X55393000Y-86982000D01*
X55393000Y-91918000D02*
X55393000Y-90490000D01*
X55433000Y-88410000D02*
X55433000Y-86970000D01*
X55433000Y-91930000D02*
X55433000Y-90490000D01*
X55474000Y-88410000D02*
X55474000Y-86959000D01*
X55474000Y-91941000D02*
X55474000Y-90490000D01*
X55514000Y-88410000D02*
X55514000Y-86949000D01*
X55514000Y-91951000D02*
X55514000Y-90490000D01*
X55554000Y-88410000D02*
X55554000Y-86939000D01*
X55554000Y-91961000D02*
X55554000Y-90490000D01*
X55594000Y-88410000D02*
X55594000Y-86930000D01*
X55594000Y-91970000D02*
X55594000Y-90490000D01*
X55634000Y-88410000D02*
X55634000Y-86922000D01*
X55634000Y-91978000D02*
X55634000Y-90490000D01*
X55674000Y-88410000D02*
X55674000Y-86914000D01*
X55674000Y-91986000D02*
X55674000Y-90490000D01*
X55714000Y-88410000D02*
X55714000Y-86907000D01*
X55714000Y-91993000D02*
X55714000Y-90490000D01*
X55754000Y-88410000D02*
X55754000Y-86900000D01*
X55754000Y-92000000D02*
X55754000Y-90490000D01*
X55794000Y-88410000D02*
X55794000Y-86894000D01*
X55794000Y-92006000D02*
X55794000Y-90490000D01*
X55834000Y-88410000D02*
X55834000Y-86889000D01*
X55834000Y-92011000D02*
X55834000Y-90490000D01*
X55874000Y-88410000D02*
X55874000Y-86885000D01*
X55874000Y-92015000D02*
X55874000Y-90490000D01*
X55914000Y-88410000D02*
X55914000Y-86881000D01*
X55914000Y-92019000D02*
X55914000Y-90490000D01*
X55954000Y-92023000D02*
X55954000Y-86877000D01*
X55994000Y-92026000D02*
X55994000Y-86874000D01*
X56034000Y-92028000D02*
X56034000Y-86872000D01*
X56074000Y-92029000D02*
X56074000Y-86871000D01*
X56114000Y-92030000D02*
X56114000Y-86870000D01*
X56154000Y-92030000D02*
X56154000Y-86870000D01*
X58774000Y-89450000D02*
G75*
G03*
X58774000Y-89450000I-2620000J0D01*
G01*
%TO.C,CN1*%
X50460000Y-125810000D02*
X50460000Y-95210000D01*
X50460000Y-95210000D02*
X47800000Y-95210000D01*
X47800000Y-95210000D02*
X47800000Y-125810000D01*
X47800000Y-125810000D02*
X50460000Y-125810000D01*
X47800000Y-124860000D02*
X41800000Y-124860000D01*
X41800000Y-124860000D02*
X41800000Y-124100000D01*
X41800000Y-124100000D02*
X47800000Y-124100000D01*
X47800000Y-124800000D02*
X41800000Y-124800000D01*
X47800000Y-124680000D02*
X41800000Y-124680000D01*
X47800000Y-124560000D02*
X41800000Y-124560000D01*
X47800000Y-124440000D02*
X41800000Y-124440000D01*
X47800000Y-124320000D02*
X41800000Y-124320000D01*
X47800000Y-124200000D02*
X41800000Y-124200000D01*
X50857071Y-124860000D02*
X50460000Y-124860000D01*
X50857071Y-124100000D02*
X50460000Y-124100000D01*
X53330000Y-124860000D02*
X52942929Y-124860000D01*
X53330000Y-124100000D02*
X52942929Y-124100000D01*
X50460000Y-123210000D02*
X47800000Y-123210000D01*
X47800000Y-122320000D02*
X41800000Y-122320000D01*
X41800000Y-122320000D02*
X41800000Y-121560000D01*
X41800000Y-121560000D02*
X47800000Y-121560000D01*
X50857071Y-122320000D02*
X50460000Y-122320000D01*
X50857071Y-121560000D02*
X50460000Y-121560000D01*
X53397071Y-122320000D02*
X52942929Y-122320000D01*
X53397071Y-121560000D02*
X52942929Y-121560000D01*
X50460000Y-120670000D02*
X47800000Y-120670000D01*
X47800000Y-119780000D02*
X41800000Y-119780000D01*
X41800000Y-119780000D02*
X41800000Y-119020000D01*
X41800000Y-119020000D02*
X47800000Y-119020000D01*
X50857071Y-119780000D02*
X50460000Y-119780000D01*
X50857071Y-119020000D02*
X50460000Y-119020000D01*
X53397071Y-119780000D02*
X52942929Y-119780000D01*
X53397071Y-119020000D02*
X52942929Y-119020000D01*
X50460000Y-118130000D02*
X47800000Y-118130000D01*
X47800000Y-117240000D02*
X41800000Y-117240000D01*
X41800000Y-117240000D02*
X41800000Y-116480000D01*
X41800000Y-116480000D02*
X47800000Y-116480000D01*
X50857071Y-117240000D02*
X50460000Y-117240000D01*
X50857071Y-116480000D02*
X50460000Y-116480000D01*
X53397071Y-117240000D02*
X52942929Y-117240000D01*
X53397071Y-116480000D02*
X52942929Y-116480000D01*
X50460000Y-115590000D02*
X47800000Y-115590000D01*
X47800000Y-114700000D02*
X41800000Y-114700000D01*
X41800000Y-114700000D02*
X41800000Y-113940000D01*
X41800000Y-113940000D02*
X47800000Y-113940000D01*
X50857071Y-114700000D02*
X50460000Y-114700000D01*
X50857071Y-113940000D02*
X50460000Y-113940000D01*
X53397071Y-114700000D02*
X52942929Y-114700000D01*
X53397071Y-113940000D02*
X52942929Y-113940000D01*
X50460000Y-113050000D02*
X47800000Y-113050000D01*
X47800000Y-112160000D02*
X41800000Y-112160000D01*
X41800000Y-112160000D02*
X41800000Y-111400000D01*
X41800000Y-111400000D02*
X47800000Y-111400000D01*
X50857071Y-112160000D02*
X50460000Y-112160000D01*
X50857071Y-111400000D02*
X50460000Y-111400000D01*
X53397071Y-112160000D02*
X52942929Y-112160000D01*
X53397071Y-111400000D02*
X52942929Y-111400000D01*
X50460000Y-110510000D02*
X47800000Y-110510000D01*
X47800000Y-109620000D02*
X41800000Y-109620000D01*
X41800000Y-109620000D02*
X41800000Y-108860000D01*
X41800000Y-108860000D02*
X47800000Y-108860000D01*
X50857071Y-109620000D02*
X50460000Y-109620000D01*
X50857071Y-108860000D02*
X50460000Y-108860000D01*
X53397071Y-109620000D02*
X52942929Y-109620000D01*
X53397071Y-108860000D02*
X52942929Y-108860000D01*
X50460000Y-107970000D02*
X47800000Y-107970000D01*
X47800000Y-107080000D02*
X41800000Y-107080000D01*
X41800000Y-107080000D02*
X41800000Y-106320000D01*
X41800000Y-106320000D02*
X47800000Y-106320000D01*
X50857071Y-107080000D02*
X50460000Y-107080000D01*
X50857071Y-106320000D02*
X50460000Y-106320000D01*
X53397071Y-107080000D02*
X52942929Y-107080000D01*
X53397071Y-106320000D02*
X52942929Y-106320000D01*
X50460000Y-105430000D02*
X47800000Y-105430000D01*
X47800000Y-104540000D02*
X41800000Y-104540000D01*
X41800000Y-104540000D02*
X41800000Y-103780000D01*
X41800000Y-103780000D02*
X47800000Y-103780000D01*
X50857071Y-104540000D02*
X50460000Y-104540000D01*
X50857071Y-103780000D02*
X50460000Y-103780000D01*
X53397071Y-104540000D02*
X52942929Y-104540000D01*
X53397071Y-103780000D02*
X52942929Y-103780000D01*
X50460000Y-102890000D02*
X47800000Y-102890000D01*
X47800000Y-102000000D02*
X41800000Y-102000000D01*
X41800000Y-102000000D02*
X41800000Y-101240000D01*
X41800000Y-101240000D02*
X47800000Y-101240000D01*
X50857071Y-102000000D02*
X50460000Y-102000000D01*
X50857071Y-101240000D02*
X50460000Y-101240000D01*
X53397071Y-102000000D02*
X52942929Y-102000000D01*
X53397071Y-101240000D02*
X52942929Y-101240000D01*
X50460000Y-100350000D02*
X47800000Y-100350000D01*
X47800000Y-99460000D02*
X41800000Y-99460000D01*
X41800000Y-99460000D02*
X41800000Y-98700000D01*
X41800000Y-98700000D02*
X47800000Y-98700000D01*
X50857071Y-99460000D02*
X50460000Y-99460000D01*
X50857071Y-98700000D02*
X50460000Y-98700000D01*
X53397071Y-99460000D02*
X52942929Y-99460000D01*
X53397071Y-98700000D02*
X52942929Y-98700000D01*
X50460000Y-97810000D02*
X47800000Y-97810000D01*
X47800000Y-96920000D02*
X41800000Y-96920000D01*
X41800000Y-96920000D02*
X41800000Y-96160000D01*
X41800000Y-96160000D02*
X47800000Y-96160000D01*
X50857071Y-96920000D02*
X50460000Y-96920000D01*
X50857071Y-96160000D02*
X50460000Y-96160000D01*
X53397071Y-96920000D02*
X52942929Y-96920000D01*
X53397071Y-96160000D02*
X52942929Y-96160000D01*
X55710000Y-124480000D02*
X55710000Y-125750000D01*
X55710000Y-125750000D02*
X54440000Y-125750000D01*
%TO.C,U3*%
X62380000Y-110003000D02*
X72880000Y-110003000D01*
X62380000Y-91983000D02*
X62380000Y-110003000D01*
X72880000Y-91983000D02*
X62380000Y-91983000D01*
X72880000Y-110003000D02*
X72880000Y-91983000D01*
X65380000Y-109943000D02*
X66630000Y-109943000D01*
X65380000Y-92043000D02*
X65380000Y-109943000D01*
X69880000Y-92043000D02*
X65380000Y-92043000D01*
X69880000Y-109943000D02*
X69880000Y-92043000D01*
X68630000Y-109943000D02*
X69880000Y-109943000D01*
X66630000Y-109943000D02*
G75*
G02*
X68630000Y-109943000I1000000J0D01*
G01*
%TO.C,U2*%
X62380000Y-133080000D02*
X72880000Y-133080000D01*
X62380000Y-115060000D02*
X62380000Y-133080000D01*
X72880000Y-115060000D02*
X62380000Y-115060000D01*
X72880000Y-133080000D02*
X72880000Y-115060000D01*
X65380000Y-133020000D02*
X66630000Y-133020000D01*
X65380000Y-115120000D02*
X65380000Y-133020000D01*
X69880000Y-115120000D02*
X65380000Y-115120000D01*
X69880000Y-133020000D02*
X69880000Y-115120000D01*
X68630000Y-133020000D02*
X69880000Y-133020000D01*
X66630000Y-133020000D02*
G75*
G02*
X68630000Y-133020000I1000000J0D01*
G01*
%TO.C,U1*%
X100494200Y-86850000D02*
X100494200Y-88360000D01*
X96793200Y-86850000D02*
X96793200Y-88360000D01*
X93523200Y-88360000D02*
X103763200Y-88360000D01*
X103763200Y-86850000D02*
X103763200Y-91491000D01*
X93523200Y-86850000D02*
X93523200Y-91491000D01*
X93523200Y-91491000D02*
X103763200Y-91491000D01*
X93523200Y-86850000D02*
X103763200Y-86850000D01*
%TO.C,R10*%
X107648000Y-104077500D02*
X107648000Y-103307500D01*
X107648000Y-95997500D02*
X107648000Y-96767500D01*
X109018000Y-103307500D02*
X109018000Y-96767500D01*
X106278000Y-103307500D02*
X109018000Y-103307500D01*
X106278000Y-96767500D02*
X106278000Y-103307500D01*
X109018000Y-96767500D02*
X106278000Y-96767500D01*
%TO.C,R9*%
X114322000Y-104077500D02*
X114322000Y-103307500D01*
X114322000Y-95997500D02*
X114322000Y-96767500D01*
X115692000Y-103307500D02*
X115692000Y-96767500D01*
X112952000Y-103307500D02*
X115692000Y-103307500D01*
X112952000Y-96767500D02*
X112952000Y-103307500D01*
X115692000Y-96767500D02*
X112952000Y-96767500D01*
%TO.C,R8*%
X63280000Y-89450000D02*
X64050000Y-89450000D01*
X71360000Y-89450000D02*
X70590000Y-89450000D01*
X64050000Y-90820000D02*
X70590000Y-90820000D01*
X64050000Y-88080000D02*
X64050000Y-90820000D01*
X70590000Y-88080000D02*
X64050000Y-88080000D01*
X70590000Y-90820000D02*
X70590000Y-88080000D01*
%TO.C,R7*%
X75770000Y-95913300D02*
X76540000Y-95913300D01*
X83850000Y-95913300D02*
X83080000Y-95913300D01*
X76540000Y-97283300D02*
X83080000Y-97283300D01*
X76540000Y-94543300D02*
X76540000Y-97283300D01*
X83080000Y-94543300D02*
X76540000Y-94543300D01*
X83080000Y-97283300D02*
X83080000Y-94543300D01*
%TO.C,R6*%
X75770000Y-100993000D02*
X76540000Y-100993000D01*
X83850000Y-100993000D02*
X83080000Y-100993000D01*
X76540000Y-102363000D02*
X83080000Y-102363000D01*
X76540000Y-99623000D02*
X76540000Y-102363000D01*
X83080000Y-99623000D02*
X76540000Y-99623000D01*
X83080000Y-102363000D02*
X83080000Y-99623000D01*
%TO.C,R5*%
X75770000Y-106073000D02*
X76540000Y-106073000D01*
X83850000Y-106073000D02*
X83080000Y-106073000D01*
X76540000Y-107443000D02*
X83080000Y-107443000D01*
X76540000Y-104703000D02*
X76540000Y-107443000D01*
X83080000Y-104703000D02*
X76540000Y-104703000D01*
X83080000Y-107443000D02*
X83080000Y-104703000D01*
%TO.C,R4*%
X63280000Y-112527000D02*
X64050000Y-112527000D01*
X71360000Y-112527000D02*
X70590000Y-112527000D01*
X64050000Y-113897000D02*
X70590000Y-113897000D01*
X64050000Y-111157000D02*
X64050000Y-113897000D01*
X70590000Y-111157000D02*
X64050000Y-111157000D01*
X70590000Y-113897000D02*
X70590000Y-111157000D01*
%TO.C,R3*%
X75770000Y-118990000D02*
X76540000Y-118990000D01*
X83850000Y-118990000D02*
X83080000Y-118990000D01*
X76540000Y-120360000D02*
X83080000Y-120360000D01*
X76540000Y-117620000D02*
X76540000Y-120360000D01*
X83080000Y-117620000D02*
X76540000Y-117620000D01*
X83080000Y-120360000D02*
X83080000Y-117620000D01*
%TO.C,R2*%
X75770000Y-124070000D02*
X76540000Y-124070000D01*
X83850000Y-124070000D02*
X83080000Y-124070000D01*
X76540000Y-125440000D02*
X83080000Y-125440000D01*
X76540000Y-122700000D02*
X76540000Y-125440000D01*
X83080000Y-122700000D02*
X76540000Y-122700000D01*
X83080000Y-125440000D02*
X83080000Y-122700000D01*
%TO.C,R1*%
X75770000Y-129150000D02*
X76540000Y-129150000D01*
X83850000Y-129150000D02*
X83080000Y-129150000D01*
X76540000Y-130520000D02*
X83080000Y-130520000D01*
X76540000Y-127780000D02*
X76540000Y-130520000D01*
X83080000Y-127780000D02*
X76540000Y-127780000D01*
X83080000Y-130520000D02*
X83080000Y-127780000D01*
%TO.C,Q8*%
X77600000Y-87650000D02*
X77600000Y-91250000D01*
X77611522Y-91288478D02*
G75*
G03*
X82050000Y-89450000I1838478J1838478D01*
G01*
X77611522Y-87611522D02*
G75*
G02*
X82050000Y-89450000I1838478J-1838478D01*
G01*
%TO.C,Q7*%
X88830000Y-94113300D02*
X88830000Y-97713300D01*
X88841522Y-97751778D02*
G75*
G03*
X93280000Y-95913300I1838478J1838478D01*
G01*
X88841522Y-94074822D02*
G75*
G02*
X93280000Y-95913300I1838478J-1838478D01*
G01*
%TO.C,Q6*%
X95130000Y-99193300D02*
X95130000Y-102793300D01*
X95141522Y-102831778D02*
G75*
G03*
X99580000Y-100993300I1838478J1838478D01*
G01*
X95141522Y-99154822D02*
G75*
G02*
X99580000Y-100993300I1838478J-1838478D01*
G01*
%TO.C,Q5*%
X88830000Y-104273000D02*
X88830000Y-107873000D01*
X88841522Y-107911478D02*
G75*
G03*
X93280000Y-106073000I1838478J1838478D01*
G01*
X88841522Y-104234522D02*
G75*
G02*
X93280000Y-106073000I1838478J-1838478D01*
G01*
%TO.C,Q4*%
X77600000Y-110730000D02*
X77600000Y-114330000D01*
X77611522Y-114368478D02*
G75*
G03*
X82050000Y-112530000I1838478J1838478D01*
G01*
X77611522Y-110691522D02*
G75*
G02*
X82050000Y-112530000I1838478J-1838478D01*
G01*
%TO.C,Q3*%
X88830000Y-117190000D02*
X88830000Y-120790000D01*
X88841522Y-120828478D02*
G75*
G03*
X93280000Y-118990000I1838478J1838478D01*
G01*
X88841522Y-117151522D02*
G75*
G02*
X93280000Y-118990000I1838478J-1838478D01*
G01*
%TO.C,Q2*%
X95130000Y-122270000D02*
X95130000Y-125870000D01*
X95141522Y-125908478D02*
G75*
G03*
X99580000Y-124070000I1838478J1838478D01*
G01*
X95141522Y-122231522D02*
G75*
G02*
X99580000Y-124070000I1838478J-1838478D01*
G01*
%TO.C,Q1*%
X88830000Y-127350000D02*
X88830000Y-130950000D01*
X88841522Y-130988478D02*
G75*
G03*
X93280000Y-129150000I1838478J1838478D01*
G01*
X88841522Y-127311522D02*
G75*
G02*
X93280000Y-129150000I1838478J-1838478D01*
G01*
%TO.C,J3*%
X111785000Y-133114000D02*
X112185000Y-133114000D01*
X111785000Y-132474000D02*
X111785000Y-133114000D01*
X122886000Y-126134000D02*
X122886000Y-132874000D01*
X112025000Y-126134000D02*
X112025000Y-132874000D01*
X112025000Y-132874000D02*
X122886000Y-132874000D01*
X112025000Y-126134000D02*
X122886000Y-126134000D01*
X112025000Y-127254000D02*
X122886000Y-127254000D01*
X112025000Y-132354000D02*
X122886000Y-132354000D01*
%TO.C,J2*%
X100014000Y-133114000D02*
X100414000Y-133114000D01*
X100014000Y-132474000D02*
X100014000Y-133114000D01*
X111115000Y-126134000D02*
X111115000Y-132874000D01*
X100254000Y-126134000D02*
X100254000Y-132874000D01*
X100254000Y-132874000D02*
X111115000Y-132874000D01*
X100254000Y-126134000D02*
X111115000Y-126134000D01*
X100254000Y-127254000D02*
X111115000Y-127254000D01*
X100254000Y-132354000D02*
X111115000Y-132354000D01*
%TO.C,D2*%
X107358000Y-90050000D02*
X107358000Y-90206000D01*
X107358000Y-87734000D02*
X107358000Y-87890000D01*
X109959130Y-90049837D02*
G75*
G02*
X107877039Y-90050000I-1041130J1079837D01*
G01*
X109959130Y-87890163D02*
G75*
G03*
X107877039Y-87890000I-1041130J-1079837D01*
G01*
X110590335Y-90048608D02*
G75*
G02*
X107358000Y-90205516I-1672335J1078608D01*
G01*
X110590335Y-87891392D02*
G75*
G03*
X107358000Y-87734484I-1672335J-1078608D01*
G01*
%TO.C,D1*%
X114032000Y-90050000D02*
X114032000Y-90206000D01*
X114032000Y-87734000D02*
X114032000Y-87890000D01*
X116633130Y-90049837D02*
G75*
G02*
X114551039Y-90050000I-1041130J1079837D01*
G01*
X116633130Y-87890163D02*
G75*
G03*
X114551039Y-87890000I-1041130J-1079837D01*
G01*
X117264335Y-90048608D02*
G75*
G02*
X114032000Y-90205516I-1672335J1078608D01*
G01*
X117264335Y-87891392D02*
G75*
G03*
X114032000Y-87734484I-1672335J-1078608D01*
G01*
%TO.C,C5*%
X61135000Y-105893000D02*
X61760000Y-105893000D01*
X58920000Y-105893000D02*
X59545000Y-105893000D01*
X61135000Y-109933000D02*
X61760000Y-109933000D01*
X58920000Y-109933000D02*
X59545000Y-109933000D01*
X61760000Y-109933000D02*
X61760000Y-105893000D01*
X58920000Y-109933000D02*
X58920000Y-105893000D01*
%TO.C,C4*%
X61135000Y-128970000D02*
X61760000Y-128970000D01*
X58920000Y-128970000D02*
X59545000Y-128970000D01*
X61135000Y-133010000D02*
X61760000Y-133010000D01*
X58920000Y-133010000D02*
X59545000Y-133010000D01*
X61760000Y-133010000D02*
X61760000Y-128970000D01*
X58920000Y-133010000D02*
X58920000Y-128970000D01*
%TO.C,C2*%
X132484000Y-109732000D02*
X131859000Y-109732000D01*
X134699000Y-109732000D02*
X134074000Y-109732000D01*
X132484000Y-105692000D02*
X131859000Y-105692000D01*
X134699000Y-105692000D02*
X134074000Y-105692000D01*
X131859000Y-105692000D02*
X131859000Y-109732000D01*
X134699000Y-105692000D02*
X134699000Y-109732000D01*
%TO.C,C1*%
X88855000Y-87005025D02*
X88355000Y-87005025D01*
X88605000Y-86755025D02*
X88605000Y-87255025D01*
X87414000Y-92160800D02*
X86846000Y-92160800D01*
X87648000Y-92120800D02*
X86612000Y-92120800D01*
X87807000Y-92080800D02*
X86453000Y-92080800D01*
X87935000Y-92040800D02*
X86325000Y-92040800D01*
X88045000Y-92000800D02*
X86215000Y-92000800D01*
X88141000Y-91960800D02*
X86119000Y-91960800D01*
X88228000Y-91920800D02*
X86032000Y-91920800D01*
X88308000Y-91880800D02*
X85952000Y-91880800D01*
X86090000Y-91840800D02*
X85879000Y-91840800D01*
X88381000Y-91840800D02*
X88170000Y-91840800D01*
X86090000Y-91800800D02*
X85811000Y-91800800D01*
X88449000Y-91800800D02*
X88170000Y-91800800D01*
X86090000Y-91760800D02*
X85747000Y-91760800D01*
X88513000Y-91760800D02*
X88170000Y-91760800D01*
X86090000Y-91720800D02*
X85687000Y-91720800D01*
X88573000Y-91720800D02*
X88170000Y-91720800D01*
X86090000Y-91680800D02*
X85630000Y-91680800D01*
X88630000Y-91680800D02*
X88170000Y-91680800D01*
X86090000Y-91640800D02*
X85576000Y-91640800D01*
X88684000Y-91640800D02*
X88170000Y-91640800D01*
X86090000Y-91600800D02*
X85525000Y-91600800D01*
X88735000Y-91600800D02*
X88170000Y-91600800D01*
X86090000Y-91560800D02*
X85477000Y-91560800D01*
X88783000Y-91560800D02*
X88170000Y-91560800D01*
X86090000Y-91520800D02*
X85431000Y-91520800D01*
X88829000Y-91520800D02*
X88170000Y-91520800D01*
X86090000Y-91480800D02*
X85387000Y-91480800D01*
X88873000Y-91480800D02*
X88170000Y-91480800D01*
X86090000Y-91440800D02*
X85345000Y-91440800D01*
X88915000Y-91440800D02*
X88170000Y-91440800D01*
X86090000Y-91400800D02*
X85304000Y-91400800D01*
X88956000Y-91400800D02*
X88170000Y-91400800D01*
X86090000Y-91360800D02*
X85266000Y-91360800D01*
X88994000Y-91360800D02*
X88170000Y-91360800D01*
X86090000Y-91320800D02*
X85229000Y-91320800D01*
X89031000Y-91320800D02*
X88170000Y-91320800D01*
X86090000Y-91280800D02*
X85193000Y-91280800D01*
X89067000Y-91280800D02*
X88170000Y-91280800D01*
X86090000Y-91240800D02*
X85159000Y-91240800D01*
X89101000Y-91240800D02*
X88170000Y-91240800D01*
X86090000Y-91200800D02*
X85126000Y-91200800D01*
X89134000Y-91200800D02*
X88170000Y-91200800D01*
X86090000Y-91160800D02*
X85095000Y-91160800D01*
X89165000Y-91160800D02*
X88170000Y-91160800D01*
X86090000Y-91120800D02*
X85065000Y-91120800D01*
X89195000Y-91120800D02*
X88170000Y-91120800D01*
X86090000Y-91080800D02*
X85035000Y-91080800D01*
X89225000Y-91080800D02*
X88170000Y-91080800D01*
X86090000Y-91040800D02*
X85008000Y-91040800D01*
X89252000Y-91040800D02*
X88170000Y-91040800D01*
X86090000Y-91000800D02*
X84981000Y-91000800D01*
X89279000Y-91000800D02*
X88170000Y-91000800D01*
X86090000Y-90960800D02*
X84955000Y-90960800D01*
X89305000Y-90960800D02*
X88170000Y-90960800D01*
X86090000Y-90920800D02*
X84930000Y-90920800D01*
X89330000Y-90920800D02*
X88170000Y-90920800D01*
X86090000Y-90880800D02*
X84906000Y-90880800D01*
X89354000Y-90880800D02*
X88170000Y-90880800D01*
X86090000Y-90840800D02*
X84883000Y-90840800D01*
X89377000Y-90840800D02*
X88170000Y-90840800D01*
X86090000Y-90800800D02*
X84862000Y-90800800D01*
X89398000Y-90800800D02*
X88170000Y-90800800D01*
X86090000Y-90760800D02*
X84840000Y-90760800D01*
X89420000Y-90760800D02*
X88170000Y-90760800D01*
X86090000Y-90720800D02*
X84820000Y-90720800D01*
X89440000Y-90720800D02*
X88170000Y-90720800D01*
X86090000Y-90680800D02*
X84801000Y-90680800D01*
X89459000Y-90680800D02*
X88170000Y-90680800D01*
X86090000Y-90640800D02*
X84782000Y-90640800D01*
X89478000Y-90640800D02*
X88170000Y-90640800D01*
X86090000Y-90600800D02*
X84765000Y-90600800D01*
X89495000Y-90600800D02*
X88170000Y-90600800D01*
X86090000Y-90560800D02*
X84748000Y-90560800D01*
X89512000Y-90560800D02*
X88170000Y-90560800D01*
X86090000Y-90520800D02*
X84732000Y-90520800D01*
X89528000Y-90520800D02*
X88170000Y-90520800D01*
X86090000Y-90480800D02*
X84716000Y-90480800D01*
X89544000Y-90480800D02*
X88170000Y-90480800D01*
X86090000Y-90440800D02*
X84702000Y-90440800D01*
X89558000Y-90440800D02*
X88170000Y-90440800D01*
X86090000Y-90400800D02*
X84688000Y-90400800D01*
X89572000Y-90400800D02*
X88170000Y-90400800D01*
X86090000Y-90360800D02*
X84675000Y-90360800D01*
X89585000Y-90360800D02*
X88170000Y-90360800D01*
X86090000Y-90320800D02*
X84662000Y-90320800D01*
X89598000Y-90320800D02*
X88170000Y-90320800D01*
X86090000Y-90280800D02*
X84650000Y-90280800D01*
X89610000Y-90280800D02*
X88170000Y-90280800D01*
X86090000Y-90239800D02*
X84639000Y-90239800D01*
X89621000Y-90239800D02*
X88170000Y-90239800D01*
X86090000Y-90199800D02*
X84629000Y-90199800D01*
X89631000Y-90199800D02*
X88170000Y-90199800D01*
X86090000Y-90159800D02*
X84619000Y-90159800D01*
X89641000Y-90159800D02*
X88170000Y-90159800D01*
X86090000Y-90119800D02*
X84610000Y-90119800D01*
X89650000Y-90119800D02*
X88170000Y-90119800D01*
X86090000Y-90079800D02*
X84602000Y-90079800D01*
X89658000Y-90079800D02*
X88170000Y-90079800D01*
X86090000Y-90039800D02*
X84594000Y-90039800D01*
X89666000Y-90039800D02*
X88170000Y-90039800D01*
X86090000Y-89999800D02*
X84587000Y-89999800D01*
X89673000Y-89999800D02*
X88170000Y-89999800D01*
X86090000Y-89959800D02*
X84580000Y-89959800D01*
X89680000Y-89959800D02*
X88170000Y-89959800D01*
X86090000Y-89919800D02*
X84574000Y-89919800D01*
X89686000Y-89919800D02*
X88170000Y-89919800D01*
X86090000Y-89879800D02*
X84569000Y-89879800D01*
X89691000Y-89879800D02*
X88170000Y-89879800D01*
X86090000Y-89839800D02*
X84565000Y-89839800D01*
X89695000Y-89839800D02*
X88170000Y-89839800D01*
X86090000Y-89799800D02*
X84561000Y-89799800D01*
X89699000Y-89799800D02*
X88170000Y-89799800D01*
X89703000Y-89759800D02*
X84557000Y-89759800D01*
X89706000Y-89719800D02*
X84554000Y-89719800D01*
X89708000Y-89679800D02*
X84552000Y-89679800D01*
X89709000Y-89639800D02*
X84551000Y-89639800D01*
X89710000Y-89599800D02*
X84550000Y-89599800D01*
X89710000Y-89559800D02*
X84550000Y-89559800D01*
X89750000Y-89559800D02*
G75*
G03*
X89750000Y-89559800I-2620000J0D01*
G01*
%TO.C,J1*%
D14*
X124789666Y-91717023D02*
X124789666Y-92624166D01*
X124729190Y-92805595D01*
X124608238Y-92926547D01*
X124426809Y-92987023D01*
X124305857Y-92987023D01*
X126059666Y-92987023D02*
X125333952Y-92987023D01*
X125696809Y-92987023D02*
X125696809Y-91717023D01*
X125575857Y-91898452D01*
X125454904Y-92019404D01*
X125333952Y-92079880D01*
%TO.C,C6*%
D12*
X136307853Y-116972662D02*
X136260234Y-117020281D01*
X136117377Y-117067900D01*
X136022139Y-117067900D01*
X135879281Y-117020281D01*
X135784043Y-116925043D01*
X135736424Y-116829805D01*
X135688805Y-116639329D01*
X135688805Y-116496472D01*
X135736424Y-116305996D01*
X135784043Y-116210758D01*
X135879281Y-116115520D01*
X136022139Y-116067900D01*
X136117377Y-116067900D01*
X136260234Y-116115520D01*
X136307853Y-116163139D01*
X137164996Y-116067900D02*
X136974520Y-116067900D01*
X136879281Y-116115520D01*
X136831662Y-116163139D01*
X136736424Y-116305996D01*
X136688805Y-116496472D01*
X136688805Y-116877424D01*
X136736424Y-116972662D01*
X136784043Y-117020281D01*
X136879281Y-117067900D01*
X137069758Y-117067900D01*
X137164996Y-117020281D01*
X137212615Y-116972662D01*
X137260234Y-116877424D01*
X137260234Y-116639329D01*
X137212615Y-116544091D01*
X137164996Y-116496472D01*
X137069758Y-116448853D01*
X136879281Y-116448853D01*
X136784043Y-116496472D01*
X136736424Y-116544091D01*
X136688805Y-116639329D01*
%TO.C,J4*%
X133113186Y-126010420D02*
X133113186Y-126724706D01*
X133065567Y-126867563D01*
X132970329Y-126962801D01*
X132827472Y-127010420D01*
X132732234Y-127010420D01*
X134017948Y-126343754D02*
X134017948Y-127010420D01*
X133779853Y-125962801D02*
X133541758Y-126677087D01*
X134160805Y-126677087D01*
X123859761Y-125410220D02*
X123288333Y-125410220D01*
X123574047Y-125410220D02*
X123574047Y-124410220D01*
X123478809Y-124553078D01*
X123383571Y-124648316D01*
X123288333Y-124695935D01*
X124240714Y-124505459D02*
X124288333Y-124457840D01*
X124383571Y-124410220D01*
X124621666Y-124410220D01*
X124716904Y-124457840D01*
X124764523Y-124505459D01*
X124812142Y-124600697D01*
X124812142Y-124695935D01*
X124764523Y-124838792D01*
X124193095Y-125410220D01*
X124812142Y-125410220D01*
X125097857Y-124410220D02*
X125431190Y-125410220D01*
X125764523Y-124410220D01*
X126812142Y-124362601D02*
X125955000Y-125648316D01*
X127669285Y-124457840D02*
X127574047Y-124410220D01*
X127431190Y-124410220D01*
X127288333Y-124457840D01*
X127193095Y-124553078D01*
X127145476Y-124648316D01*
X127097857Y-124838792D01*
X127097857Y-124981649D01*
X127145476Y-125172125D01*
X127193095Y-125267363D01*
X127288333Y-125362601D01*
X127431190Y-125410220D01*
X127526428Y-125410220D01*
X127669285Y-125362601D01*
X127716904Y-125314982D01*
X127716904Y-124981649D01*
X127526428Y-124981649D01*
X128145476Y-125410220D02*
X128145476Y-124410220D01*
X128716904Y-125410220D01*
X128716904Y-124410220D01*
X129193095Y-125410220D02*
X129193095Y-124410220D01*
X129431190Y-124410220D01*
X129574047Y-124457840D01*
X129669285Y-124553078D01*
X129716904Y-124648316D01*
X129764523Y-124838792D01*
X129764523Y-124981649D01*
X129716904Y-125172125D01*
X129669285Y-125267363D01*
X129574047Y-125362601D01*
X129431190Y-125410220D01*
X129193095Y-125410220D01*
X130907380Y-124362601D02*
X130050238Y-125648316D01*
X131716904Y-124410220D02*
X131240714Y-124410220D01*
X131193095Y-124886411D01*
X131240714Y-124838792D01*
X131335952Y-124791173D01*
X131574047Y-124791173D01*
X131669285Y-124838792D01*
X131716904Y-124886411D01*
X131764523Y-124981649D01*
X131764523Y-125219744D01*
X131716904Y-125314982D01*
X131669285Y-125362601D01*
X131574047Y-125410220D01*
X131335952Y-125410220D01*
X131240714Y-125362601D01*
X131193095Y-125314982D01*
X132050238Y-124410220D02*
X132383571Y-125410220D01*
X132716904Y-124410220D01*
%TO.C,H4*%
X43154695Y-127091380D02*
X43154695Y-126091380D01*
X43154695Y-126567571D02*
X43726123Y-126567571D01*
X43726123Y-127091380D02*
X43726123Y-126091380D01*
X44630885Y-126424714D02*
X44630885Y-127091380D01*
X44392790Y-126043761D02*
X44154695Y-126758047D01*
X44773742Y-126758047D01*
%TO.C,H3*%
X131775495Y-87752180D02*
X131775495Y-86752180D01*
X131775495Y-87228371D02*
X132346923Y-87228371D01*
X132346923Y-87752180D02*
X132346923Y-86752180D01*
X132727876Y-86752180D02*
X133346923Y-86752180D01*
X133013590Y-87133133D01*
X133156447Y-87133133D01*
X133251685Y-87180752D01*
X133299304Y-87228371D01*
X133346923Y-87323609D01*
X133346923Y-87561704D01*
X133299304Y-87656942D01*
X133251685Y-87704561D01*
X133156447Y-87752180D01*
X132870733Y-87752180D01*
X132775495Y-87704561D01*
X132727876Y-87656942D01*
%TO.C,H2*%
X46685295Y-87955380D02*
X46685295Y-86955380D01*
X46685295Y-87431571D02*
X47256723Y-87431571D01*
X47256723Y-87955380D02*
X47256723Y-86955380D01*
X47685295Y-87050619D02*
X47732914Y-87003000D01*
X47828152Y-86955380D01*
X48066247Y-86955380D01*
X48161485Y-87003000D01*
X48209104Y-87050619D01*
X48256723Y-87145857D01*
X48256723Y-87241095D01*
X48209104Y-87383952D01*
X47637676Y-87955380D01*
X48256723Y-87955380D01*
%TO.C,U4*%
X133712580Y-105547903D02*
X134522104Y-105547903D01*
X134617342Y-105500284D01*
X134664961Y-105452665D01*
X134712580Y-105357427D01*
X134712580Y-105166951D01*
X134664961Y-105071713D01*
X134617342Y-105024094D01*
X134522104Y-104976475D01*
X133712580Y-104976475D01*
X134045914Y-104071713D02*
X134712580Y-104071713D01*
X133664961Y-104309808D02*
X134379247Y-104547903D01*
X134379247Y-103928856D01*
%TO.C,C3*%
X55987333Y-93557142D02*
X55939714Y-93604761D01*
X55796857Y-93652380D01*
X55701619Y-93652380D01*
X55558761Y-93604761D01*
X55463523Y-93509523D01*
X55415904Y-93414285D01*
X55368285Y-93223809D01*
X55368285Y-93080952D01*
X55415904Y-92890476D01*
X55463523Y-92795238D01*
X55558761Y-92700000D01*
X55701619Y-92652380D01*
X55796857Y-92652380D01*
X55939714Y-92700000D01*
X55987333Y-92747619D01*
X56320666Y-92652380D02*
X56939714Y-92652380D01*
X56606380Y-93033333D01*
X56749238Y-93033333D01*
X56844476Y-93080952D01*
X56892095Y-93128571D01*
X56939714Y-93223809D01*
X56939714Y-93461904D01*
X56892095Y-93557142D01*
X56844476Y-93604761D01*
X56749238Y-93652380D01*
X56463523Y-93652380D01*
X56368285Y-93604761D01*
X56320666Y-93557142D01*
%TO.C,CN1*%
X48094523Y-127107142D02*
X48046904Y-127154761D01*
X47904047Y-127202380D01*
X47808809Y-127202380D01*
X47665952Y-127154761D01*
X47570714Y-127059523D01*
X47523095Y-126964285D01*
X47475476Y-126773809D01*
X47475476Y-126630952D01*
X47523095Y-126440476D01*
X47570714Y-126345238D01*
X47665952Y-126250000D01*
X47808809Y-126202380D01*
X47904047Y-126202380D01*
X48046904Y-126250000D01*
X48094523Y-126297619D01*
X48523095Y-127202380D02*
X48523095Y-126202380D01*
X49094523Y-127202380D01*
X49094523Y-126202380D01*
X50094523Y-127202380D02*
X49523095Y-127202380D01*
X49808809Y-127202380D02*
X49808809Y-126202380D01*
X49713571Y-126345238D01*
X49618333Y-126440476D01*
X49523095Y-126488095D01*
%TO.C,U3*%
X60852380Y-93641571D02*
X61661904Y-93641571D01*
X61757142Y-93593952D01*
X61804761Y-93546333D01*
X61852380Y-93451095D01*
X61852380Y-93260619D01*
X61804761Y-93165381D01*
X61757142Y-93117762D01*
X61661904Y-93070143D01*
X60852380Y-93070143D01*
X60852380Y-92689190D02*
X60852380Y-92070143D01*
X61233333Y-92403476D01*
X61233333Y-92260619D01*
X61280952Y-92165381D01*
X61328571Y-92117762D01*
X61423809Y-92070143D01*
X61661904Y-92070143D01*
X61757142Y-92117762D01*
X61804761Y-92165381D01*
X61852380Y-92260619D01*
X61852380Y-92546333D01*
X61804761Y-92641571D01*
X61757142Y-92689190D01*
X67024880Y-104202285D02*
X67024880Y-103535619D01*
X68024880Y-103964190D01*
X67358214Y-102726095D02*
X68024880Y-102726095D01*
X66977261Y-102964190D02*
X67691547Y-103202285D01*
X67691547Y-102583238D01*
X67739166Y-102249904D02*
X67739166Y-101773714D01*
X68024880Y-102345142D02*
X67024880Y-102011809D01*
X68024880Y-101678476D01*
X68024880Y-101345142D02*
X67024880Y-101345142D01*
X67501071Y-101345142D02*
X67501071Y-100773714D01*
X68024880Y-100773714D02*
X67024880Y-100773714D01*
X67929642Y-99726095D02*
X67977261Y-99773714D01*
X68024880Y-99916571D01*
X68024880Y-100011809D01*
X67977261Y-100154666D01*
X67882023Y-100249904D01*
X67786785Y-100297523D01*
X67596309Y-100345142D01*
X67453452Y-100345142D01*
X67262976Y-100297523D01*
X67167738Y-100249904D01*
X67072500Y-100154666D01*
X67024880Y-100011809D01*
X67024880Y-99916571D01*
X67072500Y-99773714D01*
X67120119Y-99726095D01*
X67024880Y-99107047D02*
X67024880Y-99011809D01*
X67072500Y-98916571D01*
X67120119Y-98868952D01*
X67215357Y-98821333D01*
X67405833Y-98773714D01*
X67643928Y-98773714D01*
X67834404Y-98821333D01*
X67929642Y-98868952D01*
X67977261Y-98916571D01*
X68024880Y-99011809D01*
X68024880Y-99107047D01*
X67977261Y-99202285D01*
X67929642Y-99249904D01*
X67834404Y-99297523D01*
X67643928Y-99345142D01*
X67405833Y-99345142D01*
X67215357Y-99297523D01*
X67120119Y-99249904D01*
X67072500Y-99202285D01*
X67024880Y-99107047D01*
X67358214Y-97916571D02*
X68024880Y-97916571D01*
X66977261Y-98154666D02*
X67691547Y-98392761D01*
X67691547Y-97773714D01*
%TO.C,U2*%
X60666380Y-116585904D02*
X61475904Y-116585904D01*
X61571142Y-116538285D01*
X61618761Y-116490666D01*
X61666380Y-116395428D01*
X61666380Y-116204952D01*
X61618761Y-116109714D01*
X61571142Y-116062095D01*
X61475904Y-116014476D01*
X60666380Y-116014476D01*
X60761619Y-115585904D02*
X60714000Y-115538285D01*
X60666380Y-115443047D01*
X60666380Y-115204952D01*
X60714000Y-115109714D01*
X60761619Y-115062095D01*
X60856857Y-115014476D01*
X60952095Y-115014476D01*
X61094952Y-115062095D01*
X61666380Y-115633523D01*
X61666380Y-115014476D01*
X67024880Y-127279285D02*
X67024880Y-126612619D01*
X68024880Y-127041190D01*
X67358214Y-125803095D02*
X68024880Y-125803095D01*
X66977261Y-126041190D02*
X67691547Y-126279285D01*
X67691547Y-125660238D01*
X67739166Y-125326904D02*
X67739166Y-124850714D01*
X68024880Y-125422142D02*
X67024880Y-125088809D01*
X68024880Y-124755476D01*
X68024880Y-124422142D02*
X67024880Y-124422142D01*
X67501071Y-124422142D02*
X67501071Y-123850714D01*
X68024880Y-123850714D02*
X67024880Y-123850714D01*
X67929642Y-122803095D02*
X67977261Y-122850714D01*
X68024880Y-122993571D01*
X68024880Y-123088809D01*
X67977261Y-123231666D01*
X67882023Y-123326904D01*
X67786785Y-123374523D01*
X67596309Y-123422142D01*
X67453452Y-123422142D01*
X67262976Y-123374523D01*
X67167738Y-123326904D01*
X67072500Y-123231666D01*
X67024880Y-123088809D01*
X67024880Y-122993571D01*
X67072500Y-122850714D01*
X67120119Y-122803095D01*
X67024880Y-122184047D02*
X67024880Y-122088809D01*
X67072500Y-121993571D01*
X67120119Y-121945952D01*
X67215357Y-121898333D01*
X67405833Y-121850714D01*
X67643928Y-121850714D01*
X67834404Y-121898333D01*
X67929642Y-121945952D01*
X67977261Y-121993571D01*
X68024880Y-122088809D01*
X68024880Y-122184047D01*
X67977261Y-122279285D01*
X67929642Y-122326904D01*
X67834404Y-122374523D01*
X67643928Y-122422142D01*
X67405833Y-122422142D01*
X67215357Y-122374523D01*
X67120119Y-122326904D01*
X67072500Y-122279285D01*
X67024880Y-122184047D01*
X67358214Y-120993571D02*
X68024880Y-120993571D01*
X66977261Y-121231666D02*
X67691547Y-121469761D01*
X67691547Y-120850714D01*
%TO.C,U1*%
X93681294Y-91832180D02*
X93681294Y-92641704D01*
X93728913Y-92736942D01*
X93776532Y-92784561D01*
X93871770Y-92832180D01*
X94062246Y-92832180D01*
X94157484Y-92784561D01*
X94205103Y-92736942D01*
X94252722Y-92641704D01*
X94252722Y-91832180D01*
X95252722Y-92832180D02*
X94681294Y-92832180D01*
X94967008Y-92832180D02*
X94967008Y-91832180D01*
X94871770Y-91975038D01*
X94776532Y-92070276D01*
X94681294Y-92117895D01*
%TO.C,R10*%
X110470380Y-100680357D02*
X109994190Y-101013690D01*
X110470380Y-101251785D02*
X109470380Y-101251785D01*
X109470380Y-100870833D01*
X109518000Y-100775595D01*
X109565619Y-100727976D01*
X109660857Y-100680357D01*
X109803714Y-100680357D01*
X109898952Y-100727976D01*
X109946571Y-100775595D01*
X109994190Y-100870833D01*
X109994190Y-101251785D01*
X110470380Y-99727976D02*
X110470380Y-100299404D01*
X110470380Y-100013690D02*
X109470380Y-100013690D01*
X109613238Y-100108928D01*
X109708476Y-100204166D01*
X109756095Y-100299404D01*
X109470380Y-99108928D02*
X109470380Y-99013690D01*
X109518000Y-98918452D01*
X109565619Y-98870833D01*
X109660857Y-98823214D01*
X109851333Y-98775595D01*
X110089428Y-98775595D01*
X110279904Y-98823214D01*
X110375142Y-98870833D01*
X110422761Y-98918452D01*
X110470380Y-99013690D01*
X110470380Y-99108928D01*
X110422761Y-99204166D01*
X110375142Y-99251785D01*
X110279904Y-99299404D01*
X110089428Y-99347023D01*
X109851333Y-99347023D01*
X109660857Y-99299404D01*
X109565619Y-99251785D01*
X109518000Y-99204166D01*
X109470380Y-99108928D01*
%TO.C,R9*%
X117144380Y-100204166D02*
X116668190Y-100537500D01*
X117144380Y-100775595D02*
X116144380Y-100775595D01*
X116144380Y-100394642D01*
X116192000Y-100299404D01*
X116239619Y-100251785D01*
X116334857Y-100204166D01*
X116477714Y-100204166D01*
X116572952Y-100251785D01*
X116620571Y-100299404D01*
X116668190Y-100394642D01*
X116668190Y-100775595D01*
X117144380Y-99727976D02*
X117144380Y-99537500D01*
X117096761Y-99442261D01*
X117049142Y-99394642D01*
X116906285Y-99299404D01*
X116715809Y-99251785D01*
X116334857Y-99251785D01*
X116239619Y-99299404D01*
X116192000Y-99347023D01*
X116144380Y-99442261D01*
X116144380Y-99632738D01*
X116192000Y-99727976D01*
X116239619Y-99775595D01*
X116334857Y-99823214D01*
X116572952Y-99823214D01*
X116668190Y-99775595D01*
X116715809Y-99727976D01*
X116763428Y-99632738D01*
X116763428Y-99442261D01*
X116715809Y-99347023D01*
X116668190Y-99299404D01*
X116572952Y-99251785D01*
%TO.C,R8*%
X65183333Y-89882380D02*
X64850000Y-89406190D01*
X64611904Y-89882380D02*
X64611904Y-88882380D01*
X64992857Y-88882380D01*
X65088095Y-88930000D01*
X65135714Y-88977619D01*
X65183333Y-89072857D01*
X65183333Y-89215714D01*
X65135714Y-89310952D01*
X65088095Y-89358571D01*
X64992857Y-89406190D01*
X64611904Y-89406190D01*
X65754761Y-89310952D02*
X65659523Y-89263333D01*
X65611904Y-89215714D01*
X65564285Y-89120476D01*
X65564285Y-89072857D01*
X65611904Y-88977619D01*
X65659523Y-88930000D01*
X65754761Y-88882380D01*
X65945238Y-88882380D01*
X66040476Y-88930000D01*
X66088095Y-88977619D01*
X66135714Y-89072857D01*
X66135714Y-89120476D01*
X66088095Y-89215714D01*
X66040476Y-89263333D01*
X65945238Y-89310952D01*
X65754761Y-89310952D01*
X65659523Y-89358571D01*
X65611904Y-89406190D01*
X65564285Y-89501428D01*
X65564285Y-89691904D01*
X65611904Y-89787142D01*
X65659523Y-89834761D01*
X65754761Y-89882380D01*
X65945238Y-89882380D01*
X66040476Y-89834761D01*
X66088095Y-89787142D01*
X66135714Y-89691904D01*
X66135714Y-89501428D01*
X66088095Y-89406190D01*
X66040476Y-89358571D01*
X65945238Y-89310952D01*
%TO.C,R7*%
X74563333Y-98735680D02*
X74230000Y-98259490D01*
X73991904Y-98735680D02*
X73991904Y-97735680D01*
X74372857Y-97735680D01*
X74468095Y-97783300D01*
X74515714Y-97830919D01*
X74563333Y-97926157D01*
X74563333Y-98069014D01*
X74515714Y-98164252D01*
X74468095Y-98211871D01*
X74372857Y-98259490D01*
X73991904Y-98259490D01*
X74896666Y-97735680D02*
X75563333Y-97735680D01*
X75134761Y-98735680D01*
%TO.C,R6*%
X74563333Y-103902047D02*
X74230000Y-103425857D01*
X73991904Y-103902047D02*
X73991904Y-102902047D01*
X74372857Y-102902047D01*
X74468095Y-102949667D01*
X74515714Y-102997286D01*
X74563333Y-103092524D01*
X74563333Y-103235381D01*
X74515714Y-103330619D01*
X74468095Y-103378238D01*
X74372857Y-103425857D01*
X73991904Y-103425857D01*
X75420476Y-102902047D02*
X75230000Y-102902047D01*
X75134761Y-102949667D01*
X75087142Y-102997286D01*
X74991904Y-103140143D01*
X74944285Y-103330619D01*
X74944285Y-103711571D01*
X74991904Y-103806809D01*
X75039523Y-103854428D01*
X75134761Y-103902047D01*
X75325238Y-103902047D01*
X75420476Y-103854428D01*
X75468095Y-103806809D01*
X75515714Y-103711571D01*
X75515714Y-103473476D01*
X75468095Y-103378238D01*
X75420476Y-103330619D01*
X75325238Y-103283000D01*
X75134761Y-103283000D01*
X75039523Y-103330619D01*
X74991904Y-103378238D01*
X74944285Y-103473476D01*
%TO.C,R5*%
X74563333Y-108895380D02*
X74230000Y-108419190D01*
X73991904Y-108895380D02*
X73991904Y-107895380D01*
X74372857Y-107895380D01*
X74468095Y-107943000D01*
X74515714Y-107990619D01*
X74563333Y-108085857D01*
X74563333Y-108228714D01*
X74515714Y-108323952D01*
X74468095Y-108371571D01*
X74372857Y-108419190D01*
X73991904Y-108419190D01*
X75468095Y-107895380D02*
X74991904Y-107895380D01*
X74944285Y-108371571D01*
X74991904Y-108323952D01*
X75087142Y-108276333D01*
X75325238Y-108276333D01*
X75420476Y-108323952D01*
X75468095Y-108371571D01*
X75515714Y-108466809D01*
X75515714Y-108704904D01*
X75468095Y-108800142D01*
X75420476Y-108847761D01*
X75325238Y-108895380D01*
X75087142Y-108895380D01*
X74991904Y-108847761D01*
X74944285Y-108800142D01*
%TO.C,R4*%
X60832380Y-112693667D02*
X60356190Y-113027001D01*
X60832380Y-113265096D02*
X59832380Y-113265096D01*
X59832380Y-112884143D01*
X59880000Y-112788905D01*
X59927619Y-112741286D01*
X60022857Y-112693667D01*
X60165714Y-112693667D01*
X60260952Y-112741286D01*
X60308571Y-112788905D01*
X60356190Y-112884143D01*
X60356190Y-113265096D01*
X60165714Y-111836524D02*
X60832380Y-111836524D01*
X59784761Y-112074620D02*
X60499047Y-112312715D01*
X60499047Y-111693667D01*
%TO.C,R3*%
X74563333Y-121852380D02*
X74230000Y-121376190D01*
X73991904Y-121852380D02*
X73991904Y-120852380D01*
X74372857Y-120852380D01*
X74468095Y-120900000D01*
X74515714Y-120947619D01*
X74563333Y-121042857D01*
X74563333Y-121185714D01*
X74515714Y-121280952D01*
X74468095Y-121328571D01*
X74372857Y-121376190D01*
X73991904Y-121376190D01*
X74896666Y-120852380D02*
X75515714Y-120852380D01*
X75182380Y-121233333D01*
X75325238Y-121233333D01*
X75420476Y-121280952D01*
X75468095Y-121328571D01*
X75515714Y-121423809D01*
X75515714Y-121661904D01*
X75468095Y-121757142D01*
X75420476Y-121804761D01*
X75325238Y-121852380D01*
X75039523Y-121852380D01*
X74944285Y-121804761D01*
X74896666Y-121757142D01*
X84675714Y-121852380D02*
X84104285Y-121852380D01*
X84390000Y-121852380D02*
X84390000Y-120852380D01*
X84294761Y-120995238D01*
X84199523Y-121090476D01*
X84104285Y-121138095D01*
X85104285Y-121852380D02*
X85104285Y-120852380D01*
X85675714Y-121852380D02*
X85247142Y-121280952D01*
X85675714Y-120852380D02*
X85104285Y-121423809D01*
%TO.C,R2*%
X74563333Y-126922380D02*
X74230000Y-126446190D01*
X73991904Y-126922380D02*
X73991904Y-125922380D01*
X74372857Y-125922380D01*
X74468095Y-125970000D01*
X74515714Y-126017619D01*
X74563333Y-126112857D01*
X74563333Y-126255714D01*
X74515714Y-126350952D01*
X74468095Y-126398571D01*
X74372857Y-126446190D01*
X73991904Y-126446190D01*
X74944285Y-126017619D02*
X74991904Y-125970000D01*
X75087142Y-125922380D01*
X75325238Y-125922380D01*
X75420476Y-125970000D01*
X75468095Y-126017619D01*
X75515714Y-126112857D01*
X75515714Y-126208095D01*
X75468095Y-126350952D01*
X74896666Y-126922380D01*
X75515714Y-126922380D01*
X84675714Y-126922380D02*
X84104285Y-126922380D01*
X84390000Y-126922380D02*
X84390000Y-125922380D01*
X84294761Y-126065238D01*
X84199523Y-126160476D01*
X84104285Y-126208095D01*
X85104285Y-126922380D02*
X85104285Y-125922380D01*
X85675714Y-126922380D02*
X85247142Y-126350952D01*
X85675714Y-125922380D02*
X85104285Y-126493809D01*
%TO.C,R1*%
X74563333Y-131992380D02*
X74230000Y-131516190D01*
X73991904Y-131992380D02*
X73991904Y-130992380D01*
X74372857Y-130992380D01*
X74468095Y-131040000D01*
X74515714Y-131087619D01*
X74563333Y-131182857D01*
X74563333Y-131325714D01*
X74515714Y-131420952D01*
X74468095Y-131468571D01*
X74372857Y-131516190D01*
X73991904Y-131516190D01*
X75515714Y-131992380D02*
X74944285Y-131992380D01*
X75230000Y-131992380D02*
X75230000Y-130992380D01*
X75134761Y-131135238D01*
X75039523Y-131230476D01*
X74944285Y-131278095D01*
X84675714Y-131992380D02*
X84104285Y-131992380D01*
X84390000Y-131992380D02*
X84390000Y-130992380D01*
X84294761Y-131135238D01*
X84199523Y-131230476D01*
X84104285Y-131278095D01*
X85104285Y-131992380D02*
X85104285Y-130992380D01*
X85675714Y-131992380D02*
X85247142Y-131420952D01*
X85675714Y-130992380D02*
X85104285Y-131563809D01*
%TO.C,Q8*%
X83557619Y-89545238D02*
X83510000Y-89640476D01*
X83414761Y-89735714D01*
X83271904Y-89878571D01*
X83224285Y-89973809D01*
X83224285Y-90069047D01*
X83462380Y-90021428D02*
X83414761Y-90116666D01*
X83319523Y-90211904D01*
X83129047Y-90259523D01*
X82795714Y-90259523D01*
X82605238Y-90211904D01*
X82510000Y-90116666D01*
X82462380Y-90021428D01*
X82462380Y-89830952D01*
X82510000Y-89735714D01*
X82605238Y-89640476D01*
X82795714Y-89592857D01*
X83129047Y-89592857D01*
X83319523Y-89640476D01*
X83414761Y-89735714D01*
X83462380Y-89830952D01*
X83462380Y-90021428D01*
X82890952Y-89021428D02*
X82843333Y-89116666D01*
X82795714Y-89164285D01*
X82700476Y-89211904D01*
X82652857Y-89211904D01*
X82557619Y-89164285D01*
X82510000Y-89116666D01*
X82462380Y-89021428D01*
X82462380Y-88830952D01*
X82510000Y-88735714D01*
X82557619Y-88688095D01*
X82652857Y-88640476D01*
X82700476Y-88640476D01*
X82795714Y-88688095D01*
X82843333Y-88735714D01*
X82890952Y-88830952D01*
X82890952Y-89021428D01*
X82938571Y-89116666D01*
X82986190Y-89164285D01*
X83081428Y-89211904D01*
X83271904Y-89211904D01*
X83367142Y-89164285D01*
X83414761Y-89116666D01*
X83462380Y-89021428D01*
X83462380Y-88830952D01*
X83414761Y-88735714D01*
X83367142Y-88688095D01*
X83271904Y-88640476D01*
X83081428Y-88640476D01*
X82986190Y-88688095D01*
X82938571Y-88735714D01*
X82890952Y-88830952D01*
%TO.C,Q7*%
X94787619Y-96008538D02*
X94740000Y-96103776D01*
X94644761Y-96199014D01*
X94501904Y-96341871D01*
X94454285Y-96437109D01*
X94454285Y-96532347D01*
X94692380Y-96484728D02*
X94644761Y-96579966D01*
X94549523Y-96675204D01*
X94359047Y-96722823D01*
X94025714Y-96722823D01*
X93835238Y-96675204D01*
X93740000Y-96579966D01*
X93692380Y-96484728D01*
X93692380Y-96294252D01*
X93740000Y-96199014D01*
X93835238Y-96103776D01*
X94025714Y-96056157D01*
X94359047Y-96056157D01*
X94549523Y-96103776D01*
X94644761Y-96199014D01*
X94692380Y-96294252D01*
X94692380Y-96484728D01*
X93692380Y-95722823D02*
X93692380Y-95056157D01*
X94692380Y-95484728D01*
%TO.C,Q6*%
X101087619Y-101088538D02*
X101040000Y-101183776D01*
X100944761Y-101279014D01*
X100801904Y-101421871D01*
X100754285Y-101517109D01*
X100754285Y-101612347D01*
X100992380Y-101564728D02*
X100944761Y-101659966D01*
X100849523Y-101755204D01*
X100659047Y-101802823D01*
X100325714Y-101802823D01*
X100135238Y-101755204D01*
X100040000Y-101659966D01*
X99992380Y-101564728D01*
X99992380Y-101374252D01*
X100040000Y-101279014D01*
X100135238Y-101183776D01*
X100325714Y-101136157D01*
X100659047Y-101136157D01*
X100849523Y-101183776D01*
X100944761Y-101279014D01*
X100992380Y-101374252D01*
X100992380Y-101564728D01*
X99992380Y-100279014D02*
X99992380Y-100469490D01*
X100040000Y-100564728D01*
X100087619Y-100612347D01*
X100230476Y-100707585D01*
X100420952Y-100755204D01*
X100801904Y-100755204D01*
X100897142Y-100707585D01*
X100944761Y-100659966D01*
X100992380Y-100564728D01*
X100992380Y-100374252D01*
X100944761Y-100279014D01*
X100897142Y-100231395D01*
X100801904Y-100183776D01*
X100563809Y-100183776D01*
X100468571Y-100231395D01*
X100420952Y-100279014D01*
X100373333Y-100374252D01*
X100373333Y-100564728D01*
X100420952Y-100659966D01*
X100468571Y-100707585D01*
X100563809Y-100755204D01*
%TO.C,Q5*%
X94787619Y-106168238D02*
X94740000Y-106263476D01*
X94644761Y-106358714D01*
X94501904Y-106501571D01*
X94454285Y-106596809D01*
X94454285Y-106692047D01*
X94692380Y-106644428D02*
X94644761Y-106739666D01*
X94549523Y-106834904D01*
X94359047Y-106882523D01*
X94025714Y-106882523D01*
X93835238Y-106834904D01*
X93740000Y-106739666D01*
X93692380Y-106644428D01*
X93692380Y-106453952D01*
X93740000Y-106358714D01*
X93835238Y-106263476D01*
X94025714Y-106215857D01*
X94359047Y-106215857D01*
X94549523Y-106263476D01*
X94644761Y-106358714D01*
X94692380Y-106453952D01*
X94692380Y-106644428D01*
X93692380Y-105311095D02*
X93692380Y-105787285D01*
X94168571Y-105834904D01*
X94120952Y-105787285D01*
X94073333Y-105692047D01*
X94073333Y-105453952D01*
X94120952Y-105358714D01*
X94168571Y-105311095D01*
X94263809Y-105263476D01*
X94501904Y-105263476D01*
X94597142Y-105311095D01*
X94644761Y-105358714D01*
X94692380Y-105453952D01*
X94692380Y-105692047D01*
X94644761Y-105787285D01*
X94597142Y-105834904D01*
%TO.C,Q4*%
X83557619Y-112625238D02*
X83510000Y-112720476D01*
X83414761Y-112815714D01*
X83271904Y-112958571D01*
X83224285Y-113053809D01*
X83224285Y-113149047D01*
X83462380Y-113101428D02*
X83414761Y-113196666D01*
X83319523Y-113291904D01*
X83129047Y-113339523D01*
X82795714Y-113339523D01*
X82605238Y-113291904D01*
X82510000Y-113196666D01*
X82462380Y-113101428D01*
X82462380Y-112910952D01*
X82510000Y-112815714D01*
X82605238Y-112720476D01*
X82795714Y-112672857D01*
X83129047Y-112672857D01*
X83319523Y-112720476D01*
X83414761Y-112815714D01*
X83462380Y-112910952D01*
X83462380Y-113101428D01*
X82795714Y-111815714D02*
X83462380Y-111815714D01*
X82414761Y-112053809D02*
X83129047Y-112291904D01*
X83129047Y-111672857D01*
%TO.C,Q3*%
X94787619Y-119085238D02*
X94740000Y-119180476D01*
X94644761Y-119275714D01*
X94501904Y-119418571D01*
X94454285Y-119513809D01*
X94454285Y-119609047D01*
X94692380Y-119561428D02*
X94644761Y-119656666D01*
X94549523Y-119751904D01*
X94359047Y-119799523D01*
X94025714Y-119799523D01*
X93835238Y-119751904D01*
X93740000Y-119656666D01*
X93692380Y-119561428D01*
X93692380Y-119370952D01*
X93740000Y-119275714D01*
X93835238Y-119180476D01*
X94025714Y-119132857D01*
X94359047Y-119132857D01*
X94549523Y-119180476D01*
X94644761Y-119275714D01*
X94692380Y-119370952D01*
X94692380Y-119561428D01*
X93692380Y-118799523D02*
X93692380Y-118180476D01*
X94073333Y-118513809D01*
X94073333Y-118370952D01*
X94120952Y-118275714D01*
X94168571Y-118228095D01*
X94263809Y-118180476D01*
X94501904Y-118180476D01*
X94597142Y-118228095D01*
X94644761Y-118275714D01*
X94692380Y-118370952D01*
X94692380Y-118656666D01*
X94644761Y-118751904D01*
X94597142Y-118799523D01*
%TO.C,Q2*%
X101087619Y-124165238D02*
X101040000Y-124260476D01*
X100944761Y-124355714D01*
X100801904Y-124498571D01*
X100754285Y-124593809D01*
X100754285Y-124689047D01*
X100992380Y-124641428D02*
X100944761Y-124736666D01*
X100849523Y-124831904D01*
X100659047Y-124879523D01*
X100325714Y-124879523D01*
X100135238Y-124831904D01*
X100040000Y-124736666D01*
X99992380Y-124641428D01*
X99992380Y-124450952D01*
X100040000Y-124355714D01*
X100135238Y-124260476D01*
X100325714Y-124212857D01*
X100659047Y-124212857D01*
X100849523Y-124260476D01*
X100944761Y-124355714D01*
X100992380Y-124450952D01*
X100992380Y-124641428D01*
X100087619Y-123831904D02*
X100040000Y-123784285D01*
X99992380Y-123689047D01*
X99992380Y-123450952D01*
X100040000Y-123355714D01*
X100087619Y-123308095D01*
X100182857Y-123260476D01*
X100278095Y-123260476D01*
X100420952Y-123308095D01*
X100992380Y-123879523D01*
X100992380Y-123260476D01*
%TO.C,Q1*%
X94787619Y-129245238D02*
X94740000Y-129340476D01*
X94644761Y-129435714D01*
X94501904Y-129578571D01*
X94454285Y-129673809D01*
X94454285Y-129769047D01*
X94692380Y-129721428D02*
X94644761Y-129816666D01*
X94549523Y-129911904D01*
X94359047Y-129959523D01*
X94025714Y-129959523D01*
X93835238Y-129911904D01*
X93740000Y-129816666D01*
X93692380Y-129721428D01*
X93692380Y-129530952D01*
X93740000Y-129435714D01*
X93835238Y-129340476D01*
X94025714Y-129292857D01*
X94359047Y-129292857D01*
X94549523Y-129340476D01*
X94644761Y-129435714D01*
X94692380Y-129530952D01*
X94692380Y-129721428D01*
X94692380Y-128340476D02*
X94692380Y-128911904D01*
X94692380Y-128626190D02*
X93692380Y-128626190D01*
X93835238Y-128721428D01*
X93930476Y-128816666D01*
X93978095Y-128911904D01*
%TO.C,J3*%
X112747466Y-132238500D02*
X112747466Y-132952786D01*
X112699847Y-133095643D01*
X112604609Y-133190881D01*
X112461752Y-133238500D01*
X112366514Y-133238500D01*
X113128419Y-132238500D02*
X113747466Y-132238500D01*
X113414133Y-132619453D01*
X113556990Y-132619453D01*
X113652228Y-132667072D01*
X113699847Y-132714691D01*
X113747466Y-132809929D01*
X113747466Y-133048024D01*
X113699847Y-133143262D01*
X113652228Y-133190881D01*
X113556990Y-133238500D01*
X113271276Y-133238500D01*
X113176038Y-133190881D01*
X113128419Y-133143262D01*
X114317142Y-125410220D02*
X114317142Y-124410220D01*
X114650476Y-125124506D01*
X114983809Y-124410220D01*
X114983809Y-125410220D01*
X115650476Y-124410220D02*
X115840952Y-124410220D01*
X115936190Y-124457840D01*
X116031428Y-124553078D01*
X116079047Y-124743554D01*
X116079047Y-125076887D01*
X116031428Y-125267363D01*
X115936190Y-125362601D01*
X115840952Y-125410220D01*
X115650476Y-125410220D01*
X115555238Y-125362601D01*
X115460000Y-125267363D01*
X115412380Y-125076887D01*
X115412380Y-124743554D01*
X115460000Y-124553078D01*
X115555238Y-124457840D01*
X115650476Y-124410220D01*
X116364761Y-124410220D02*
X116936190Y-124410220D01*
X116650476Y-125410220D02*
X116650476Y-124410220D01*
X117460000Y-124410220D02*
X117650476Y-124410220D01*
X117745714Y-124457840D01*
X117840952Y-124553078D01*
X117888571Y-124743554D01*
X117888571Y-125076887D01*
X117840952Y-125267363D01*
X117745714Y-125362601D01*
X117650476Y-125410220D01*
X117460000Y-125410220D01*
X117364761Y-125362601D01*
X117269523Y-125267363D01*
X117221904Y-125076887D01*
X117221904Y-124743554D01*
X117269523Y-124553078D01*
X117364761Y-124457840D01*
X117460000Y-124410220D01*
X118888571Y-125410220D02*
X118555238Y-124934030D01*
X118317142Y-125410220D02*
X118317142Y-124410220D01*
X118698095Y-124410220D01*
X118793333Y-124457840D01*
X118840952Y-124505459D01*
X118888571Y-124600697D01*
X118888571Y-124743554D01*
X118840952Y-124838792D01*
X118793333Y-124886411D01*
X118698095Y-124934030D01*
X118317142Y-124934030D01*
X120412380Y-124886411D02*
X120555238Y-124934030D01*
X120602857Y-124981649D01*
X120650476Y-125076887D01*
X120650476Y-125219744D01*
X120602857Y-125314982D01*
X120555238Y-125362601D01*
X120460000Y-125410220D01*
X120079047Y-125410220D01*
X120079047Y-124410220D01*
X120412380Y-124410220D01*
X120507619Y-124457840D01*
X120555238Y-124505459D01*
X120602857Y-124600697D01*
X120602857Y-124695935D01*
X120555238Y-124791173D01*
X120507619Y-124838792D01*
X120412380Y-124886411D01*
X120079047Y-124886411D01*
%TO.C,J2*%
X98614586Y-132238500D02*
X98614586Y-132952786D01*
X98566967Y-133095643D01*
X98471729Y-133190881D01*
X98328872Y-133238500D01*
X98233634Y-133238500D01*
X99043158Y-132333739D02*
X99090777Y-132286120D01*
X99186015Y-132238500D01*
X99424110Y-132238500D01*
X99519348Y-132286120D01*
X99566967Y-132333739D01*
X99614586Y-132428977D01*
X99614586Y-132524215D01*
X99566967Y-132667072D01*
X98995539Y-133238500D01*
X99614586Y-133238500D01*
X102617571Y-125410220D02*
X102617571Y-124410220D01*
X102950904Y-125124506D01*
X103284238Y-124410220D01*
X103284238Y-125410220D01*
X103950904Y-124410220D02*
X104141380Y-124410220D01*
X104236619Y-124457840D01*
X104331857Y-124553078D01*
X104379476Y-124743554D01*
X104379476Y-125076887D01*
X104331857Y-125267363D01*
X104236619Y-125362601D01*
X104141380Y-125410220D01*
X103950904Y-125410220D01*
X103855666Y-125362601D01*
X103760428Y-125267363D01*
X103712809Y-125076887D01*
X103712809Y-124743554D01*
X103760428Y-124553078D01*
X103855666Y-124457840D01*
X103950904Y-124410220D01*
X104665190Y-124410220D02*
X105236619Y-124410220D01*
X104950904Y-125410220D02*
X104950904Y-124410220D01*
X105760428Y-124410220D02*
X105950904Y-124410220D01*
X106046142Y-124457840D01*
X106141380Y-124553078D01*
X106189000Y-124743554D01*
X106189000Y-125076887D01*
X106141380Y-125267363D01*
X106046142Y-125362601D01*
X105950904Y-125410220D01*
X105760428Y-125410220D01*
X105665190Y-125362601D01*
X105569952Y-125267363D01*
X105522333Y-125076887D01*
X105522333Y-124743554D01*
X105569952Y-124553078D01*
X105665190Y-124457840D01*
X105760428Y-124410220D01*
X107189000Y-125410220D02*
X106855666Y-124934030D01*
X106617571Y-125410220D02*
X106617571Y-124410220D01*
X106998523Y-124410220D01*
X107093761Y-124457840D01*
X107141380Y-124505459D01*
X107189000Y-124600697D01*
X107189000Y-124743554D01*
X107141380Y-124838792D01*
X107093761Y-124886411D01*
X106998523Y-124934030D01*
X106617571Y-124934030D01*
X108331857Y-125124506D02*
X108808047Y-125124506D01*
X108236619Y-125410220D02*
X108569952Y-124410220D01*
X108903285Y-125410220D01*
%TO.C,D2*%
X110459904Y-87682380D02*
X110459904Y-86682380D01*
X110698000Y-86682380D01*
X110840857Y-86730000D01*
X110936095Y-86825238D01*
X110983714Y-86920476D01*
X111031333Y-87110952D01*
X111031333Y-87253809D01*
X110983714Y-87444285D01*
X110936095Y-87539523D01*
X110840857Y-87634761D01*
X110698000Y-87682380D01*
X110459904Y-87682380D01*
X111412285Y-86777619D02*
X111459904Y-86730000D01*
X111555142Y-86682380D01*
X111793238Y-86682380D01*
X111888476Y-86730000D01*
X111936095Y-86777619D01*
X111983714Y-86872857D01*
X111983714Y-86968095D01*
X111936095Y-87110952D01*
X111364666Y-87682380D01*
X111983714Y-87682380D01*
X105458497Y-92501955D02*
X105458497Y-91501955D01*
X105934687Y-92501955D02*
X105934687Y-91501955D01*
X106506116Y-92501955D01*
X106506116Y-91501955D01*
X106839449Y-91501955D02*
X107410878Y-91501955D01*
X107125163Y-92501955D02*
X107125163Y-91501955D01*
X108506116Y-92501955D02*
X108506116Y-91501955D01*
X108887068Y-91501955D01*
X108982306Y-91549575D01*
X109029925Y-91597194D01*
X109077544Y-91692432D01*
X109077544Y-91835289D01*
X109029925Y-91930527D01*
X108982306Y-91978146D01*
X108887068Y-92025765D01*
X108506116Y-92025765D01*
X109410878Y-91501955D02*
X109648973Y-92501955D01*
X109839449Y-91787670D01*
X110029925Y-92501955D01*
X110268020Y-91501955D01*
X111220401Y-92501955D02*
X110887068Y-92025765D01*
X110648973Y-92501955D02*
X110648973Y-91501955D01*
X111029925Y-91501955D01*
X111125163Y-91549575D01*
X111172782Y-91597194D01*
X111220401Y-91692432D01*
X111220401Y-91835289D01*
X111172782Y-91930527D01*
X111125163Y-91978146D01*
X111029925Y-92025765D01*
X110648973Y-92025765D01*
%TO.C,D1*%
X117393904Y-87612380D02*
X117393904Y-86612380D01*
X117632000Y-86612380D01*
X117774857Y-86660000D01*
X117870095Y-86755238D01*
X117917714Y-86850476D01*
X117965333Y-87040952D01*
X117965333Y-87183809D01*
X117917714Y-87374285D01*
X117870095Y-87469523D01*
X117774857Y-87564761D01*
X117632000Y-87612380D01*
X117393904Y-87612380D01*
X118917714Y-87612380D02*
X118346285Y-87612380D01*
X118632000Y-87612380D02*
X118632000Y-86612380D01*
X118536761Y-86755238D01*
X118441523Y-86850476D01*
X118346285Y-86898095D01*
X112996761Y-92287142D02*
X112949142Y-92334761D01*
X112806285Y-92382380D01*
X112711047Y-92382380D01*
X112568190Y-92334761D01*
X112472952Y-92239523D01*
X112425333Y-92144285D01*
X112377714Y-91953809D01*
X112377714Y-91810952D01*
X112425333Y-91620476D01*
X112472952Y-91525238D01*
X112568190Y-91430000D01*
X112711047Y-91382380D01*
X112806285Y-91382380D01*
X112949142Y-91430000D01*
X112996761Y-91477619D01*
X113853904Y-91382380D02*
X113663428Y-91382380D01*
X113568190Y-91430000D01*
X113520571Y-91477619D01*
X113425333Y-91620476D01*
X113377714Y-91810952D01*
X113377714Y-92191904D01*
X113425333Y-92287142D01*
X113472952Y-92334761D01*
X113568190Y-92382380D01*
X113758666Y-92382380D01*
X113853904Y-92334761D01*
X113901523Y-92287142D01*
X113949142Y-92191904D01*
X113949142Y-91953809D01*
X113901523Y-91858571D01*
X113853904Y-91810952D01*
X113758666Y-91763333D01*
X113568190Y-91763333D01*
X113472952Y-91810952D01*
X113425333Y-91858571D01*
X113377714Y-91953809D01*
X114806285Y-91715714D02*
X114806285Y-92382380D01*
X114568190Y-91334761D02*
X114330095Y-92049047D01*
X114949142Y-92049047D01*
X116092000Y-92382380D02*
X116092000Y-91382380D01*
X116472952Y-91382380D01*
X116568190Y-91430000D01*
X116615809Y-91477619D01*
X116663428Y-91572857D01*
X116663428Y-91715714D01*
X116615809Y-91810952D01*
X116568190Y-91858571D01*
X116472952Y-91906190D01*
X116092000Y-91906190D01*
X116996761Y-91382380D02*
X117234857Y-92382380D01*
X117425333Y-91668095D01*
X117615809Y-92382380D01*
X117853904Y-91382380D01*
X118806285Y-92382380D02*
X118472952Y-91906190D01*
X118234857Y-92382380D02*
X118234857Y-91382380D01*
X118615809Y-91382380D01*
X118711047Y-91430000D01*
X118758666Y-91477619D01*
X118806285Y-91572857D01*
X118806285Y-91715714D01*
X118758666Y-91810952D01*
X118711047Y-91858571D01*
X118615809Y-91906190D01*
X118234857Y-91906190D01*
%TO.C,C5*%
X58147142Y-108079666D02*
X58194761Y-108127285D01*
X58242380Y-108270142D01*
X58242380Y-108365380D01*
X58194761Y-108508238D01*
X58099523Y-108603476D01*
X58004285Y-108651095D01*
X57813809Y-108698714D01*
X57670952Y-108698714D01*
X57480476Y-108651095D01*
X57385238Y-108603476D01*
X57290000Y-108508238D01*
X57242380Y-108365380D01*
X57242380Y-108270142D01*
X57290000Y-108127285D01*
X57337619Y-108079666D01*
X57242380Y-107174904D02*
X57242380Y-107651095D01*
X57718571Y-107698714D01*
X57670952Y-107651095D01*
X57623333Y-107555857D01*
X57623333Y-107317761D01*
X57670952Y-107222523D01*
X57718571Y-107174904D01*
X57813809Y-107127285D01*
X58051904Y-107127285D01*
X58147142Y-107174904D01*
X58194761Y-107222523D01*
X58242380Y-107317761D01*
X58242380Y-107555857D01*
X58194761Y-107651095D01*
X58147142Y-107698714D01*
%TO.C,C4*%
X58147142Y-131156666D02*
X58194761Y-131204285D01*
X58242380Y-131347142D01*
X58242380Y-131442380D01*
X58194761Y-131585238D01*
X58099523Y-131680476D01*
X58004285Y-131728095D01*
X57813809Y-131775714D01*
X57670952Y-131775714D01*
X57480476Y-131728095D01*
X57385238Y-131680476D01*
X57290000Y-131585238D01*
X57242380Y-131442380D01*
X57242380Y-131347142D01*
X57290000Y-131204285D01*
X57337619Y-131156666D01*
X57575714Y-130299523D02*
X58242380Y-130299523D01*
X57194761Y-130537619D02*
X57909047Y-130775714D01*
X57909047Y-130156666D01*
%TO.C,C2*%
X136186142Y-107878666D02*
X136233761Y-107926285D01*
X136281380Y-108069142D01*
X136281380Y-108164380D01*
X136233761Y-108307238D01*
X136138523Y-108402476D01*
X136043285Y-108450095D01*
X135852809Y-108497714D01*
X135709952Y-108497714D01*
X135519476Y-108450095D01*
X135424238Y-108402476D01*
X135329000Y-108307238D01*
X135281380Y-108164380D01*
X135281380Y-108069142D01*
X135329000Y-107926285D01*
X135376619Y-107878666D01*
X135376619Y-107497714D02*
X135329000Y-107450095D01*
X135281380Y-107354857D01*
X135281380Y-107116761D01*
X135329000Y-107021523D01*
X135376619Y-106973904D01*
X135471857Y-106926285D01*
X135567095Y-106926285D01*
X135709952Y-106973904D01*
X136281380Y-107545333D01*
X136281380Y-106926285D01*
%TO.C,C1*%
X91237142Y-89726466D02*
X91284761Y-89774085D01*
X91332380Y-89916942D01*
X91332380Y-90012180D01*
X91284761Y-90155038D01*
X91189523Y-90250276D01*
X91094285Y-90297895D01*
X90903809Y-90345514D01*
X90760952Y-90345514D01*
X90570476Y-90297895D01*
X90475238Y-90250276D01*
X90380000Y-90155038D01*
X90332380Y-90012180D01*
X90332380Y-89916942D01*
X90380000Y-89774085D01*
X90427619Y-89726466D01*
X91332380Y-88774085D02*
X91332380Y-89345514D01*
X91332380Y-89059800D02*
X90332380Y-89059800D01*
X90475238Y-89155038D01*
X90570476Y-89250276D01*
X90618095Y-89345514D01*
%TD*%
M02*
